Quorum Bold.ufo
<glyph name="exclam" format="1">
  <advance width="688"/>
  <unicode hex="0021"/>
  <outline>
    <contour>
      <point x="630" y="1498" type="line"/>
      <point x="594" y="1453"/>
      <point x="561" y="1397" type="qcurve" smooth="yes"/>
      <point x="523" y="1334"/>
      <point x="514" y="1288" type="qcurve" smooth="yes"/>
      <point x="500" y="1222"/>
      <point x="489" y="1119"/>
      <point x="489" y="1055" type="qcurve" smooth="yes"/>
      <point x="489" y="473" type="line" smooth="yes"/>
      <point x="489" y="460"/>
      <point x="495" y="442" type="qcurve" smooth="yes"/>
      <point x="498" y="434"/>
      <point x="517" y="405"/>
      <point x="516" y="404" type="qcurve" smooth="yes"/>
      <point x="182" y="404" type="line"/>
      <point x="185" y="411"/>
      <point x="187" y="414" type="qcurve" smooth="yes"/>
      <point x="197" y="431"/>
      <point x="197" y="432" type="qcurve" smooth="yes"/>
      <point x="201" y="442"/>
      <point x="206" y="458"/>
      <point x="206" y="466" type="qcurve" smooth="yes"/>
      <point x="206" y="1067" type="line" smooth="yes"/>
      <point x="206" y="1149"/>
      <point x="201" y="1220"/>
      <point x="173" y="1347"/>
      <point x="118" y="1429" type="qcurve" smooth="yes"/>
      <point x="100" y="1456"/>
      <point x="66" y="1498" type="qcurve"/>
    </contour>
    <contour>
      <point x="347" y="-22" type="qcurve" smooth="yes"/>
      <point x="267" y="-22"/>
      <point x="221" y="30" type="qcurve" smooth="yes"/>
      <point x="179" y="77"/>
      <point x="179" y="146" type="qcurve" smooth="yes"/>
      <point x="179" y="214"/>
      <point x="220" y="260" type="qcurve" smooth="yes"/>
      <point x="265" y="311"/>
      <point x="344" y="311" type="qcurve" smooth="yes"/>
      <point x="423" y="311"/>
      <point x="469" y="259" type="qcurve" smooth="yes"/>
      <point x="511" y="212"/>
      <point x="511" y="143" type="qcurve" smooth="yes"/>
      <point x="511" y="76"/>
      <point x="470" y="29" type="qcurve" smooth="yes"/>
      <point x="425" y="-22"/>
    </contour>
  </outline>
</glyph>
<glyph name="quotedbl" format="1">
  <advance width="618"/>
  <unicode hex="0022"/>
  <outline>
    <contour>
      <point x="545" y="1340" type="qcurve" smooth="yes"/>
      <point x="499" y="973" type="line"/>
      <point x="373" y="973" type="line"/>
      <point x="326" y="1340" type="line" smooth="yes"/>
      <point x="321" y="1384"/>
      <point x="397" y="1450"/>
      <point x="446" y="1450" type="qcurve" smooth="yes"/>
      <point x="486" y="1450"/>
      <point x="546" y="1392"/>
      <point x="546" y="1351" type="qcurve" smooth="yes"/>
      <point x="545" y="1344"/>
    </contour>
    <contour>
      <point x="289" y="1340" type="qcurve" smooth="yes"/>
      <point x="243" y="973" type="line"/>
      <point x="117" y="973" type="line"/>
      <point x="70" y="1340" type="line" smooth="yes"/>
      <point x="65" y="1384"/>
      <point x="137" y="1450"/>
      <point x="186" y="1450" type="qcurve" smooth="yes"/>
      <point x="227" y="1450"/>
      <point x="290" y="1391"/>
      <point x="290" y="1351" type="qcurve" smooth="yes"/>
      <point x="289" y="1344"/>
    </contour>
  </outline>
</glyph>
<glyph name="numbersign" format="1">
  <advance width="1314"/>
  <unicode hex="0023"/>
  <outline>
    <contour>
      <point x="1236" y="1455" type="line"/>
      <point x="1171" y="1262" type="line"/>
      <point x="1164" y="1265"/>
      <point x="1161" y="1266" type="qcurve" smooth="yes"/>
      <point x="1144" y="1273"/>
      <point x="1142" y="1274" type="qcurve" smooth="yes"/>
      <point x="1130" y="1278"/>
      <point x="1115" y="1282"/>
      <point x="1102" y="1282" type="qcurve" smooth="yes"/>
      <point x="977" y="1282" type="line"/>
      <point x="902" y="1062" type="line"/>
      <point x="1008" y="1062" type="line" smooth="yes"/>
      <point x="1018" y="1062"/>
      <point x="1036" y="1065"/>
      <point x="1070" y="1072"/>
      <point x="1090" y="1079" type="qcurve" smooth="yes"/>
      <point x="1097" y="1081"/>
      <point x="1110" y="1087" type="qcurve"/>
      <point x="1038" y="883" type="line"/>
      <point x="1033" y="887"/>
      <point x="1031" y="889" type="qcurve" smooth="yes"/>
      <point x="1024" y="895"/>
      <point x="1013" y="906"/>
      <point x="979" y="908"/>
      <point x="977" y="908" type="qcurve" smooth="yes"/>
      <point x="846" y="908" type="line"/>
      <point x="793" y="746" type="line" smooth="yes"/>
      <point x="787" y="730"/>
      <point x="787" y="710" type="qcurve" smooth="yes"/>
      <point x="787" y="690"/>
      <point x="798" y="670" type="qcurve"/>
      <point x="564" y="670" type="line"/>
      <point x="584" y="683"/>
      <point x="600" y="704" type="qcurve" smooth="yes"/>
      <point x="606" y="711"/>
      <point x="610" y="717" type="qcurve" smooth="yes"/>
      <point x="619" y="730"/>
      <point x="623" y="744" type="qcurve" smooth="yes"/>
      <point x="677" y="909" type="line"/>
      <point x="449" y="909" type="line"/>
      <point x="396" y="753" type="line" smooth="yes"/>
      <point x="390" y="733"/>
      <point x="390" y="714" type="qcurve" smooth="yes"/>
      <point x="390" y="704"/>
      <point x="393" y="688"/>
      <point x="396" y="677" type="qcurve" smooth="yes"/>
      <point x="396" y="675"/>
      <point x="398" y="670" type="qcurve"/>
      <point x="176" y="670" type="line"/>
      <point x="188" y="677"/>
      <point x="202" y="688"/>
      <point x="215" y="706"/>
      <point x="219" y="717" type="qcurve" smooth="yes"/>
      <point x="220" y="721"/>
      <point x="226" y="739" type="qcurve" smooth="yes"/>
      <point x="284" y="908" type="line"/>
      <point x="142" y="908" type="line" smooth="yes"/>
      <point x="132" y="908"/>
      <point x="113" y="907"/>
      <point x="90" y="902"/>
      <point x="72" y="893" type="qcurve" smooth="yes"/>
      <point x="67" y="890"/>
      <point x="56" y="884" type="qcurve"/>
      <point x="124" y="1088" type="line"/>
      <point x="129" y="1083"/>
      <point x="144" y="1074"/>
      <point x="168" y="1064"/>
      <point x="190" y="1064" type="qcurve" smooth="yes"/>
      <point x="337" y="1064" type="line"/>
      <point x="414" y="1281" type="line"/>
      <point x="302" y="1281" type="line" smooth="yes"/>
      <point x="276" y="1281"/>
      <point x="251" y="1279"/>
      <point x="229" y="1273" type="qcurve" smooth="yes"/>
      <point x="217" y="1270"/>
      <point x="186" y="1257"/>
      <point x="185" y="1257" type="qcurve" smooth="yes"/>
      <point x="250" y="1451" type="line"/>
      <point x="256" y="1446"/>
      <point x="260" y="1444" type="qcurve" smooth="yes"/>
      <point x="272" y="1437"/>
      <point x="295" y="1429"/>
      <point x="310" y="1429" type="qcurve" smooth="yes"/>
      <point x="315" y="1429"/>
      <point x="337" y="1431"/>
      <point x="344" y="1431" type="qcurve" smooth="yes"/>
      <point x="464" y="1431" type="line"/>
      <point x="514" y="1574" type="line" smooth="yes"/>
      <point x="521" y="1592"/>
      <point x="535" y="1631"/>
      <point x="535" y="1649" type="qcurve" smooth="yes"/>
      <point x="535" y="1666"/>
      <point x="532" y="1690"/>
      <point x="530" y="1692" type="qcurve" smooth="yes"/>
      <point x="745" y="1692" type="line"/>
      <point x="738" y="1686"/>
      <point x="735" y="1683" type="qcurve" smooth="yes"/>
      <point x="722" y="1671"/>
      <point x="717" y="1665" type="qcurve" smooth="yes"/>
      <point x="707" y="1651"/>
      <point x="701" y="1634" type="qcurve" smooth="yes"/>
      <point x="629" y="1431" type="line"/>
      <point x="858" y="1431" type="line"/>
      <point x="919" y="1611" type="line" smooth="yes"/>
      <point x="922" y="1620"/>
      <point x="929" y="1639"/>
      <point x="929" y="1647" type="qcurve" smooth="yes"/>
      <point x="929" y="1653"/>
      <point x="925" y="1677"/>
      <point x="909" y="1692" type="qcurve"/>
      <point x="1142" y="1692" type="line"/>
      <point x="1135" y="1687"/>
      <point x="1132" y="1684" type="qcurve" smooth="yes"/>
      <point x="1122" y="1675"/>
      <point x="1110" y="1654"/>
      <point x="1099" y="1633"/>
      <point x="1093" y="1615" type="qcurve" smooth="yes"/>
      <point x="1030" y="1431" type="line"/>
      <point x="1142" y="1431" type="line" smooth="yes"/>
      <point x="1153" y="1431"/>
      <point x="1158" y="1431" type="qcurve" smooth="yes"/>
      <point x="1180" y="1431"/>
      <point x="1184" y="1432" type="qcurve" smooth="yes"/>
      <point x="1186" y="1433"/>
      <point x="1205" y="1442" type="qcurve" smooth="yes"/>
    </contour>
    <contour>
      <point x="804" y="1281" type="line"/>
      <point x="578" y="1281" type="line"/>
      <point x="503" y="1064" type="line"/>
      <point x="732" y="1064" type="line"/>
    </contour>
  </outline>
</glyph>
<glyph name="dollar" format="1">
  <advance width="972"/>
  <unicode hex="0024"/>
  <outline>
    <contour>
      <point x="913" y="563" type="qcurve" smooth="yes"/>
      <point x="913" y="419"/>
      <point x="820" y="322" type="qcurve" smooth="yes"/>
      <point x="753" y="252"/>
      <point x="647" y="213" type="qcurve" smooth="yes"/>
      <point x="579" y="188"/>
      <point x="554" y="188" type="qcurve"/>
      <point x="554" y="43" type="line" smooth="yes"/>
      <point x="554" y="34"/>
      <point x="563" y="18" type="qcurve" smooth="yes"/>
      <point x="565" y="13"/>
      <point x="575" y="0" type="qcurve"/>
      <point x="339" y="0" type="line"/>
      <point x="342" y="5"/>
      <point x="346" y="11" type="qcurve" smooth="yes"/>
      <point x="349" y="16"/>
      <point x="355" y="32"/>
      <point x="361" y="51"/>
      <point x="361" y="60" type="qcurve" smooth="yes"/>
      <point x="361" y="192" type="line" smooth="yes"/>
      <point x="360" y="190"/>
      <point x="298" y="200"/>
      <point x="270" y="206" type="qcurve" smooth="yes"/>
      <point x="239" y="215"/>
      <point x="206" y="222"/>
      <point x="187" y="222" type="qcurve" smooth="yes"/>
      <point x="149" y="222"/>
      <point x="113" y="211"/>
      <point x="72" y="177" type="qcurve"/>
      <point x="72" y="622" type="line"/>
      <point x="97" y="592"/>
      <point x="123" y="562" type="qcurve" smooth="yes"/>
      <point x="187" y="494"/>
      <point x="258" y="450" type="qcurve" smooth="yes"/>
      <point x="357" y="389"/>
      <point x="449" y="389" type="qcurve" smooth="yes"/>
      <point x="534" y="389"/>
      <point x="589" y="428" type="qcurve" smooth="yes"/>
      <point x="648" y="470"/>
      <point x="648" y="540" type="qcurve" smooth="yes"/>
      <point x="648" y="587"/>
      <point x="597" y="639"/>
      <point x="478" y="680" type="qcurve" smooth="yes"/>
      <point x="307" y="738" type="line" smooth="yes"/>
      <point x="184" y="778"/>
      <point x="132" y="850" type="qcurve" smooth="yes"/>
      <point x="86" y="914"/>
      <point x="86" y="1019" type="qcurve" smooth="yes"/>
      <point x="86" y="1135"/>
      <point x="159" y="1215" type="qcurve" smooth="yes"/>
      <point x="210" y="1271"/>
      <point x="295" y="1305" type="qcurve" smooth="yes"/>
      <point x="332" y="1317"/>
      <point x="369" y="1329" type="qcurve"/>
      <point x="369" y="1401" type="line" smooth="yes"/>
      <point x="369" y="1434"/>
      <point x="360" y="1468" type="qcurve" smooth="yes"/>
      <point x="358" y="1477"/>
      <point x="351" y="1491" type="qcurve" smooth="yes"/>
      <point x="350" y="1493"/>
      <point x="347" y="1498" type="qcurve"/>
      <point x="572" y="1498" type="line"/>
      <point x="565" y="1485" type="line"/>
      <point x="563" y="1466" type="line"/>
      <point x="563" y="1339" type="line"/>
      <point x="592" y="1337"/>
      <point x="610" y="1335" type="qcurve" smooth="yes"/>
      <point x="714" y="1324"/>
      <point x="757" y="1312" type="qcurve" smooth="yes"/>
      <point x="774" y="1307"/>
      <point x="811" y="1327" type="qcurve" smooth="yes"/>
      <point x="829" y="1338"/>
      <point x="848" y="1349" type="qcurve"/>
      <point x="848" y="909" type="line"/>
      <point x="831" y="938"/>
      <point x="814" y="968" type="qcurve" smooth="yes"/>
      <point x="767" y="1037"/>
      <point x="708" y="1079" type="qcurve" smooth="yes"/>
      <point x="623" y="1139"/>
      <point x="523" y="1139" type="qcurve" smooth="yes"/>
      <point x="455" y="1139"/>
      <point x="408" y="1116" type="qcurve" smooth="yes"/>
      <point x="350" y="1088"/>
      <point x="350" y="1035" type="qcurve" smooth="yes"/>
      <point x="350" y="990"/>
      <point x="394" y="962" type="qcurve" smooth="yes"/>
      <point x="422" y="944"/>
      <point x="489" y="925" type="qcurve" smooth="yes"/>
      <point x="660" y="875" type="line" smooth="yes"/>
      <point x="780" y="842"/>
      <point x="913" y="686"/>
    </contour>
  </outline>
</glyph>
<glyph name="percent" format="1">
  <advance width="1954"/>
  <unicode hex="0025"/>
  <outline>
    <contour>
      <point x="1902" y="461" type="qcurve" smooth="yes"/>
      <point x="1902" y="255"/>
      <point x="1819" y="130" type="qcurve" smooth="yes"/>
      <point x="1718" y="-22"/>
      <point x="1512" y="-22" type="qcurve" smooth="yes"/>
      <point x="1303" y="-22"/>
      <point x="1195" y="119" type="qcurve" smooth="yes"/>
      <point x="1101" y="242"/>
      <point x="1101" y="439" type="qcurve" smooth="yes"/>
      <point x="1101" y="647"/>
      <point x="1206" y="777" type="qcurve" smooth="yes"/>
      <point x="1318" y="916"/>
      <point x="1514" y="916" type="qcurve" smooth="yes"/>
      <point x="1728" y="916"/>
      <point x="1824" y="776" type="qcurve" smooth="yes"/>
      <point x="1902" y="663"/>
    </contour>
    <contour>
      <point x="1520" y="1498" type="line"/>
      <point x="1503" y="1482"/>
      <point x="1467" y="1438"/>
      <point x="1448" y="1411" type="qcurve" smooth="yes"/>
      <point x="1423" y="1379"/>
      <point x="1357" y="1268"/>
      <point x="1338" y="1230" type="qcurve" smooth="yes"/>
      <point x="884" y="285" type="line" smooth="yes"/>
      <point x="860" y="236"/>
      <point x="831" y="143"/>
      <point x="831" y="106" type="qcurve" smooth="yes"/>
      <point x="831" y="80"/>
      <point x="846" y="39" type="qcurve" smooth="yes"/>
      <point x="853" y="19"/>
      <point x="861" y="0" type="qcurve"/>
      <point x="435" y="0" type="line"/>
      <point x="461" y="25"/>
      <point x="476" y="41" type="qcurve" smooth="yes"/>
      <point x="519" y="87"/>
      <point x="543" y="123" type="qcurve" smooth="yes"/>
      <point x="561" y="150"/>
      <point x="600" y="210"/>
      <point x="616" y="243" type="qcurve" smooth="yes"/>
      <point x="1104" y="1239" type="line" smooth="yes"/>
      <point x="1128" y="1287"/>
      <point x="1152" y="1364"/>
      <point x="1152" y="1401" type="qcurve" smooth="yes"/>
      <point x="1152" y="1425"/>
      <point x="1136" y="1464" type="qcurve" smooth="yes"/>
      <point x="1131" y="1477"/>
      <point x="1120" y="1498" type="qcurve"/>
    </contour>
    <contour>
      <point x="864" y="1066" type="qcurve" smooth="yes"/>
      <point x="864" y="861"/>
      <point x="780" y="735" type="qcurve" smooth="yes"/>
      <point x="679" y="583"/>
      <point x="473" y="583" type="qcurve" smooth="yes"/>
      <point x="264" y="583"/>
      <point x="158" y="723" type="qcurve" smooth="yes"/>
      <point x="66" y="844"/>
      <point x="66" y="1043" type="qcurve" smooth="yes"/>
      <point x="66" y="1239"/>
      <point x="170" y="1373" type="qcurve" smooth="yes"/>
      <point x="285" y="1521"/>
      <point x="476" y="1521" type="qcurve" smooth="yes"/>
      <point x="690" y="1521"/>
      <point x="786" y="1381" type="qcurve" smooth="yes"/>
      <point x="864" y="1268"/>
    </contour>
    <contour>
      <point x="1646" y="470" type="qcurve" smooth="yes"/>
      <point x="1646" y="568"/>
      <point x="1621" y="627" type="qcurve" smooth="yes"/>
      <point x="1587" y="708"/>
      <point x="1508" y="708" type="qcurve" smooth="yes"/>
      <point x="1430" y="708"/>
      <point x="1392" y="622" type="qcurve" smooth="yes"/>
      <point x="1361" y="552"/>
      <point x="1361" y="450" type="qcurve" smooth="yes"/>
      <point x="1361" y="304"/>
      <point x="1401" y="245" type="qcurve" smooth="yes"/>
      <point x="1436" y="193"/>
      <point x="1503" y="193" type="qcurve" smooth="yes"/>
      <point x="1584" y="193"/>
      <point x="1619" y="283" type="qcurve" smooth="yes"/>
      <point x="1646" y="352"/>
    </contour>
    <contour>
      <point x="607" y="1075" type="qcurve" smooth="yes"/>
      <point x="607" y="1175"/>
      <point x="583" y="1232" type="qcurve" smooth="yes"/>
      <point x="550" y="1311"/>
      <point x="471" y="1311" type="qcurve" smooth="yes"/>
      <point x="393" y="1311"/>
      <point x="354" y="1226" type="qcurve" smooth="yes"/>
      <point x="322" y="1156"/>
      <point x="322" y="1055" type="qcurve" smooth="yes"/>
      <point x="322" y="949"/>
      <point x="350" y="884" type="qcurve" smooth="yes"/>
      <point x="387" y="798"/>
      <point x="465" y="798" type="qcurve" smooth="yes"/>
      <point x="546" y="798"/>
      <point x="581" y="891" type="qcurve" smooth="yes"/>
      <point x="607" y="960"/>
    </contour>
  </outline>
</glyph>
<glyph name="ampersand" format="1">
  <advance width="1519"/>
  <unicode hex="0026"/>
  <outline>
    <contour>
      <point x="1461" y="0" type="qcurve" smooth="yes"/>
      <point x="1076" y="0" type="line"/>
      <point x="1100" y="25"/>
      <point x="1123" y="78"/>
      <point x="1123" y="112" type="qcurve" smooth="yes"/>
      <point x="1123" y="149"/>
      <point x="1076" y="250"/>
      <point x="1067" y="252" type="qcurve"/>
      <point x="1061" y="234"/>
      <point x="1005" y="177" type="qcurve" smooth="yes"/>
      <point x="929" y="100"/>
      <point x="836" y="48" type="qcurve" smooth="yes"/>
      <point x="710" y="-22"/>
      <point x="582" y="-22" type="qcurve" smooth="yes"/>
      <point x="371" y="-22"/>
      <point x="226" y="88" type="qcurve" smooth="yes"/>
      <point x="66" y="209"/>
      <point x="66" y="412" type="qcurve" smooth="yes"/>
      <point x="66" y="539"/>
      <point x="144" y="642" type="qcurve" smooth="yes"/>
      <point x="200" y="715"/>
      <point x="290" y="770" type="qcurve" smooth="yes"/>
      <point x="356" y="810"/>
      <point x="369" y="810" type="qcurve"/>
      <point x="290" y="875"/>
      <point x="247" y="947" type="qcurve" smooth="yes"/>
      <point x="192" y="1039"/>
      <point x="192" y="1145" type="qcurve" smooth="yes"/>
      <point x="192" y="1315"/>
      <point x="336" y="1422" type="qcurve" smooth="yes"/>
      <point x="469" y="1521"/>
      <point x="654" y="1521" type="qcurve" smooth="yes"/>
      <point x="846" y="1521"/>
      <point x="1093" y="1312"/>
      <point x="1093" y="1145" type="qcurve" smooth="yes"/>
      <point x="1093" y="1046"/>
      <point x="1025" y="955" type="qcurve" smooth="yes"/>
      <point x="976" y="889"/>
      <point x="891" y="827" type="qcurve" smooth="yes"/>
      <point x="844" y="795"/>
      <point x="798" y="764" type="qcurve"/>
      <point x="995" y="618" type="line"/>
      <point x="996" y="675" type="line" smooth="yes"/>
      <point x="996" y="691"/>
      <point x="989" y="714"/>
      <point x="980" y="732" type="qcurve" smooth="yes"/>
      <point x="956" y="774" type="line"/>
      <point x="1442" y="774" type="line"/>
      <point x="1409" y="753"/>
      <point x="1389" y="739" type="qcurve" smooth="yes"/>
      <point x="1328" y="694"/>
      <point x="1260" y="605"/>
      <point x="1223" y="536" type="qcurve" smooth="yes"/>
      <point x="1211" y="514"/>
      <point x="1193" y="476" type="qcurve"/>
      <point x="1231" y="444"/>
      <point x="1268" y="408" type="qcurve" smooth="yes"/>
      <point x="1309" y="368"/>
      <point x="1331" y="338" type="qcurve" smooth="yes"/>
      <point x="1378" y="276"/>
      <point x="1406" y="189" type="qcurve" smooth="yes"/>
      <point x="1428" y="121"/>
      <point x="1428" y="80" type="qcurve" smooth="yes"/>
      <point x="1429" y="64"/>
      <point x="1441" y="40" type="qcurve" smooth="yes"/>
      <point x="1459" y="1"/>
    </contour>
    <contour>
      <point x="809" y="1152" type="qcurve" smooth="yes"/>
      <point x="809" y="1213"/>
      <point x="715" y="1289"/>
      <point x="644" y="1289" type="qcurve" smooth="yes"/>
      <point x="571" y="1289"/>
      <point x="518" y="1250" type="qcurve" smooth="yes"/>
      <point x="460" y="1207"/>
      <point x="460" y="1139" type="qcurve" smooth="yes"/>
      <point x="460" y="1071"/>
      <point x="524" y="991" type="qcurve"/>
      <point x="557" y="959"/>
      <point x="590" y="927" type="qcurve"/>
      <point x="652" y="939"/>
      <point x="740" y="1022" type="qcurve" smooth="yes"/>
      <point x="809" y="1087"/>
    </contour>
    <contour>
      <point x="873" y="397" type="qcurve"/>
      <point x="569" y="637" type="line" smooth="yes"/>
      <point x="563" y="637"/>
      <point x="516" y="608" type="qcurve" smooth="yes"/>
      <point x="454" y="570"/>
      <point x="416" y="528" type="qcurve" smooth="yes"/>
      <point x="362" y="468"/>
      <point x="362" y="408" type="qcurve" smooth="yes"/>
      <point x="362" y="334"/>
      <point x="415" y="280" type="qcurve" smooth="yes"/>
      <point x="473" y="221"/>
      <point x="565" y="221" type="qcurve" smooth="yes"/>
      <point x="635" y="221"/>
      <point x="715" y="265" type="qcurve" smooth="yes"/>
      <point x="775" y="298"/>
      <point x="829" y="348" type="qcurve" smooth="yes"/>
      <point x="875" y="390"/>
    </contour>
  </outline>
</glyph>
<glyph name="quotesingle" format="1">
  <advance width="345"/>
  <unicode hex="0027"/>
  <outline>
    <contour>
      <point x="289" y="1340" type="qcurve" smooth="yes"/>
      <point x="241" y="973" type="line"/>
      <point x="116" y="973" type="line"/>
      <point x="69" y="1340" type="line" smooth="yes"/>
      <point x="64" y="1384"/>
      <point x="138" y="1450"/>
      <point x="187" y="1450" type="qcurve" smooth="yes"/>
      <point x="229" y="1450"/>
      <point x="290" y="1391"/>
      <point x="290" y="1351" type="qcurve" smooth="yes"/>
      <point x="289" y="1344"/>
    </contour>
  </outline>
</glyph>
<glyph name="parenleft" format="1">
  <advance width="687"/>
  <unicode hex="0028"/>
  <outline>
    <contour>
      <point x="644" y="-442" type="qcurve" smooth="yes"/>
      <point x="374" y="-442" type="line" smooth="yes"/>
      <point x="368" y="-441"/>
      <point x="298" y="-317" type="qcurve" smooth="yes"/>
      <point x="207" y="-156"/>
      <point x="148" y="26" type="qcurve" smooth="yes"/>
      <point x="65" y="282"/>
      <point x="65" y="530" type="qcurve" smooth="yes"/>
      <point x="65" y="767"/>
      <point x="147" y="1016" type="qcurve" smooth="yes"/>
      <point x="206" y="1194"/>
      <point x="301" y="1365" type="qcurve" smooth="yes"/>
      <point x="375" y="1498"/>
      <point x="384" y="1498" type="qcurve" smooth="yes"/>
      <point x="628" y="1498" type="line" smooth="yes"/>
      <point x="621" y="1498"/>
      <point x="560" y="1370" type="qcurve" smooth="yes"/>
      <point x="481" y="1204"/>
      <point x="432" y="1028" type="qcurve" smooth="yes"/>
      <point x="363" y="778"/>
      <point x="363" y="537" type="qcurve" smooth="yes"/>
      <point x="363" y="266"/>
      <point x="435" y="15" type="qcurve" smooth="yes"/>
      <point x="485" y="-161"/>
      <point x="571" y="-322" type="qcurve" smooth="yes"/>
      <point x="635" y="-442"/>
    </contour>
  </outline>
</glyph>
<glyph name="parenright" format="1">
  <advance width="701"/>
  <unicode hex="0029"/>
  <outline>
    <contour>
      <point x="644" y="535" type="qcurve" smooth="yes"/>
      <point x="644" y="277"/>
      <point x="566" y="25" type="qcurve" smooth="yes"/>
      <point x="511" y="-152"/>
      <point x="422" y="-314" type="qcurve" smooth="yes"/>
      <point x="356" y="-434"/>
      <point x="349" y="-436" type="qcurve" smooth="yes"/>
      <point x="81" y="-436" type="line" smooth="yes"/>
      <point x="90" y="-436"/>
      <point x="150" y="-322" type="qcurve" smooth="yes"/>
      <point x="229" y="-172"/>
      <point x="279" y="12" type="qcurve" smooth="yes"/>
      <point x="349" y="269"/>
      <point x="349" y="546" type="qcurve" smooth="yes"/>
      <point x="349" y="790"/>
      <point x="277" y="1034" type="qcurve" smooth="yes"/>
      <point x="226" y="1206"/>
      <point x="141" y="1372" type="qcurve" smooth="yes"/>
      <point x="76" y="1498"/>
      <point x="68" y="1498" type="qcurve" smooth="yes"/>
      <point x="316" y="1498" type="line"/>
      <point x="359" y="1432"/>
      <point x="402" y="1367" type="qcurve"/>
      <point x="498" y="1201"/>
      <point x="559" y="1020" type="qcurve" smooth="yes"/>
      <point x="644" y="769"/>
    </contour>
  </outline>
</glyph>
<glyph name="asterisk" format="1">
  <advance width="747"/>
  <unicode hex="002A"/>
  <outline>
    <contour>
      <point x="688" y="1210" type="qcurve" smooth="yes"/>
      <point x="688" y="1180"/>
      <point x="649" y="1135"/>
      <point x="621" y="1135" type="qcurve" smooth="yes"/>
      <point x="598" y="1135"/>
      <point x="578" y="1140"/>
      <point x="543" y="1152" type="qcurve" smooth="yes"/>
      <point x="429" y="1187" type="line"/>
      <point x="429" y="1170" type="line"/>
      <point x="536" y="1077" type="line" smooth="yes"/>
      <point x="548" y="1067"/>
      <point x="570" y="1027"/>
      <point x="570" y="1006" type="qcurve" smooth="yes"/>
      <point x="570" y="975"/>
      <point x="523" y="926"/>
      <point x="491" y="926" type="qcurve" smooth="yes"/>
      <point x="459" y="926"/>
      <point x="412" y="966"/>
      <point x="407" y="998" type="qcurve" smooth="yes"/>
      <point x="385" y="1152" type="line"/>
      <point x="362" y="1152" type="line"/>
      <point x="338" y="1011" type="line" smooth="yes"/>
      <point x="332" y="978"/>
      <point x="286" y="936"/>
      <point x="251" y="936" type="qcurve" smooth="yes"/>
      <point x="218" y="936"/>
      <point x="171" y="979"/>
      <point x="171" y="1015" type="qcurve" smooth="yes"/>
      <point x="171" y="1040"/>
      <point x="191" y="1067" type="qcurve" smooth="yes"/>
      <point x="206" y="1087"/>
      <point x="226" y="1102" type="qcurve" smooth="yes"/>
      <point x="320" y="1176" type="line"/>
      <point x="316" y="1182" type="line"/>
      <point x="208" y="1147" type="line" smooth="yes"/>
      <point x="191" y="1142"/>
      <point x="160" y="1133"/>
      <point x="141" y="1133" type="qcurve" smooth="yes"/>
      <point x="107" y="1133"/>
      <point x="59" y="1179"/>
      <point x="59" y="1215" type="qcurve" smooth="yes"/>
      <point x="59" y="1249"/>
      <point x="111" y="1289"/>
      <point x="145" y="1289" type="qcurve" smooth="yes"/>
      <point x="161" y="1289"/>
      <point x="168" y="1288" type="qcurve" smooth="yes"/>
      <point x="173" y="1287"/>
      <point x="190" y="1282" type="qcurve" smooth="yes"/>
      <point x="315" y="1236" type="line"/>
      <point x="324" y="1248" type="line"/>
      <point x="268" y="1302" type="line" smooth="yes"/>
      <point x="214" y="1351"/>
      <point x="211" y="1354" type="qcurve" smooth="yes"/>
      <point x="184" y="1384"/>
      <point x="184" y="1419" type="qcurve" smooth="yes"/>
      <point x="184" y="1450"/>
      <point x="232" y="1498"/>
      <point x="264" y="1498" type="qcurve" smooth="yes"/>
      <point x="294" y="1498"/>
      <point x="340" y="1456"/>
      <point x="345" y="1423" type="qcurve" smooth="yes"/>
      <point x="369" y="1274" type="line"/>
      <point x="380" y="1274" type="line"/>
      <point x="408" y="1409" type="line" smooth="yes"/>
      <point x="416" y="1446"/>
      <point x="464" y="1496"/>
      <point x="499" y="1496" type="qcurve" smooth="yes"/>
      <point x="531" y="1493"/>
      <point x="573" y="1449"/>
      <point x="573" y="1417" type="qcurve" smooth="yes"/>
      <point x="573" y="1376"/>
      <point x="547" y="1355" type="qcurve" smooth="yes"/>
      <point x="425" y="1254" type="line"/>
      <point x="425" y="1239" type="line"/>
      <point x="557" y="1282" type="line" smooth="yes"/>
      <point x="578" y="1290"/>
      <point x="595" y="1294"/>
      <point x="610" y="1294" type="qcurve" smooth="yes"/>
      <point x="645" y="1294"/>
      <point x="688" y="1245"/>
    </contour>
  </outline>
</glyph>
<glyph name="plus" format="1">
  <advance width="1262"/>
  <unicode hex="002B"/>
  <outline>
    <contour>
      <point x="1205" y="594" type="line"/>
      <point x="695" y="594" type="line"/>
      <point x="695" y="76" type="line"/>
      <point x="569" y="76" type="line"/>
      <point x="569" y="596" type="line"/>
      <point x="60" y="596" type="line"/>
      <point x="60" y="723" type="line"/>
      <point x="565" y="723" type="line"/>
      <point x="565" y="1238" type="line"/>
      <point x="691" y="1238" type="line"/>
      <point x="691" y="723" type="line"/>
      <point x="1205" y="723" type="line"/>
    </contour>
  </outline>
</glyph>
<glyph name="comma" format="1">
  <advance width="462"/>
  <unicode hex="002C"/>
  <outline>
    <contour>
      <point x="406" y="110" type="qcurve" smooth="yes"/>
      <point x="406" y="-39"/>
      <point x="326" y="-132" type="qcurve" smooth="yes"/>
      <point x="267" y="-200"/>
      <point x="175" y="-232" type="qcurve" smooth="yes"/>
      <point x="109" y="-255"/>
      <point x="91" y="-250" type="qcurve"/>
      <point x="125" y="-226"/>
      <point x="141" y="-208" type="qcurve" smooth="yes"/>
      <point x="191" y="-154"/>
      <point x="191" y="-92" type="qcurve" smooth="yes"/>
      <point x="191" y="-41"/>
      <point x="72" y="74"/>
      <point x="72" y="140" type="qcurve" smooth="yes"/>
      <point x="72" y="210"/>
      <point x="116" y="255" type="qcurve" smooth="yes"/>
      <point x="164" y="304"/>
      <point x="244" y="304" type="qcurve" smooth="yes"/>
      <point x="325" y="304"/>
      <point x="368" y="243" type="qcurve" smooth="yes"/>
      <point x="406" y="190"/>
    </contour>
  </outline>
</glyph>
<glyph name="hyphen" format="1">
  <advance width="978"/>
  <unicode hex="002D"/>
  <outline>
    <contour>
      <point x="908" y="750" type="qcurve"/>
      <point x="825" y="479" type="line"/>
      <point x="821" y="482"/>
      <point x="818" y="486" type="qcurve" smooth="yes"/>
      <point x="808" y="495"/>
      <point x="802" y="499" type="qcurve" smooth="yes"/>
      <point x="787" y="507"/>
      <point x="769" y="514"/>
      <point x="755" y="514" type="qcurve" smooth="yes"/>
      <point x="155" y="514" type="line" smooth="yes"/>
      <point x="143" y="514"/>
      <point x="121" y="509"/>
      <point x="106" y="503" type="qcurve" smooth="yes"/>
      <point x="101" y="501"/>
      <point x="74" y="484"/>
      <point x="72" y="485" type="qcurve" smooth="yes"/>
      <point x="155" y="751" type="line"/>
      <point x="160" y="744"/>
      <point x="163" y="740" type="qcurve" smooth="yes"/>
      <point x="173" y="728"/>
      <point x="193" y="718"/>
      <point x="219" y="718" type="qcurve" smooth="yes"/>
      <point x="814" y="718" type="line" smooth="yes"/>
      <point x="829" y="718"/>
      <point x="854" y="723"/>
      <point x="886" y="735"/>
      <point x="899" y="744"/>
    </contour>
  </outline>
</glyph>
<glyph name="period" format="1">
  <advance width="464"/>
  <unicode hex="002E"/>
  <outline>
    <contour>
      <point x="241" y="-22" type="qcurve" smooth="yes"/>
      <point x="159" y="-22"/>
      <point x="110" y="33" type="qcurve" smooth="yes"/>
      <point x="66" y="83"/>
      <point x="66" y="154" type="qcurve" smooth="yes"/>
      <point x="66" y="222"/>
      <point x="108" y="269" type="qcurve" smooth="yes"/>
      <point x="154" y="321"/>
      <point x="234" y="321" type="qcurve" smooth="yes"/>
      <point x="316" y="321"/>
      <point x="365" y="266" type="qcurve" smooth="yes"/>
      <point x="409" y="216"/>
      <point x="409" y="145" type="qcurve" smooth="yes"/>
      <point x="409" y="76"/>
      <point x="368" y="30" type="qcurve" smooth="yes"/>
      <point x="322" y="-22"/>
    </contour>
  </outline>
</glyph>
<glyph name="slash" format="1">
  <advance width="1222"/>
  <unicode hex="002F"/>
  <outline>
    <contour>
      <point x="1170" y="1498" type="line"/>
      <point x="1163" y="1491"/>
      <point x="1158" y="1486" type="qcurve" smooth="yes"/>
      <point x="1127" y="1454"/>
      <point x="1095" y="1415" type="qcurve" smooth="yes"/>
      <point x="1068" y="1383"/>
      <point x="1032" y="1326" type="qcurve" smooth="yes"/>
      <point x="1000" y="1274"/>
      <point x="979" y="1232" type="qcurve" smooth="yes"/>
      <point x="528" y="285" type="line" smooth="yes"/>
      <point x="506" y="238"/>
      <point x="479" y="143"/>
      <point x="474" y="106" type="qcurve" smooth="yes"/>
      <point x="474" y="79"/>
      <point x="489" y="39" type="qcurve" smooth="yes"/>
      <point x="497" y="19"/>
      <point x="506" y="0" type="qcurve"/>
      <point x="78" y="0" type="line"/>
      <point x="104" y="25"/>
      <point x="119" y="41" type="qcurve" smooth="yes"/>
      <point x="166" y="91"/>
      <point x="187" y="123" type="qcurve" smooth="yes"/>
      <point x="241" y="202"/>
      <point x="257" y="228" type="qcurve" smooth="yes"/>
      <point x="285" y="274"/>
      <point x="303" y="313" type="qcurve" smooth="yes"/>
      <point x="746" y="1242" type="line" smooth="yes"/>
      <point x="771" y="1293"/>
      <point x="794" y="1365"/>
      <point x="794" y="1404" type="qcurve" smooth="yes"/>
      <point x="794" y="1430"/>
      <point x="776" y="1467" type="qcurve" smooth="yes"/>
      <point x="770" y="1479"/>
      <point x="758" y="1498" type="qcurve"/>
    </contour>
  </outline>
</glyph>
<glyph name="zero" format="1">
  <advance width="1247"/>
  <unicode hex="0030"/>
  <outline>
    <contour>
      <point x="1184" y="808" type="qcurve" smooth="yes"/>
      <point x="1184" y="593"/>
      <point x="1135" y="421" type="qcurve" smooth="yes"/>
      <point x="1077" y="218"/>
      <point x="962" y="107" type="qcurve" smooth="yes"/>
      <point x="828" y="-22"/>
      <point x="623" y="-22" type="qcurve" smooth="yes"/>
      <point x="404" y="-22"/>
      <point x="273" y="91" type="qcurve" smooth="yes"/>
      <point x="161" y="188"/>
      <point x="111" y="368" type="qcurve" smooth="yes"/>
      <point x="71" y="513"/>
      <point x="71" y="712" type="qcurve" smooth="yes"/>
      <point x="71" y="929"/>
      <point x="117" y="1093" type="qcurve" smooth="yes"/>
      <point x="173" y="1291"/>
      <point x="289" y="1399" type="qcurve" smooth="yes"/>
      <point x="424" y="1524"/>
      <point x="637" y="1524" type="qcurve" smooth="yes"/>
      <point x="841" y="1524"/>
      <point x="971" y="1416" type="qcurve" smooth="yes"/>
      <point x="1084" y="1323"/>
      <point x="1138" y="1149" type="qcurve" smooth="yes"/>
      <point x="1184" y="1002"/>
    </contour>
    <contour>
      <point x="891" y="832" type="qcurve" smooth="yes"/>
      <point x="891" y="1018"/>
      <point x="837" y="1136" type="qcurve" smooth="yes"/>
      <point x="768" y="1287"/>
      <point x="624" y="1287" type="qcurve" smooth="yes"/>
      <point x="523" y="1287"/>
      <point x="459" y="1198" type="qcurve" smooth="yes"/>
      <point x="405" y="1122"/>
      <point x="380" y="988" type="qcurve" smooth="yes"/>
      <point x="360" y="879"/>
      <point x="360" y="741" type="qcurve" smooth="yes"/>
      <point x="360" y="577"/>
      <point x="374" y="485" type="qcurve" smooth="yes"/>
      <point x="393" y="358"/>
      <point x="445" y="295" type="qcurve" smooth="yes"/>
      <point x="506" y="221"/>
      <point x="619" y="221" type="qcurve" smooth="yes"/>
      <point x="735" y="221"/>
      <point x="800" y="320" type="qcurve" smooth="yes"/>
      <point x="855" y="403"/>
      <point x="876" y="555" type="qcurve" smooth="yes"/>
      <point x="891" y="663"/>
    </contour>
  </outline>
</glyph>
<glyph name="one" format="1">
  <advance width="800"/>
  <unicode hex="0031"/>
  <outline>
    <contour>
      <point x="747" y="0" type="qcurve"/>
      <point x="243" y="0" type="line"/>
      <point x="252" y="7"/>
      <point x="258" y="12" type="qcurve" smooth="yes"/>
      <point x="295" y="45"/>
      <point x="343" y="135"/>
      <point x="355" y="221"/>
      <point x="355" y="291" type="qcurve" smooth="yes"/>
      <point x="355" y="995" type="line"/>
      <point x="156" y="995" type="line" smooth="yes"/>
      <point x="135" y="995"/>
      <point x="111" y="993"/>
      <point x="90" y="984"/>
      <point x="73" y="971" type="qcurve" smooth="yes"/>
      <point x="71" y="969"/>
      <point x="66" y="965" type="qcurve"/>
      <point x="66" y="1250" type="line"/>
      <point x="77" y="1239"/>
      <point x="139" y="1217"/>
      <point x="165" y="1217" type="qcurve" smooth="yes"/>
      <point x="236" y="1217"/>
      <point x="314" y="1273" type="qcurve" smooth="yes"/>
      <point x="401" y="1335"/>
      <point x="401" y="1411" type="qcurve" smooth="yes"/>
      <point x="401" y="1456"/>
      <point x="367" y="1502" type="qcurve"/>
      <point x="665" y="1502" type="line"/>
      <point x="655" y="1487"/>
      <point x="650" y="1471" type="qcurve" smooth="yes"/>
      <point x="640" y="1446"/>
      <point x="640" y="1417" type="qcurve" smooth="yes"/>
      <point x="640" y="293" type="line" smooth="yes"/>
      <point x="640" y="241"/>
      <point x="649" y="192" type="qcurve" smooth="yes"/>
      <point x="655" y="159"/>
      <point x="683" y="74"/>
      <point x="716" y="34" type="qcurve" smooth="yes"/>
      <point x="727" y="21"/>
    </contour>
  </outline>
</glyph>
<glyph name="two" format="1">
  <advance width="1182"/>
  <unicode hex="0032"/>
  <outline>
    <contour>
      <point x="1129" y="-53" type="line"/>
      <point x="1121" y="-49"/>
      <point x="1113" y="-45" type="qcurve" smooth="yes"/>
      <point x="1097" y="-35"/>
      <point x="1081" y="-25" type="qcurve" smooth="yes"/>
      <point x="1053" y="-9"/>
      <point x="997" y="0"/>
      <point x="955" y="0" type="qcurve" smooth="yes"/>
      <point x="144" y="0" type="line" smooth="yes"/>
      <point x="130" y="0"/>
      <point x="105" y="-6"/>
      <point x="85" y="-12"/>
      <point x="81" y="-14" type="qcurve" smooth="yes"/>
      <point x="70" y="-20"/>
      <point x="65" y="-23" type="qcurve"/>
      <point x="66" y="17"/>
      <point x="72" y="163"/>
      <point x="82" y="237" type="qcurve" smooth="yes"/>
      <point x="98" y="351"/>
      <point x="129" y="424" type="qcurve" smooth="yes"/>
      <point x="193" y="570"/>
      <point x="369" y="713" type="qcurve"/>
      <point x="512" y="820"/>
      <point x="655" y="927" type="qcurve"/>
      <point x="793" y="1041"/>
      <point x="793" y="1139" type="qcurve" smooth="yes"/>
      <point x="793" y="1207"/>
      <point x="688" y="1283"/>
      <point x="610" y="1283" type="qcurve" smooth="yes"/>
      <point x="484" y="1283"/>
      <point x="356" y="1185" type="qcurve" smooth="yes"/>
      <point x="264" y="1114"/>
      <point x="180" y="1002" type="qcurve" smooth="yes"/>
      <point x="146" y="952"/>
      <point x="113" y="902" type="qcurve"/>
      <point x="113" y="1526" type="line"/>
      <point x="136" y="1508"/>
      <point x="159" y="1491" type="qcurve" smooth="yes"/>
      <point x="218" y="1456"/>
      <point x="261" y="1456" type="qcurve" smooth="yes"/>
      <point x="297" y="1456"/>
      <point x="492" y="1496" type="qcurve" smooth="yes"/>
      <point x="584" y="1515"/>
      <point x="654" y="1515" type="qcurve" smooth="yes"/>
      <point x="851" y="1515"/>
      <point x="1089" y="1299"/>
      <point x="1089" y="1128" type="qcurve" smooth="yes"/>
      <point x="1089" y="1046"/>
      <point x="1024" y="908"/>
      <point x="964" y="846" type="qcurve" smooth="yes"/>
      <point x="918" y="798"/>
      <point x="833" y="732" type="qcurve" smooth="yes"/>
      <point x="612" y="558" type="line" smooth="yes"/>
      <point x="546" y="506"/>
      <point x="518" y="481" type="qcurve" smooth="yes"/>
      <point x="466" y="435"/>
      <point x="442" y="400" type="qcurve" smooth="yes"/>
      <point x="412" y="357"/>
      <point x="412" y="315" type="qcurve" smooth="yes"/>
      <point x="412" y="255"/>
      <point x="462" y="235" type="qcurve" smooth="yes"/>
      <point x="496" y="221"/>
      <point x="571" y="221" type="qcurve" smooth="yes"/>
      <point x="595" y="221"/>
      <point x="607" y="221" type="qcurve" smooth="yes"/>
      <point x="784" y="221"/>
      <point x="919" y="308" type="qcurve" smooth="yes"/>
      <point x="1016" y="371"/>
      <point x="1082" y="471" type="qcurve" smooth="yes"/>
      <point x="1129" y="542"/>
      <point x="1129" y="561" type="qcurve" smooth="yes"/>
    </contour>
  </outline>
</glyph>
<glyph name="three" format="1">
  <advance width="1182"/>
  <unicode hex="0033"/>
  <outline>
    <contour>
      <point x="1124" y="476" type="qcurve" smooth="yes"/>
      <point x="1124" y="257"/>
      <point x="979" y="120" type="qcurve" smooth="yes"/>
      <point x="829" y="-22"/>
      <point x="577" y="-22" type="qcurve" smooth="yes"/>
      <point x="481" y="-22"/>
      <point x="267" y="27"/>
      <point x="204" y="27" type="qcurve" smooth="yes"/>
      <point x="169" y="27"/>
      <point x="117" y="-7" type="qcurve" smooth="yes"/>
      <point x="100" y="-18"/>
      <point x="72" y="-41" type="qcurve"/>
      <point x="72" y="570" type="line"/>
      <point x="104" y="524"/>
      <point x="137" y="478" type="qcurve" smooth="yes"/>
      <point x="217" y="374"/>
      <point x="302" y="310" type="qcurve" smooth="yes"/>
      <point x="423" y="219"/>
      <point x="538" y="219" type="qcurve" smooth="yes"/>
      <point x="677" y="219"/>
      <point x="834" y="366"/>
      <point x="834" y="484" type="qcurve" smooth="yes"/>
      <point x="834" y="595"/>
      <point x="745" y="655" type="qcurve" smooth="yes"/>
      <point x="663" y="710"/>
      <point x="530" y="710" type="qcurve" smooth="yes"/>
      <point x="488" y="710"/>
      <point x="425" y="692" type="qcurve" smooth="yes"/>
      <point x="405" y="686"/>
      <point x="371" y="674" type="qcurve"/>
      <point x="371" y="974" type="line"/>
      <point x="375" y="960"/>
      <point x="428" y="943" type="qcurve" smooth="yes"/>
      <point x="469" y="930"/>
      <point x="519" y="930" type="qcurve" smooth="yes"/>
      <point x="637" y="930"/>
      <point x="711" y="979" type="qcurve" smooth="yes"/>
      <point x="790" y="1032"/>
      <point x="790" y="1123" type="qcurve" smooth="yes"/>
      <point x="790" y="1193"/>
      <point x="751" y="1232" type="qcurve" smooth="yes"/>
      <point x="705" y="1279"/>
      <point x="606" y="1279" type="qcurve" smooth="yes"/>
      <point x="459" y="1279"/>
      <point x="333" y="1188" type="qcurve" smooth="yes"/>
      <point x="244" y="1124"/>
      <point x="172" y="1020" type="qcurve" smooth="yes"/>
      <point x="144" y="975"/>
      <point x="117" y="930" type="qcurve"/>
      <point x="117" y="1521" type="line"/>
      <point x="137" y="1501"/>
      <point x="159" y="1487" type="qcurve" smooth="yes"/>
      <point x="207" y="1457"/>
      <point x="254" y="1457" type="qcurve" smooth="yes"/>
      <point x="320" y="1457"/>
      <point x="536" y="1516"/>
      <point x="639" y="1516" type="qcurve" smooth="yes"/>
      <point x="832" y="1516"/>
      <point x="1077" y="1329"/>
      <point x="1077" y="1170" type="qcurve" smooth="yes"/>
      <point x="1077" y="1083"/>
      <point x="1031" y="995" type="qcurve" smooth="yes"/>
      <point x="996" y="928"/>
      <point x="945" y="876" type="qcurve" smooth="yes"/>
      <point x="901" y="831"/>
      <point x="893" y="835" type="qcurve"/>
      <point x="922" y="820"/>
      <point x="952" y="805" type="qcurve" smooth="yes"/>
      <point x="1021" y="765"/>
      <point x="1063" y="701" type="qcurve" smooth="yes"/>
      <point x="1124" y="608"/>
    </contour>
  </outline>
</glyph>
<glyph name="four" format="1">
  <advance width="1314"/>
  <unicode hex="0034"/>
  <outline>
    <contour>
      <point x="1254" y="257" type="line"/>
      <point x="1249" y="264"/>
      <point x="1244" y="271" type="qcurve" smooth="yes"/>
      <point x="1230" y="285"/>
      <point x="1208" y="296"/>
      <point x="1178" y="298"/>
      <point x="1174" y="298" type="qcurve" smooth="yes"/>
      <point x="1069" y="298" type="line"/>
      <point x="1069" y="246" type="line" smooth="yes"/>
      <point x="1069" y="200"/>
      <point x="1092" y="106"/>
      <point x="1107" y="81" type="qcurve" smooth="yes"/>
      <point x="1119" y="60"/>
      <point x="1151" y="27" type="qcurve" smooth="yes"/>
      <point x="1176" y="0"/>
      <point x="1177" y="0" type="qcurve" smooth="yes"/>
      <point x="675" y="0" type="line"/>
      <point x="692" y="17"/>
      <point x="701" y="28" type="qcurve" smooth="yes"/>
      <point x="728" y="60"/>
      <point x="741" y="85" type="qcurve" smooth="yes"/>
      <point x="761" y="120"/>
      <point x="767" y="135" type="qcurve" smooth="yes"/>
      <point x="778" y="162"/>
      <point x="778" y="190" type="qcurve" smooth="yes"/>
      <point x="778" y="298" type="line"/>
      <point x="190" y="298" type="line" smooth="yes"/>
      <point x="166" y="298"/>
      <point x="126" y="296"/>
      <point x="94" y="292"/>
      <point x="80" y="281" type="qcurve" smooth="yes"/>
      <point x="73" y="274"/>
      <point x="66" y="268" type="qcurve"/>
      <point x="66" y="525" type="line"/>
      <point x="669" y="1423" type="line" smooth="yes"/>
      <point x="681" y="1440"/>
      <point x="688" y="1456"/>
      <point x="688" y="1471" type="qcurve" smooth="yes"/>
      <point x="688" y="1481"/>
      <point x="683" y="1495" type="qcurve" smooth="yes"/>
      <point x="683" y="1497"/>
      <point x="680" y="1501" type="qcurve"/>
      <point x="1126" y="1501" type="line" smooth="yes"/>
      <point x="1127" y="1500"/>
      <point x="1110" y="1474" type="qcurve" smooth="yes"/>
      <point x="1088" y="1440"/>
      <point x="1074" y="1377"/>
      <point x="1074" y="1376" type="qcurve" smooth="yes"/>
      <point x="1071" y="1359"/>
      <point x="1071" y="1339" type="qcurve" smooth="yes"/>
      <point x="1071" y="528" type="line"/>
      <point x="1076" y="522"/>
      <point x="1158" y="542"/>
      <point x="1194" y="572" type="qcurve" smooth="yes"/>
      <point x="1210" y="585"/>
      <point x="1240" y="627"/>
      <point x="1254" y="647" type="qcurve"/>
    </contour>
    <contour>
      <point x="778" y="528" type="line"/>
      <point x="778" y="1147" type="line"/>
      <point x="365" y="528" type="line"/>
    </contour>
  </outline>
</glyph>
<glyph name="five" format="1">
  <advance width="1149"/>
  <unicode hex="0035"/>
  <outline>
    <contour>
      <point x="1093" y="507" type="qcurve" smooth="yes"/>
      <point x="1093" y="280"/>
      <point x="768" y="-21"/>
      <point x="530" y="-21" type="qcurve" smooth="yes"/>
      <point x="452" y="-21"/>
      <point x="329" y="4" type="qcurve" smooth="yes"/>
      <point x="270" y="16"/>
      <point x="228" y="16" type="qcurve" smooth="yes"/>
      <point x="171" y="16"/>
      <point x="116" y="-14" type="qcurve" smooth="yes"/>
      <point x="98" y="-24"/>
      <point x="72" y="-45" type="qcurve"/>
      <point x="72" y="590" type="line"/>
      <point x="89" y="555"/>
      <point x="136" y="490" type="qcurve" smooth="yes"/>
      <point x="215" y="380"/>
      <point x="301" y="309" type="qcurve" smooth="yes"/>
      <point x="421" y="211"/>
      <point x="532" y="211" type="qcurve" smooth="yes"/>
      <point x="653" y="211"/>
      <point x="809" y="373"/>
      <point x="809" y="494" type="qcurve" smooth="yes"/>
      <point x="809" y="590"/>
      <point x="752" y="649" type="qcurve" smooth="yes"/>
      <point x="692" y="712"/>
      <point x="580" y="722" type="qcurve" smooth="yes"/>
      <point x="573" y="723"/>
      <point x="559" y="723" type="qcurve" smooth="yes"/>
      <point x="497" y="723"/>
      <point x="418" y="687" type="qcurve" smooth="yes"/>
      <point x="392" y="675"/>
      <point x="351" y="650" type="qcurve"/>
      <point x="147" y="802" type="line"/>
      <point x="147" y="1309" type="line" smooth="yes"/>
      <point x="147" y="1346"/>
      <point x="135" y="1403"/>
      <point x="120" y="1438" type="qcurve" smooth="yes"/>
      <point x="105" y="1467"/>
      <point x="99" y="1477" type="qcurve" smooth="yes"/>
      <point x="88" y="1496"/>
      <point x="81" y="1502" type="qcurve"/>
      <point x="879" y="1502" type="line" smooth="yes"/>
      <point x="919" y="1502"/>
      <point x="969" y="1508"/>
      <point x="998" y="1519" type="qcurve" smooth="yes"/>
      <point x="1013" y="1524"/>
      <point x="1024" y="1532" type="qcurve" smooth="yes"/>
      <point x="1026" y="1533"/>
      <point x="1046" y="1551" type="qcurve"/>
      <point x="1046" y="965" type="line"/>
      <point x="1023" y="1005"/>
      <point x="1001" y="1046" type="qcurve" smooth="yes"/>
      <point x="941" y="1138"/>
      <point x="865" y="1197" type="qcurve" smooth="yes"/>
      <point x="759" y="1279"/>
      <point x="641" y="1279" type="qcurve" smooth="yes"/>
      <point x="521" y="1279"/>
      <point x="470" y="1246" type="qcurve" smooth="yes"/>
      <point x="426" y="1217"/>
      <point x="426" y="1164" type="qcurve" smooth="yes"/>
      <point x="426" y="936" type="line"/>
      <point x="470" y="943"/>
      <point x="594" y="959"/>
      <point x="636" y="959" type="qcurve" smooth="yes"/>
      <point x="831" y="959"/>
      <point x="957" y="844" type="qcurve" smooth="yes"/>
      <point x="1093" y="720"/>
    </contour>
  </outline>
</glyph>
<glyph name="six" format="1">
  <advance width="1182"/>
  <unicode hex="0036"/>
  <outline>
    <contour>
      <point x="1130" y="543" type="qcurve" smooth="yes"/>
      <point x="1130" y="309"/>
      <point x="1001" y="151" type="qcurve" smooth="yes"/>
      <point x="860" y="-22"/>
      <point x="619" y="-22" type="qcurve" smooth="yes"/>
      <point x="327" y="-22"/>
      <point x="190" y="181" type="qcurve" smooth="yes"/>
      <point x="66" y="365"/>
      <point x="66" y="717" type="qcurve" smooth="yes"/>
      <point x="66" y="934"/>
      <point x="117" y="1099" type="qcurve" smooth="yes"/>
      <point x="177" y="1293"/>
      <point x="302" y="1401" type="qcurve" smooth="yes"/>
      <point x="445" y="1524"/>
      <point x="663" y="1524" type="qcurve" smooth="yes"/>
      <point x="716" y="1524"/>
      <point x="777" y="1510" type="qcurve" smooth="yes"/>
      <point x="916" y="1478"/>
      <point x="961" y="1478" type="qcurve" smooth="yes"/>
      <point x="999" y="1478"/>
      <point x="1044" y="1500" type="qcurve" smooth="yes"/>
      <point x="1059" y="1507"/>
      <point x="1084" y="1524" type="qcurve"/>
      <point x="1084" y="986" type="line"/>
      <point x="1068" y="1024"/>
      <point x="1053" y="1063" type="qcurve"/>
      <point x="1007" y="1152"/>
      <point x="934" y="1207" type="qcurve" smooth="yes"/>
      <point x="832" y="1285"/>
      <point x="692" y="1285" type="qcurve" smooth="yes"/>
      <point x="555" y="1285"/>
      <point x="472" y="1190" type="qcurve" smooth="yes"/>
      <point x="413" y="1122"/>
      <point x="386" y="1012" type="qcurve" smooth="yes"/>
      <point x="378" y="964"/>
      <point x="371" y="916" type="qcurve"/>
      <point x="424" y="943"/>
      <point x="460" y="956" type="qcurve" smooth="yes"/>
      <point x="568" y="996"/>
      <point x="664" y="996" type="qcurve" smooth="yes"/>
      <point x="867" y="996"/>
      <point x="991" y="888" type="qcurve" smooth="yes"/>
      <point x="1130" y="767"/>
    </contour>
    <contour>
      <point x="848" y="513" type="qcurve" smooth="yes"/>
      <point x="848" y="617"/>
      <point x="788" y="690" type="qcurve" smooth="yes"/>
      <point x="724" y="768"/>
      <point x="622" y="768" type="qcurve" smooth="yes"/>
      <point x="515" y="768"/>
      <point x="369" y="616"/>
      <point x="369" y="506" type="qcurve" smooth="yes"/>
      <point x="369" y="392"/>
      <point x="433" y="309" type="qcurve" smooth="yes"/>
      <point x="502" y="220"/>
      <point x="609" y="220" type="qcurve" smooth="yes"/>
      <point x="715" y="220"/>
      <point x="784" y="311" type="qcurve" smooth="yes"/>
      <point x="848" y="396"/>
    </contour>
  </outline>
</glyph>
<glyph name="seven" format="1">
  <advance width="1222"/>
  <unicode hex="0037"/>
  <outline>
    <contour>
      <point x="1172" y="1498" type="line"/>
      <point x="1147" y="1473"/>
      <point x="1132" y="1455" type="qcurve" smooth="yes"/>
      <point x="1088" y="1401"/>
      <point x="1062" y="1343" type="qcurve" smooth="yes"/>
      <point x="1026" y="1259"/>
      <point x="998" y="1175" type="qcurve" smooth="yes"/>
      <point x="695" y="233" type="line" smooth="yes"/>
      <point x="690" y="217"/>
      <point x="688" y="189"/>
      <point x="688" y="168" type="qcurve" smooth="yes"/>
      <point x="688" y="110"/>
      <point x="709" y="64" type="qcurve" smooth="yes"/>
      <point x="739" y="-3"/>
      <point x="752" y="0" type="qcurve" smooth="yes"/>
      <point x="231" y="0" type="line"/>
      <point x="256" y="25"/>
      <point x="270" y="41" type="qcurve" smooth="yes"/>
      <point x="315" y="91"/>
      <point x="359" y="161"/>
      <point x="404" y="255"/>
      <point x="421" y="307" type="qcurve" smooth="yes"/>
      <point x="691" y="1112" type="line" smooth="yes"/>
      <point x="696" y="1129"/>
      <point x="706" y="1169"/>
      <point x="706" y="1182" type="qcurve" smooth="yes"/>
      <point x="705" y="1189"/>
      <point x="705" y="1192" type="qcurve" smooth="yes"/>
      <point x="705" y="1231"/>
      <point x="648" y="1274"/>
      <point x="599" y="1274" type="qcurve" smooth="yes"/>
      <point x="586" y="1274"/>
      <point x="558" y="1276"/>
      <point x="550" y="1276" type="qcurve" smooth="yes"/>
      <point x="388" y="1276"/>
      <point x="263" y="1172" type="qcurve" smooth="yes"/>
      <point x="175" y="1099"/>
      <point x="111" y="977" type="qcurve"/>
      <point x="88" y="924"/>
      <point x="66" y="872" type="qcurve"/>
      <point x="66" y="1543" type="line"/>
      <point x="74" y="1535"/>
      <point x="79" y="1531" type="qcurve" smooth="yes"/>
      <point x="96" y="1517"/>
      <point x="106" y="1512" type="qcurve" smooth="yes"/>
      <point x="123" y="1503"/>
      <point x="152" y="1498"/>
      <point x="175" y="1498" type="qcurve" smooth="yes"/>
      <point x="187" y="1498"/>
      <point x="193" y="1498" type="qcurve" smooth="yes"/>
    </contour>
  </outline>
</glyph>
<glyph name="eight" format="1">
  <advance width="1216"/>
  <unicode hex="0038"/>
  <outline>
    <contour>
      <point x="1166" y="461" type="qcurve" smooth="yes"/>
      <point x="1166" y="248"/>
      <point x="864" y="-22"/>
      <point x="628" y="-22" type="qcurve" smooth="yes"/>
      <point x="390" y="-22"/>
      <point x="245" y="78" type="qcurve" smooth="yes"/>
      <point x="72" y="198"/>
      <point x="72" y="439" type="qcurve" smooth="yes"/>
      <point x="72" y="547"/>
      <point x="133" y="638" type="qcurve" smooth="yes"/>
      <point x="175" y="701"/>
      <point x="248" y="756" type="qcurve" smooth="yes"/>
      <point x="279" y="777"/>
      <point x="311" y="799" type="qcurve"/>
      <point x="287" y="812"/>
      <point x="263" y="825" type="qcurve" smooth="yes"/>
      <point x="208" y="865"/>
      <point x="175" y="921" type="qcurve" smooth="yes"/>
      <point x="128" y="1000"/>
      <point x="128" y="1100" type="qcurve" smooth="yes"/>
      <point x="128" y="1287"/>
      <point x="409" y="1521"/>
      <point x="624" y="1521" type="qcurve" smooth="yes"/>
      <point x="844" y="1521"/>
      <point x="1105" y="1313"/>
      <point x="1105" y="1134" type="qcurve" smooth="yes"/>
      <point x="1105" y="1037"/>
      <point x="1061" y="950" type="qcurve" smooth="yes"/>
      <point x="1028" y="884"/>
      <point x="979" y="837" type="qcurve" smooth="yes"/>
      <point x="955" y="819"/>
      <point x="931" y="802" type="qcurve"/>
      <point x="961" y="789"/>
      <point x="992" y="777" type="qcurve" smooth="yes"/>
      <point x="1062" y="740"/>
      <point x="1105" y="678" type="qcurve" smooth="yes"/>
      <point x="1166" y="590"/>
    </contour>
    <contour>
      <point x="837" y="1104" type="qcurve" smooth="yes"/>
      <point x="837" y="1186"/>
      <point x="721" y="1289"/>
      <point x="622" y="1289" type="qcurve" smooth="yes"/>
      <point x="534" y="1289"/>
      <point x="401" y="1178"/>
      <point x="401" y="1095" type="qcurve" smooth="yes"/>
      <point x="401" y="1014"/>
      <point x="534" y="908"/>
      <point x="622" y="908" type="qcurve" smooth="yes"/>
      <point x="708" y="908"/>
      <point x="837" y="1021"/>
    </contour>
    <contour>
      <point x="879" y="444" type="qcurve" smooth="yes"/>
      <point x="879" y="547"/>
      <point x="814" y="611" type="qcurve" smooth="yes"/>
      <point x="745" y="679"/>
      <point x="630" y="679" type="qcurve" smooth="yes"/>
      <point x="518" y="679"/>
      <point x="368" y="541"/>
      <point x="368" y="436" type="qcurve" smooth="yes"/>
      <point x="368" y="334"/>
      <point x="427" y="275" type="qcurve" smooth="yes"/>
      <point x="492" y="210"/>
      <point x="616" y="210" type="qcurve" smooth="yes"/>
      <point x="727" y="210"/>
      <point x="879" y="342"/>
    </contour>
  </outline>
</glyph>
<glyph name="nine" format="1">
  <advance width="1203"/>
  <unicode hex="0039"/>
  <outline>
    <contour>
      <point x="1147" y="786" type="qcurve" smooth="yes"/>
      <point x="1147" y="566"/>
      <point x="1099" y="403" type="qcurve" smooth="yes"/>
      <point x="1041" y="207"/>
      <point x="917" y="101" type="qcurve" smooth="yes"/>
      <point x="772" y="-22"/>
      <point x="540" y="-22" type="qcurve" smooth="yes"/>
      <point x="485" y="-22"/>
      <point x="426" y="-8" type="qcurve" smooth="yes"/>
      <point x="287" y="25"/>
      <point x="241" y="25" type="qcurve" smooth="yes"/>
      <point x="203" y="25"/>
      <point x="158" y="-2" type="qcurve" smooth="yes"/>
      <point x="143" y="-11"/>
      <point x="120" y="-30" type="qcurve"/>
      <point x="120" y="524" type="line"/>
      <point x="136" y="484"/>
      <point x="152" y="445" type="qcurve" smooth="yes"/>
      <point x="199" y="354"/>
      <point x="272" y="297" type="qcurve" smooth="yes"/>
      <point x="375" y="217"/>
      <point x="514" y="217" type="qcurve" smooth="yes"/>
      <point x="662" y="217"/>
      <point x="746" y="313" type="qcurve" smooth="yes"/>
      <point x="806" y="381"/>
      <point x="829" y="492" type="qcurve"/>
      <point x="834" y="540"/>
      <point x="840" y="589" type="qcurve"/>
      <point x="819" y="578"/>
      <point x="798" y="568" type="qcurve" smooth="yes"/>
      <point x="744" y="543"/>
      <point x="688" y="528" type="qcurve" smooth="yes"/>
      <point x="608" y="506"/>
      <point x="538" y="506" type="qcurve" smooth="yes"/>
      <point x="339" y="506"/>
      <point x="211" y="620" type="qcurve" smooth="yes"/>
      <point x="72" y="744"/>
      <point x="72" y="959" type="qcurve" smooth="yes"/>
      <point x="72" y="1193"/>
      <point x="200" y="1351" type="qcurve" smooth="yes"/>
      <point x="340" y="1524"/>
      <point x="583" y="1524" type="qcurve" smooth="yes"/>
      <point x="878" y="1524"/>
      <point x="1019" y="1321" type="qcurve" smooth="yes"/>
      <point x="1147" y="1137"/>
    </contour>
    <contour>
      <point x="835" y="1001" type="qcurve" smooth="yes"/>
      <point x="835" y="1126"/>
      <point x="787" y="1196" type="qcurve" smooth="yes"/>
      <point x="728" y="1282"/>
      <point x="594" y="1282" type="qcurve" smooth="yes"/>
      <point x="472" y="1282"/>
      <point x="413" y="1184" type="qcurve" smooth="yes"/>
      <point x="366" y="1106"/>
      <point x="366" y="990" type="qcurve" smooth="yes"/>
      <point x="366" y="870"/>
      <point x="488" y="734"/>
      <point x="595" y="734" type="qcurve" smooth="yes"/>
      <point x="711" y="734"/>
      <point x="776" y="815" type="qcurve" smooth="yes"/>
      <point x="835" y="888"/>
    </contour>
  </outline>
</glyph>
<glyph name="colon" format="1">
  <advance width="471"/>
  <unicode hex="003A"/>
  <outline>
    <contour>
      <point x="251" y="529" type="qcurve" smooth="yes"/>
      <point x="169" y="529"/>
      <point x="120" y="584" type="qcurve" smooth="yes"/>
      <point x="76" y="634"/>
      <point x="76" y="705" type="qcurve" smooth="yes"/>
      <point x="76" y="773"/>
      <point x="118" y="820" type="qcurve" smooth="yes"/>
      <point x="164" y="872"/>
      <point x="244" y="872" type="qcurve" smooth="yes"/>
      <point x="326" y="872"/>
      <point x="375" y="817" type="qcurve" smooth="yes"/>
      <point x="419" y="767"/>
      <point x="419" y="696" type="qcurve" smooth="yes"/>
      <point x="419" y="628"/>
      <point x="377" y="581" type="qcurve" smooth="yes"/>
      <point x="331" y="529"/>
    </contour>
    <contour>
      <point x="255" y="-22" type="qcurve" smooth="yes"/>
      <point x="173" y="-22"/>
      <point x="124" y="33" type="qcurve" smooth="yes"/>
      <point x="79" y="84"/>
      <point x="79" y="155" type="qcurve" smooth="yes"/>
      <point x="79" y="223"/>
      <point x="120" y="269" type="qcurve" smooth="yes"/>
      <point x="166" y="321"/>
      <point x="246" y="321" type="qcurve" smooth="yes"/>
      <point x="328" y="321"/>
      <point x="377" y="266" type="qcurve" smooth="yes"/>
      <point x="422" y="215"/>
      <point x="422" y="144" type="qcurve" smooth="yes"/>
      <point x="422" y="76"/>
      <point x="381" y="30" type="qcurve" smooth="yes"/>
      <point x="335" y="-22"/>
    </contour>
  </outline>
</glyph>
<glyph name="semicolon" format="1">
  <advance width="458"/>
  <unicode hex="003B"/>
  <outline>
    <contour>
      <point x="245" y="529" type="qcurve" smooth="yes"/>
      <point x="163" y="529"/>
      <point x="114" y="584" type="qcurve" smooth="yes"/>
      <point x="70" y="634"/>
      <point x="70" y="705" type="qcurve" smooth="yes"/>
      <point x="70" y="773"/>
      <point x="112" y="820" type="qcurve" smooth="yes"/>
      <point x="158" y="872"/>
      <point x="238" y="872" type="qcurve" smooth="yes"/>
      <point x="320" y="872"/>
      <point x="369" y="817" type="qcurve" smooth="yes"/>
      <point x="413" y="767"/>
      <point x="413" y="696" type="qcurve" smooth="yes"/>
      <point x="413" y="628"/>
      <point x="371" y="581" type="qcurve" smooth="yes"/>
      <point x="325" y="529"/>
    </contour>
    <contour>
      <point x="408" y="110" type="qcurve" smooth="yes"/>
      <point x="408" y="-34"/>
      <point x="327" y="-127" type="qcurve" smooth="yes"/>
      <point x="268" y="-194"/>
      <point x="174" y="-229" type="qcurve" smooth="yes"/>
      <point x="107" y="-254"/>
      <point x="89" y="-250" type="qcurve"/>
      <point x="99" y="-253"/>
      <point x="140" y="-208" type="qcurve" smooth="yes"/>
      <point x="190" y="-153"/>
      <point x="190" y="-92" type="qcurve" smooth="yes"/>
      <point x="190" y="-32"/>
      <point x="71" y="81"/>
      <point x="71" y="140" type="qcurve" smooth="yes"/>
      <point x="71" y="210"/>
      <point x="115" y="255" type="qcurve" smooth="yes"/>
      <point x="163" y="304"/>
      <point x="243" y="304" type="qcurve" smooth="yes"/>
      <point x="324" y="304"/>
      <point x="369" y="243" type="qcurve" smooth="yes"/>
      <point x="408" y="190"/>
    </contour>
  </outline>
</glyph>
<glyph name="less" format="1">
  <advance width="968"/>
  <unicode hex="003C"/>
  <outline>
    <contour>
      <point x="909" y="-22" type="line"/>
      <point x="72" y="488" type="line"/>
      <point x="72" y="659" type="line"/>
      <point x="909" y="1123" type="line"/>
      <point x="909" y="921" type="line"/>
      <point x="258" y="572" type="line"/>
      <point x="909" y="180" type="line"/>
    </contour>
  </outline>
</glyph>
<glyph name="equal" format="1">
  <advance width="889"/>
  <unicode hex="003D"/>
  <outline>
    <contour>
      <point x="827" y="606" type="line"/>
      <point x="72" y="606" type="line"/>
      <point x="72" y="807" type="line"/>
      <point x="827" y="807" type="line"/>
    </contour>
    <contour>
      <point x="827" y="238" type="line"/>
      <point x="72" y="238" type="line"/>
      <point x="72" y="438" type="line"/>
      <point x="827" y="438" type="line"/>
    </contour>
  </outline>
</glyph>
<glyph name="greater" format="1">
  <advance width="961"/>
  <unicode hex="003E"/>
  <outline>
    <contour>
      <point x="909" y="488" type="line"/>
      <point x="72" y="-22" type="line"/>
      <point x="72" y="180" type="line"/>
      <point x="723" y="572" type="line"/>
      <point x="72" y="921" type="line"/>
      <point x="72" y="1123" type="line"/>
      <point x="909" y="659" type="line"/>
    </contour>
  </outline>
</glyph>
<glyph name="question" format="1">
  <advance width="1110"/>
  <unicode hex="003F"/>
  <outline>
    <contour>
      <point x="1048" y="1116" type="qcurve" smooth="yes"/>
      <point x="1048" y="1001"/>
      <point x="996" y="911" type="qcurve" smooth="yes"/>
      <point x="948" y="829"/>
      <point x="848" y="752" type="qcurve" smooth="yes"/>
      <point x="744" y="675" type="line" smooth="yes"/>
      <point x="687" y="633"/>
      <point x="650" y="585" type="qcurve" smooth="yes"/>
      <point x="610" y="533"/>
      <point x="610" y="493" type="qcurve" smooth="yes"/>
      <point x="610" y="470"/>
      <point x="616" y="423"/>
      <point x="618" y="407" type="qcurve"/>
      <point x="295" y="407" type="line"/>
      <point x="309" y="443" type="line"/>
      <point x="327" y="532"/>
      <point x="345" y="622" type="qcurve"/>
      <point x="379" y="711"/>
      <point x="489" y="806" type="qcurve" smooth="yes"/>
      <point x="579" y="881"/>
      <point x="669" y="957" type="qcurve"/>
      <point x="758" y="1044"/>
      <point x="758" y="1126" type="qcurve" smooth="yes"/>
      <point x="758" y="1197"/>
      <point x="638" y="1282"/>
      <point x="557" y="1282" type="qcurve" smooth="yes"/>
      <point x="423" y="1282"/>
      <point x="297" y="1186" type="qcurve" smooth="yes"/>
      <point x="208" y="1118"/>
      <point x="128" y="1006" type="qcurve" smooth="yes"/>
      <point x="97" y="957"/>
      <point x="66" y="909" type="qcurve"/>
      <point x="66" y="1539" type="line"/>
      <point x="94" y="1515"/>
      <point x="114" y="1503" type="qcurve" smooth="yes"/>
      <point x="175" y="1467"/>
      <point x="237" y="1467" type="qcurve" smooth="yes"/>
      <point x="306" y="1467"/>
      <point x="461" y="1498" type="qcurve" smooth="yes"/>
      <point x="541" y="1514"/>
      <point x="599" y="1514" type="qcurve" smooth="yes"/>
      <point x="795" y="1514"/>
      <point x="1048" y="1291"/>
    </contour>
    <contour>
      <point x="473" y="-22" type="qcurve" smooth="yes"/>
      <point x="394" y="-22"/>
      <point x="347" y="31" type="qcurve" smooth="yes"/>
      <point x="305" y="79"/>
      <point x="305" y="148" type="qcurve" smooth="yes"/>
      <point x="305" y="214"/>
      <point x="344" y="258" type="qcurve" smooth="yes"/>
      <point x="388" y="308"/>
      <point x="465" y="308" type="qcurve" smooth="yes"/>
      <point x="544" y="308"/>
      <point x="591" y="255" type="qcurve" smooth="yes"/>
      <point x="634" y="207"/>
      <point x="634" y="139" type="qcurve" smooth="yes"/>
      <point x="634" y="73"/>
      <point x="594" y="28" type="qcurve" smooth="yes"/>
      <point x="550" y="-22"/>
    </contour>
  </outline>
</glyph>
<glyph name="at" format="1">
  <advance width="1519"/>
  <unicode hex="0040"/>
  <outline>
    <contour>
      <point x="1456" y="849" type="qcurve" smooth="yes"/>
      <point x="1456" y="632"/>
      <point x="1318" y="462" type="qcurve" smooth="yes"/>
      <point x="1177" y="288"/>
      <point x="988" y="288" type="qcurve" smooth="yes"/>
      <point x="907" y="288"/>
      <point x="867" y="368" type="qcurve" smooth="yes"/>
      <point x="854" y="394"/>
      <point x="844" y="448" type="qcurve"/>
      <point x="786" y="382" type="line" smooth="yes"/>
      <point x="712" y="296"/>
      <point x="599" y="296" type="qcurve" smooth="yes"/>
      <point x="484" y="296"/>
      <point x="408" y="390" type="qcurve" smooth="yes"/>
      <point x="336" y="479"/>
      <point x="336" y="602" type="qcurve" smooth="yes"/>
      <point x="336" y="783"/>
      <point x="489" y="918" type="qcurve" smooth="yes"/>
      <point x="627" y="1040"/>
      <point x="770" y="1040" type="qcurve" smooth="yes"/>
      <point x="827" y="1040"/>
      <point x="906" y="998"/>
      <point x="922" y="951" type="qcurve" smooth="yes"/>
      <point x="941" y="896" type="line"/>
      <point x="980" y="1017" type="line"/>
      <point x="1148" y="1021" type="line"/>
      <point x="996" y="460" type="line" smooth="yes"/>
      <point x="989" y="432"/>
      <point x="989" y="407" type="qcurve" smooth="yes"/>
      <point x="989" y="378"/>
      <point x="1007" y="343"/>
      <point x="1027" y="343" type="qcurve" smooth="yes"/>
      <point x="1146" y="343"/>
      <point x="1350" y="660"/>
      <point x="1350" y="834" type="qcurve" smooth="yes"/>
      <point x="1350" y="1059"/>
      <point x="1174" y="1194" type="qcurve" smooth="yes"/>
      <point x="1013" y="1317"/>
      <point x="782" y="1317" type="qcurve" smooth="yes"/>
      <point x="532" y="1317"/>
      <point x="178" y="963"/>
      <point x="178" y="713" type="qcurve" smooth="yes"/>
      <point x="178" y="453"/>
      <point x="539" y="82"/>
      <point x="797" y="82" type="qcurve" smooth="yes"/>
      <point x="986" y="82"/>
      <point x="1120" y="154" type="qcurve" smooth="yes"/>
      <point x="1216" y="205"/>
      <point x="1277" y="289" type="qcurve"/>
      <point x="1298" y="325"/>
      <point x="1319" y="362" type="qcurve"/>
      <point x="1448" y="362" type="line"/>
      <point x="1419" y="313"/>
      <point x="1391" y="264" type="qcurve"/>
      <point x="1309" y="151"/>
      <point x="1188" y="81" type="qcurve" smooth="yes"/>
      <point x="1017" y="-18"/>
      <point x="793" y="-18" type="qcurve" smooth="yes"/>
      <point x="495" y="-18"/>
      <point x="73" y="406"/>
      <point x="73" y="705" type="qcurve" smooth="yes"/>
      <point x="73" y="999"/>
      <point x="488" y="1418"/>
      <point x="782" y="1418" type="qcurve" smooth="yes"/>
      <point x="1049" y="1418"/>
      <point x="1247" y="1262" type="qcurve" smooth="yes"/>
      <point x="1456" y="1097"/>
    </contour>
    <contour>
      <point x="904" y="818" type="qcurve" smooth="yes"/>
      <point x="904" y="894"/>
      <point x="845" y="990"/>
      <point x="789" y="990" type="qcurve" smooth="yes"/>
      <point x="693" y="990"/>
      <point x="511" y="668"/>
      <point x="511" y="514" type="qcurve" smooth="yes"/>
      <point x="511" y="446"/>
      <point x="540" y="404" type="qcurve" smooth="yes"/>
      <point x="575" y="353"/>
      <point x="643" y="353" type="qcurve" smooth="yes"/>
      <point x="740" y="353"/>
      <point x="826" y="529" type="qcurve" smooth="yes"/>
      <point x="904" y="689"/>
    </contour>
  </outline>
</glyph>
<glyph name="A" format="1">
  <advance width="1559"/>
  <unicode hex="0041"/>
  <outline>
    <contour>
      <point x="1506" y="-2" type="qcurve"/>
      <point x="1019" y="-2" type="line"/>
      <point x="1054" y="41"/>
      <point x="1084" y="112"/>
      <point x="1084" y="163" type="qcurve" smooth="yes"/>
      <point x="1084" y="191"/>
      <point x="1077" y="221" type="qcurve" smooth="yes"/>
      <point x="1065" y="270"/>
      <point x="1064" y="280" type="qcurve"/>
      <point x="1015" y="280"/>
      <point x="823" y="291"/>
      <point x="785" y="291" type="qcurve" smooth="yes"/>
      <point x="691" y="291"/>
      <point x="551" y="286" type="qcurve" smooth="yes"/>
      <point x="526" y="286"/>
      <point x="487" y="283" type="qcurve"/>
      <point x="474" y="247"/>
      <point x="453" y="169"/>
      <point x="453" y="142" type="qcurve" smooth="yes"/>
      <point x="453" y="103"/>
      <point x="470" y="63" type="qcurve"/>
      <point x="488" y="31"/>
      <point x="506" y="0" type="qcurve"/>
      <point x="65" y="0" type="line" smooth="yes"/>
      <point x="65" y="1"/>
      <point x="102" y="58" type="qcurve" smooth="yes"/>
      <point x="125" y="94"/>
      <point x="135" y="112" type="qcurve" smooth="yes"/>
      <point x="166" y="168"/>
      <point x="170" y="176" type="qcurve" smooth="yes"/>
      <point x="188" y="211"/>
      <point x="199" y="243" type="qcurve" smooth="yes"/>
      <point x="599" y="1379" type="line" smooth="yes"/>
      <point x="608" y="1400"/>
      <point x="617" y="1425"/>
      <point x="617" y="1438" type="qcurve" smooth="yes"/>
      <point x="617" y="1448"/>
      <point x="612" y="1466"/>
      <point x="602" y="1477" type="qcurve" smooth="yes"/>
      <point x="587" y="1494"/>
      <point x="584" y="1498" type="qcurve"/>
      <point x="1017" y="1498" type="line"/>
      <point x="1004" y="1483"/>
      <point x="991" y="1459"/>
      <point x="988" y="1436"/>
      <point x="988" y="1433" type="qcurve" smooth="yes"/>
      <point x="988" y="1428"/>
      <point x="988" y="1426" type="qcurve" smooth="yes"/>
      <point x="988" y="1409"/>
      <point x="1004" y="1370"/>
      <point x="1012" y="1351" type="qcurve" smooth="yes"/>
      <point x="1355" y="293" type="line" smooth="yes"/>
      <point x="1374" y="235"/>
      <point x="1406" y="163"/>
      <point x="1436" y="110" type="qcurve" smooth="yes"/>
      <point x="1451" y="83"/>
      <point x="1480" y="37" type="qcurve" smooth="yes"/>
      <point x="1489" y="22"/>
    </contour>
    <contour>
      <point x="986" y="523" type="qcurve"/>
      <point x="782" y="1172" type="line"/>
      <point x="563" y="523" type="line" smooth="yes"/>
      <point x="564" y="519"/>
      <point x="690" y="517"/>
      <point x="776" y="517" type="qcurve" smooth="yes"/>
      <point x="826" y="517"/>
      <point x="939" y="521"/>
    </contour>
  </outline>
</glyph>
<glyph name="B" format="1">
  <advance width="1370"/>
  <unicode hex="0042"/>
  <outline>
    <contour>
      <point x="1332" y="460" type="qcurve" smooth="yes"/>
      <point x="1332" y="215"/>
      <point x="1155" y="96" type="qcurve" smooth="yes"/>
      <point x="1005" y="-5"/>
      <point x="745" y="-5" type="qcurve" smooth="yes"/>
      <point x="670" y="-5"/>
      <point x="579" y="0" type="qcurve" smooth="yes"/>
      <point x="360" y="12"/>
      <point x="330" y="12" type="qcurve" smooth="yes"/>
      <point x="266" y="12"/>
      <point x="175" y="6" type="qcurve" smooth="yes"/>
      <point x="131" y="3"/>
      <point x="88" y="0" type="qcurve"/>
      <point x="98" y="9"/>
      <point x="109" y="19" type="qcurve" smooth="yes"/>
      <point x="150" y="65"/>
      <point x="167" y="101" type="qcurve" smooth="yes"/>
      <point x="191" y="154"/>
      <point x="191" y="214" type="qcurve" smooth="yes"/>
      <point x="191" y="1230" type="line" smooth="yes"/>
      <point x="191" y="1288"/>
      <point x="166" y="1391"/>
      <point x="142" y="1433" type="qcurve" smooth="yes"/>
      <point x="132" y="1453"/>
      <point x="104" y="1477" type="qcurve" smooth="yes"/>
      <point x="95" y="1485"/>
      <point x="78" y="1497" type="qcurve"/>
      <point x="133" y="1497"/>
      <point x="301" y="1487"/>
      <point x="355" y="1487" type="qcurve" smooth="yes"/>
      <point x="444" y="1487"/>
      <point x="709" y="1500"/>
      <point x="772" y="1500" type="qcurve" smooth="yes"/>
      <point x="998" y="1500"/>
      <point x="1257" y="1306"/>
      <point x="1257" y="1129" type="qcurve" smooth="yes"/>
      <point x="1257" y="979"/>
      <point x="1192" y="908" type="qcurve"/>
      <point x="1111" y="850"/>
      <point x="1081" y="821" type="qcurve"/>
      <point x="1136" y="801"/>
      <point x="1165" y="784" type="qcurve" smooth="yes"/>
      <point x="1237" y="742"/>
      <point x="1277" y="677" type="qcurve" smooth="yes"/>
      <point x="1332" y="589"/>
    </contour>
    <contour>
      <point x="977" y="1116" type="qcurve" smooth="yes"/>
      <point x="977" y="1202"/>
      <point x="892" y="1245" type="qcurve" smooth="yes"/>
      <point x="819" y="1282"/>
      <point x="705" y="1282" type="qcurve" smooth="yes"/>
      <point x="617" y="1282"/>
      <point x="554" y="1258" type="qcurve" smooth="yes"/>
      <point x="515" y="1245"/>
      <point x="468" y="1156"/>
      <point x="468" y="1101" type="qcurve" smooth="yes"/>
      <point x="468" y="919" type="line"/>
      <point x="503" y="915"/>
      <point x="524" y="914" type="qcurve" smooth="yes"/>
      <point x="588" y="909"/>
      <point x="628" y="909" type="qcurve" smooth="yes"/>
      <point x="821" y="909"/>
      <point x="907" y="972" type="qcurve" smooth="yes"/>
      <point x="977" y="1023"/>
    </contour>
    <contour>
      <point x="1049" y="465" type="qcurve" smooth="yes"/>
      <point x="1049" y="592"/>
      <point x="939" y="642" type="qcurve" smooth="yes"/>
      <point x="855" y="680"/>
      <point x="679" y="680" type="qcurve" smooth="yes"/>
      <point x="599" y="680"/>
      <point x="527" y="675" type="qcurve" smooth="yes"/>
      <point x="503" y="674"/>
      <point x="471" y="670" type="qcurve"/>
      <point x="471" y="377" type="line" smooth="yes"/>
      <point x="471" y="295"/>
      <point x="541" y="255" type="qcurve" smooth="yes"/>
      <point x="601" y="221"/>
      <point x="698" y="221" type="qcurve" smooth="yes"/>
      <point x="846" y="221"/>
      <point x="942" y="280" type="qcurve" smooth="yes"/>
      <point x="1049" y="346"/>
    </contour>
  </outline>
</glyph>
<glyph name="C" format="1">
  <advance width="1239"/>
  <unicode hex="0043"/>
  <outline>
    <contour>
      <point x="1181" y="551" type="qcurve"/>
      <point x="1181" y="306"/>
      <point x="1059" y="152" type="qcurve" smooth="yes"/>
      <point x="921" y="-22"/>
      <point x="664" y="-22" type="qcurve" smooth="yes"/>
      <point x="386" y="-22"/>
      <point x="229" y="167" type="qcurve" smooth="yes"/>
      <point x="69" y="360"/>
      <point x="69" y="712" type="qcurve" smooth="yes"/>
      <point x="69" y="943"/>
      <point x="120" y="1110" type="qcurve" smooth="yes"/>
      <point x="180" y="1305"/>
      <point x="304" y="1408" type="qcurve" smooth="yes"/>
      <point x="445" y="1524"/>
      <point x="669" y="1524" type="qcurve" smooth="yes"/>
      <point x="720" y="1524"/>
      <point x="786" y="1508" type="qcurve" smooth="yes"/>
      <point x="939" y="1471"/>
      <point x="994" y="1471" type="qcurve" smooth="yes"/>
      <point x="1026" y="1471"/>
      <point x="1092" y="1505"/>
      <point x="1118" y="1531" type="qcurve"/>
      <point x="1118" y="868" type="line"/>
      <point x="1092" y="920"/>
      <point x="1066" y="973" type="qcurve" smooth="yes"/>
      <point x="998" y="1094"/>
      <point x="921" y="1168" type="qcurve" smooth="yes"/>
      <point x="812" y="1273"/>
      <point x="698" y="1273" type="qcurve" smooth="yes"/>
      <point x="571" y="1273"/>
      <point x="489" y="1188" type="qcurve" smooth="yes"/>
      <point x="418" y="1115"/>
      <point x="384" y="981" type="qcurve" smooth="yes"/>
      <point x="355" y="869"/>
      <point x="355" y="729" type="qcurve" smooth="yes"/>
      <point x="355" y="517"/>
      <point x="442" y="394" type="qcurve" smooth="yes"/>
      <point x="533" y="266"/>
      <point x="698" y="266" type="qcurve" smooth="yes"/>
      <point x="831" y="266"/>
      <point x="954" y="337" type="qcurve" smooth="yes"/>
      <point x="1045" y="390"/>
      <point x="1120" y="472" type="qcurve" smooth="yes"/>
      <point x="1168" y="524"/>
    </contour>
  </outline>
</glyph>
<glyph name="D" format="1">
  <advance width="1343"/>
  <unicode hex="0044"/>
  <outline>
    <contour>
      <point x="1309" y="799" type="qcurve" smooth="yes"/>
      <point x="1309" y="582"/>
      <point x="1248" y="412" type="qcurve" smooth="yes"/>
      <point x="1180" y="221"/>
      <point x="1044" y="117" type="qcurve" smooth="yes"/>
      <point x="892" y="0"/>
      <point x="663" y="0" type="qcurve" smooth="yes"/>
      <point x="558" y="0"/>
      <point x="377" y="7"/>
      <point x="273" y="12" type="qcurve" smooth="yes"/>
      <point x="234" y="12"/>
      <point x="160" y="5" type="qcurve" smooth="yes"/>
      <point x="129" y="2"/>
      <point x="99" y="0" type="qcurve"/>
      <point x="116" y="23"/>
      <point x="125" y="36" type="qcurve" smooth="yes"/>
      <point x="154" y="79"/>
      <point x="165" y="103" type="qcurve" smooth="yes"/>
      <point x="183" y="141"/>
      <point x="194" y="208"/>
      <point x="194" y="258" type="qcurve" smooth="yes"/>
      <point x="194" y="1095" type="line" smooth="yes"/>
      <point x="194" y="1251"/>
      <point x="175" y="1358" type="qcurve" smooth="yes"/>
      <point x="169" y="1396"/>
      <point x="134" y="1450" type="qcurve" smooth="yes"/>
      <point x="123" y="1468"/>
      <point x="99" y="1498" type="qcurve"/>
      <point x="122" y="1496"/>
      <point x="308" y="1487"/>
      <point x="380" y="1487" type="qcurve" smooth="yes"/>
      <point x="429" y="1487"/>
      <point x="556" y="1497" type="qcurve" smooth="yes"/>
      <point x="619" y="1502"/>
      <point x="665" y="1502" type="qcurve" smooth="yes"/>
      <point x="904" y="1502"/>
      <point x="1056" y="1400" type="qcurve" smooth="yes"/>
      <point x="1191" y="1310"/>
      <point x="1254" y="1142" type="qcurve" smooth="yes"/>
      <point x="1309" y="996"/>
    </contour>
    <contour>
      <point x="1021" y="746" type="qcurve" smooth="yes"/>
      <point x="1021" y="896"/>
      <point x="997" y="999" type="qcurve" smooth="yes"/>
      <point x="966" y="1133"/>
      <point x="892" y="1203" type="qcurve" smooth="yes"/>
      <point x="804" y="1287"/>
      <point x="653" y="1287" type="qcurve" smooth="yes"/>
      <point x="564" y="1287"/>
      <point x="525" y="1255" type="qcurve" smooth="yes"/>
      <point x="465" y="1205"/>
      <point x="465" y="1065" type="qcurve" smooth="yes"/>
      <point x="465" y="468" type="line" smooth="yes"/>
      <point x="465" y="321"/>
      <point x="513" y="271" type="qcurve" smooth="yes"/>
      <point x="554" y="229"/>
      <point x="663" y="229" type="qcurve" smooth="yes"/>
      <point x="858" y="229"/>
      <point x="949" y="396" type="qcurve" smooth="yes"/>
      <point x="1021" y="528"/>
    </contour>
  </outline>
</glyph>
<glyph name="E" format="1">
  <advance width="1258"/>
  <unicode hex="0045"/>
  <outline>
    <contour>
      <point x="1209" y="-63" type="line"/>
      <point x="1197" y="-52"/>
      <point x="1190" y="-46" type="qcurve" smooth="yes"/>
      <point x="1167" y="-27"/>
      <point x="1132" y="-10"/>
      <point x="1095" y="0"/>
      <point x="1075" y="0" type="qcurve" smooth="yes"/>
      <point x="70" y="0" type="line"/>
      <point x="94" y="20"/>
      <point x="109" y="39" type="qcurve" smooth="yes"/>
      <point x="114" y="45"/>
      <point x="140" y="85" type="qcurve" smooth="yes"/>
      <point x="155" y="107"/>
      <point x="177" y="182"/>
      <point x="177" y="220" type="qcurve" smooth="yes"/>
      <point x="177" y="1236" type="line" smooth="yes"/>
      <point x="177" y="1296"/>
      <point x="162" y="1379"/>
      <point x="138" y="1420" type="qcurve" smooth="yes"/>
      <point x="123" y="1442"/>
      <point x="95" y="1469" type="qcurve" smooth="yes"/>
      <point x="72" y="1490"/>
      <point x="65" y="1498" type="qcurve"/>
      <point x="1043" y="1498" type="line" smooth="yes"/>
      <point x="1063" y="1498"/>
      <point x="1093" y="1504"/>
      <point x="1113" y="1510" type="qcurve" smooth="yes"/>
      <point x="1127" y="1516"/>
      <point x="1148" y="1529"/>
      <point x="1160" y="1537" type="qcurve"/>
      <point x="1160" y="1018" type="line"/>
      <point x="1142" y="1052"/>
      <point x="1124" y="1087" type="qcurve"/>
      <point x="1070" y="1166"/>
      <point x="982" y="1216" type="qcurve" smooth="yes"/>
      <point x="858" y="1286"/>
      <point x="687" y="1286" type="qcurve" smooth="yes"/>
      <point x="583" y="1286"/>
      <point x="534" y="1266" type="qcurve" smooth="yes"/>
      <point x="458" y="1235"/>
      <point x="458" y="1149" type="qcurve" smooth="yes"/>
      <point x="458" y="890" type="line"/>
      <point x="477" y="888"/>
      <point x="489" y="888" type="qcurve" smooth="yes"/>
      <point x="564" y="883"/>
      <point x="604" y="883" type="qcurve" smooth="yes"/>
      <point x="719" y="883"/>
      <point x="806" y="918" type="qcurve" smooth="yes"/>
      <point x="868" y="943"/>
      <point x="915" y="985" type="qcurve" smooth="yes"/>
      <point x="931" y="1003"/>
      <point x="948" y="1021" type="qcurve"/>
      <point x="948" y="526" type="line"/>
      <point x="935" y="544"/>
      <point x="922" y="562" type="qcurve" smooth="yes"/>
      <point x="884" y="604"/>
      <point x="832" y="628" type="qcurve" smooth="yes"/>
      <point x="755" y="663"/>
      <point x="651" y="663" type="qcurve" smooth="yes"/>
      <point x="603" y="663"/>
      <point x="505" y="655"/>
      <point x="455" y="651" type="qcurve"/>
      <point x="455" y="359" type="line" smooth="yes"/>
      <point x="455" y="271"/>
      <point x="531" y="239" type="qcurve" smooth="yes"/>
      <point x="583" y="217"/>
      <point x="687" y="217" type="qcurve" smooth="yes"/>
      <point x="870" y="217"/>
      <point x="1005" y="307" type="qcurve" smooth="yes"/>
      <point x="1103" y="372"/>
      <point x="1165" y="475" type="qcurve" smooth="yes"/>
      <point x="1209" y="548"/>
      <point x="1209" y="570" type="qcurve" smooth="yes"/>
    </contour>
  </outline>
</glyph>
<glyph name="F" format="1">
  <advance width="1171"/>
  <unicode hex="0046"/>
  <outline>
    <contour>
      <point x="1126" y="1011" type="line"/>
      <point x="1110" y="1045"/>
      <point x="1095" y="1080" type="qcurve"/>
      <point x="1047" y="1159"/>
      <point x="962" y="1209" type="qcurve" smooth="yes"/>
      <point x="844" y="1279"/>
      <point x="674" y="1279" type="qcurve" smooth="yes"/>
      <point x="591" y="1279"/>
      <point x="545" y="1254" type="qcurve" smooth="yes"/>
      <point x="471" y="1214"/>
      <point x="471" y="1112" type="qcurve" smooth="yes"/>
      <point x="471" y="897" type="line"/>
      <point x="490" y="896"/>
      <point x="502" y="896" type="qcurve" smooth="yes"/>
      <point x="587" y="892"/>
      <point x="617" y="892" type="qcurve" smooth="yes"/>
      <point x="727" y="892"/>
      <point x="810" y="929" type="qcurve" smooth="yes"/>
      <point x="869" y="955"/>
      <point x="911" y="999" type="qcurve" smooth="yes"/>
      <point x="944" y="1033"/>
      <point x="939" y="1038" type="qcurve"/>
      <point x="939" y="551" type="line"/>
      <point x="924" y="566"/>
      <point x="910" y="582" type="qcurve" smooth="yes"/>
      <point x="869" y="617"/>
      <point x="810" y="640" type="qcurve" smooth="yes"/>
      <point x="727" y="672"/>
      <point x="624" y="672" type="qcurve" smooth="yes"/>
      <point x="571" y="672"/>
      <point x="493" y="667"/>
      <point x="468" y="665" type="qcurve"/>
      <point x="468" y="359" type="line" smooth="yes"/>
      <point x="468" y="259"/>
      <point x="482" y="155"/>
      <point x="507" y="93" type="qcurve" smooth="yes"/>
      <point x="518" y="67"/>
      <point x="560" y="29" type="qcurve" smooth="yes"/>
      <point x="580" y="14"/>
      <point x="600" y="0" type="qcurve"/>
      <point x="83" y="0" type="line"/>
      <point x="107" y="20"/>
      <point x="122" y="39" type="qcurve" smooth="yes"/>
      <point x="127" y="45"/>
      <point x="153" y="85" type="qcurve" smooth="yes"/>
      <point x="168" y="108"/>
      <point x="191" y="180"/>
      <point x="191" y="220" type="qcurve" smooth="yes"/>
      <point x="191" y="1236" type="line" smooth="yes"/>
      <point x="191" y="1297"/>
      <point x="175" y="1379"/>
      <point x="151" y="1420" type="qcurve" smooth="yes"/>
      <point x="136" y="1442"/>
      <point x="108" y="1469" type="qcurve" smooth="yes"/>
      <point x="85" y="1490"/>
      <point x="78" y="1498" type="qcurve"/>
      <point x="1009" y="1498" type="line" smooth="yes"/>
      <point x="1037" y="1498"/>
      <point x="1061" y="1501"/>
      <point x="1094" y="1518"/>
      <point x="1111" y="1537" type="qcurve" smooth="yes"/>
      <point x="1117" y="1543"/>
      <point x="1126" y="1556" type="qcurve"/>
    </contour>
  </outline>
</glyph>
<glyph name="G" format="1">
  <advance width="1317"/>
  <unicode hex="0047"/>
  <outline>
    <contour>
      <point x="1264" y="787" type="line"/>
      <point x="1254" y="769"/>
      <point x="1249" y="758" type="qcurve" smooth="yes"/>
      <point x="1231" y="722"/>
      <point x="1225" y="704" type="qcurve" smooth="yes"/>
      <point x="1216" y="669"/>
      <point x="1216" y="634" type="qcurve" smooth="yes"/>
      <point x="1216" y="-53" type="line" smooth="yes"/>
      <point x="1216" y="-41"/>
      <point x="1172" y="-6" type="qcurve" smooth="yes"/>
      <point x="1120" y="35"/>
      <point x="1072" y="35" type="qcurve" smooth="yes"/>
      <point x="1065" y="34"/>
      <point x="1061" y="34" type="qcurve" smooth="yes"/>
      <point x="1004" y="28"/>
      <point x="857" y="0" type="qcurve" smooth="yes"/>
      <point x="741" y="-22"/>
      <point x="650" y="-22" type="qcurve" smooth="yes"/>
      <point x="346" y="-22"/>
      <point x="204" y="161" type="qcurve" smooth="yes"/>
      <point x="66" y="339"/>
      <point x="66" y="710" type="qcurve" smooth="yes"/>
      <point x="66" y="1069"/>
      <point x="219" y="1287" type="qcurve" smooth="yes"/>
      <point x="382" y="1519"/>
      <point x="671" y="1519" type="qcurve" smooth="yes"/>
      <point x="737" y="1519"/>
      <point x="819" y="1504" type="qcurve" smooth="yes"/>
      <point x="999" y="1471"/>
      <point x="1040" y="1471" type="qcurve" smooth="yes"/>
      <point x="1079" y="1471"/>
      <point x="1124" y="1502" type="qcurve" smooth="yes"/>
      <point x="1143" y="1515"/>
      <point x="1164" y="1536" type="qcurve"/>
      <point x="1164" y="912" type="line"/>
      <point x="1134" y="959"/>
      <point x="1105" y="1007" type="qcurve" smooth="yes"/>
      <point x="1030" y="1115"/>
      <point x="946" y="1184" type="qcurve" smooth="yes"/>
      <point x="829" y="1280"/>
      <point x="716" y="1280" type="qcurve" smooth="yes"/>
      <point x="532" y="1280"/>
      <point x="435" y="1097" type="qcurve" smooth="yes"/>
      <point x="355" y="946"/>
      <point x="355" y="727" type="qcurve" smooth="yes"/>
      <point x="355" y="499"/>
      <point x="425" y="366" type="qcurve" smooth="yes"/>
      <point x="507" y="211"/>
      <point x="674" y="211" type="qcurve" smooth="yes"/>
      <point x="806" y="211"/>
      <point x="876" y="295" type="qcurve" smooth="yes"/>
      <point x="939" y="371"/>
      <point x="939" y="493" type="qcurve" smooth="yes"/>
      <point x="939" y="581"/>
      <point x="897" y="662" type="qcurve" smooth="yes"/>
      <point x="844" y="764"/>
      <point x="798" y="787" type="qcurve"/>
    </contour>
  </outline>
</glyph>
<glyph name="H" format="1">
  <advance width="1391"/>
  <unicode hex="0048"/>
  <outline>
    <contour>
      <point x="1346" y="0" type="qcurve"/>
      <point x="854" y="0" type="line"/>
      <point x="901" y="47"/>
      <point x="926" y="98" type="qcurve" smooth="yes"/>
      <point x="935" y="118"/>
      <point x="944" y="138" type="qcurve" smooth="yes"/>
      <point x="957" y="171"/>
      <point x="957" y="209" type="qcurve" smooth="yes"/>
      <point x="957" y="668" type="line"/>
      <point x="924" y="669"/>
      <point x="903" y="670" type="qcurve" smooth="yes"/>
      <point x="753" y="677"/>
      <point x="709" y="677" type="qcurve" smooth="yes"/>
      <point x="651" y="677"/>
      <point x="555" y="671" type="qcurve" smooth="yes"/>
      <point x="523" y="669"/>
      <point x="470" y="665" type="qcurve"/>
      <point x="470" y="275" type="line" smooth="yes"/>
      <point x="470" y="205"/>
      <point x="482" y="124"/>
      <point x="505" y="85" type="qcurve" smooth="yes"/>
      <point x="518" y="60"/>
      <point x="546" y="28" type="qcurve" smooth="yes"/>
      <point x="560" y="14"/>
      <point x="575" y="0" type="qcurve"/>
      <point x="77" y="0" type="line"/>
      <point x="97" y="22"/>
      <point x="108" y="36" type="qcurve" smooth="yes"/>
      <point x="142" y="78"/>
      <point x="156" y="107" type="qcurve" smooth="yes"/>
      <point x="175" y="147"/>
      <point x="190" y="208"/>
      <point x="190" y="249" type="qcurve" smooth="yes"/>
      <point x="190" y="1239" type="line" smooth="yes"/>
      <point x="190" y="1300"/>
      <point x="174" y="1372"/>
      <point x="146" y="1417" type="qcurve" smooth="yes"/>
      <point x="134" y="1437"/>
      <point x="101" y="1470" type="qcurve" smooth="yes"/>
      <point x="91" y="1480"/>
      <point x="72" y="1498" type="qcurve"/>
      <point x="580" y="1498" type="line"/>
      <point x="567" y="1482"/>
      <point x="554" y="1466" type="qcurve" smooth="yes"/>
      <point x="523" y="1428"/>
      <point x="496" y="1370"/>
      <point x="470" y="1267"/>
      <point x="470" y="1217" type="qcurve" smooth="yes"/>
      <point x="470" y="914" type="line"/>
      <point x="509" y="911"/>
      <point x="626" y="907"/>
      <point x="694" y="907" type="qcurve" smooth="yes"/>
      <point x="766" y="907"/>
      <point x="911" y="913"/>
      <point x="957" y="916" type="qcurve"/>
      <point x="957" y="1277" type="line" smooth="yes"/>
      <point x="957" y="1323"/>
      <point x="936" y="1387"/>
      <point x="909" y="1427" type="qcurve" smooth="yes"/>
      <point x="897" y="1444"/>
      <point x="858" y="1481"/>
      <point x="840" y="1498" type="qcurve"/>
      <point x="1346" y="1498" type="line"/>
      <point x="1320" y="1474"/>
      <point x="1299" y="1446" type="qcurve" smooth="yes"/>
      <point x="1267" y="1402"/>
      <point x="1239" y="1329"/>
      <point x="1239" y="1280" type="qcurve" smooth="yes"/>
      <point x="1239" y="232" type="line" smooth="yes"/>
      <point x="1239" y="185"/>
      <point x="1250" y="131"/>
      <point x="1268" y="92" type="qcurve" smooth="yes"/>
      <point x="1281" y="64"/>
      <point x="1315" y="29" type="qcurve" smooth="yes"/>
      <point x="1326" y="18"/>
    </contour>
  </outline>
</glyph>
<glyph name="I" format="1">
  <advance width="675"/>
  <unicode hex="0049"/>
  <outline>
    <contour>
      <point x="594" y="0" type="qcurve"/>
      <point x="86" y="0" type="line"/>
      <point x="107" y="19"/>
      <point x="118" y="31" type="qcurve" smooth="yes"/>
      <point x="154" y="68"/>
      <point x="183" y="125"/>
      <point x="198" y="202"/>
      <point x="198" y="249" type="qcurve" smooth="yes"/>
      <point x="198" y="1235" type="line" smooth="yes"/>
      <point x="198" y="1293"/>
      <point x="181" y="1373"/>
      <point x="155" y="1417" type="qcurve" smooth="yes"/>
      <point x="139" y="1443"/>
      <point x="100" y="1482" type="qcurve" smooth="yes"/>
      <point x="94" y="1488"/>
      <point x="83" y="1498" type="qcurve"/>
      <point x="594" y="1498" type="line"/>
      <point x="574" y="1482"/>
      <point x="528" y="1430"/>
      <point x="517" y="1403" type="qcurve" smooth="yes"/>
      <point x="499" y="1360"/>
      <point x="490" y="1325" type="qcurve" smooth="yes"/>
      <point x="478" y="1278"/>
      <point x="478" y="1233" type="qcurve" smooth="yes"/>
      <point x="478" y="275" type="line" smooth="yes"/>
      <point x="478" y="214"/>
      <point x="494" y="140"/>
      <point x="522" y="85" type="qcurve" smooth="yes"/>
      <point x="534" y="60"/>
      <point x="564" y="28" type="qcurve" smooth="yes"/>
      <point x="574" y="17"/>
    </contour>
  </outline>
</glyph>
<glyph name="J" format="1">
  <advance width="1061"/>
  <unicode hex="004A"/>
  <outline>
    <contour>
      <point x="1003" y="1498" type="line"/>
      <point x="987" y="1486"/>
      <point x="967" y="1463" type="qcurve" smooth="yes"/>
      <point x="943" y="1436"/>
      <point x="932" y="1407" type="qcurve" smooth="yes"/>
      <point x="917" y="1369"/>
      <point x="896" y="1265"/>
      <point x="896" y="1213" type="qcurve" smooth="yes"/>
      <point x="896" y="433" type="line" smooth="yes"/>
      <point x="896" y="239"/>
      <point x="807" y="118" type="qcurve" smooth="yes"/>
      <point x="704" y="-22"/>
      <point x="508" y="-22" type="qcurve" smooth="yes"/>
      <point x="416" y="-22"/>
      <point x="340" y="-6" type="qcurve" smooth="yes"/>
      <point x="173" y="29"/>
      <point x="164" y="29" type="qcurve" smooth="yes"/>
      <point x="120" y="29"/>
      <point x="81" y="-18" type="qcurve" smooth="yes"/>
      <point x="75" y="-26"/>
      <point x="66" y="-41" type="qcurve"/>
      <point x="66" y="631" type="line"/>
      <point x="89" y="577"/>
      <point x="113" y="524" type="qcurve" smooth="yes"/>
      <point x="174" y="400"/>
      <point x="242" y="325" type="qcurve" smooth="yes"/>
      <point x="339" y="217"/>
      <point x="439" y="217" type="qcurve" smooth="yes"/>
      <point x="552" y="217"/>
      <point x="595" y="317" type="qcurve" smooth="yes"/>
      <point x="627" y="391"/>
      <point x="627" y="539" type="qcurve" smooth="yes"/>
      <point x="627" y="567"/>
      <point x="625" y="675"/>
      <point x="625" y="699" type="qcurve" smooth="yes"/>
      <point x="625" y="1237" type="line" smooth="yes"/>
      <point x="625" y="1293"/>
      <point x="608" y="1360"/>
      <point x="578" y="1417" type="qcurve" smooth="yes"/>
      <point x="563" y="1445"/>
      <point x="532" y="1474" type="qcurve" smooth="yes"/>
      <point x="522" y="1483"/>
      <point x="503" y="1498" type="qcurve"/>
    </contour>
  </outline>
</glyph>
<glyph name="K" format="1">
  <advance width="1522"/>
  <unicode hex="004B"/>
  <outline>
    <contour>
      <point x="1475" y="0" type="qcurve"/>
      <point x="926" y="0" type="line"/>
      <point x="950" y="33"/>
      <point x="956" y="44" type="qcurve" smooth="yes"/>
      <point x="968" y="67"/>
      <point x="968" y="100" type="qcurve" smooth="yes"/>
      <point x="968" y="152"/>
      <point x="947" y="219"/>
      <point x="919" y="273" type="qcurve" smooth="yes"/>
      <point x="663" y="751" type="line"/>
      <point x="470" y="538" type="line"/>
      <point x="470" y="275" type="line" smooth="yes"/>
      <point x="470" y="205"/>
      <point x="482" y="124"/>
      <point x="505" y="85" type="qcurve" smooth="yes"/>
      <point x="518" y="60"/>
      <point x="546" y="28" type="qcurve" smooth="yes"/>
      <point x="560" y="14"/>
      <point x="575" y="0" type="qcurve"/>
      <point x="77" y="0" type="line"/>
      <point x="101" y="18"/>
      <point x="113" y="29" type="qcurve" smooth="yes"/>
      <point x="151" y="63"/>
      <point x="163" y="92" type="qcurve" smooth="yes"/>
      <point x="179" y="127"/>
      <point x="190" y="199"/>
      <point x="190" y="249" type="qcurve" smooth="yes"/>
      <point x="190" y="1235" type="line" smooth="yes"/>
      <point x="190" y="1296"/>
      <point x="174" y="1373"/>
      <point x="146" y="1417" type="qcurve" smooth="yes"/>
      <point x="134" y="1437"/>
      <point x="101" y="1470" type="qcurve" smooth="yes"/>
      <point x="91" y="1480"/>
      <point x="72" y="1498" type="qcurve"/>
      <point x="580" y="1498" type="line"/>
      <point x="568" y="1481"/>
      <point x="556" y="1465" type="qcurve" smooth="yes"/>
      <point x="525" y="1424"/>
      <point x="497" y="1367"/>
      <point x="485" y="1320" type="qcurve" smooth="yes"/>
      <point x="470" y="1263"/>
      <point x="470" y="1213" type="qcurve" smooth="yes"/>
      <point x="470" y="885" type="line"/>
      <point x="816" y="1285" type="line" smooth="yes"/>
      <point x="849" y="1323"/>
      <point x="865" y="1353" type="qcurve" smooth="yes"/>
      <point x="885" y="1390"/>
      <point x="885" y="1427" type="qcurve" smooth="yes"/>
      <point x="885" y="1451"/>
      <point x="864" y="1480"/>
      <point x="840" y="1498" type="qcurve"/>
      <point x="1366" y="1498" type="line"/>
      <point x="1297" y="1446" type="line" smooth="yes"/>
      <point x="1234" y="1400"/>
      <point x="1190" y="1353" type="qcurve" smooth="yes"/>
      <point x="1167" y="1328"/>
      <point x="1122" y="1277" type="qcurve" smooth="yes"/>
      <point x="856" y="978" type="line"/>
      <point x="1146" y="441" type="line" smooth="yes"/>
      <point x="1194" y="351"/>
      <point x="1245" y="270" type="qcurve" smooth="yes"/>
      <point x="1287" y="204"/>
      <point x="1318" y="162" type="qcurve" smooth="yes"/>
      <point x="1342" y="131"/>
      <point x="1366" y="100" type="qcurve" smooth="yes"/>
      <point x="1396" y="63"/>
      <point x="1437" y="29" type="qcurve" smooth="yes"/>
      <point x="1451" y="17"/>
    </contour>
  </outline>
</glyph>
<glyph name="L" format="1">
  <advance width="1193"/>
  <unicode hex="004C"/>
  <outline>
    <contour>
      <point x="1131" y="-65" type="line" smooth="yes"/>
      <point x="1129" y="-60"/>
      <point x="1127" y="-55" type="qcurve" smooth="yes"/>
      <point x="1106" y="-25"/>
      <point x="1072" y="-14" type="qcurve" smooth="yes"/>
      <point x="1047" y="-7"/>
      <point x="996" y="0"/>
      <point x="968" y="0" type="qcurve" smooth="yes"/>
      <point x="77" y="0" type="line"/>
      <point x="98" y="19"/>
      <point x="109" y="31" type="qcurve" smooth="yes"/>
      <point x="145" y="68"/>
      <point x="158" y="93" type="qcurve" smooth="yes"/>
      <point x="176" y="127"/>
      <point x="190" y="200"/>
      <point x="190" y="249" type="qcurve" smooth="yes"/>
      <point x="190" y="1236" type="line" smooth="yes"/>
      <point x="190" y="1297"/>
      <point x="174" y="1374"/>
      <point x="146" y="1417" type="qcurve" smooth="yes"/>
      <point x="134" y="1437"/>
      <point x="101" y="1470" type="qcurve" smooth="yes"/>
      <point x="91" y="1480"/>
      <point x="72" y="1498" type="qcurve"/>
      <point x="580" y="1498" type="line"/>
      <point x="561" y="1481"/>
      <point x="517" y="1429"/>
      <point x="505" y="1403" type="qcurve" smooth="yes"/>
      <point x="488" y="1368"/>
      <point x="470" y="1271"/>
      <point x="470" y="1215" type="qcurve" smooth="yes"/>
      <point x="470" y="419" type="line" smooth="yes"/>
      <point x="470" y="291"/>
      <point x="535" y="247" type="qcurve" smooth="yes"/>
      <point x="579" y="217"/>
      <point x="680" y="217" type="qcurve" smooth="yes"/>
      <point x="835" y="217"/>
      <point x="952" y="315" type="qcurve" smooth="yes"/>
      <point x="1034" y="384"/>
      <point x="1091" y="497" type="qcurve"/>
      <point x="1111" y="546"/>
      <point x="1131" y="595" type="qcurve"/>
    </contour>
  </outline>
</glyph>
<glyph name="M" format="1">
  <advance width="1805"/>
  <unicode hex="004D"/>
  <outline>
    <contour>
      <point x="1751" y="0" type="qcurve" smooth="yes"/>
      <point x="1236" y="0" type="line"/>
      <point x="1256" y="12"/>
      <point x="1266" y="21" type="qcurve" smooth="yes"/>
      <point x="1298" y="48"/>
      <point x="1312" y="75" type="qcurve" smooth="yes"/>
      <point x="1349" y="145"/>
      <point x="1349" y="249" type="qcurve" smooth="yes"/>
      <point x="1349" y="1088" type="line"/>
      <point x="1105" y="216" type="line" smooth="yes"/>
      <point x="1091" y="171"/>
      <point x="1063" y="75"/>
      <point x="1063" y="51" type="qcurve" smooth="yes"/>
      <point x="1064" y="43"/>
      <point x="1064" y="39" type="qcurve" smooth="yes"/>
      <point x="1065" y="30"/>
      <point x="1074" y="9" type="qcurve" smooth="yes"/>
      <point x="1075" y="6"/>
      <point x="1078" y="0" type="qcurve"/>
      <point x="715" y="0" type="line"/>
      <point x="732" y="24"/>
      <point x="732" y="53" type="qcurve" smooth="yes"/>
      <point x="732" y="61"/>
      <point x="727" y="76"/>
      <point x="724" y="85" type="qcurve" smooth="yes"/>
      <point x="439" y="1083" type="line"/>
      <point x="439" y="237" type="line" smooth="yes"/>
      <point x="439" y="197"/>
      <point x="452" y="142"/>
      <point x="471" y="103" type="qcurve" smooth="yes"/>
      <point x="485" y="76"/>
      <point x="509" y="50" type="qcurve" smooth="yes"/>
      <point x="548" y="8"/>
      <point x="554" y="0" type="qcurve"/>
      <point x="81" y="0" type="line"/>
      <point x="139" y="47"/>
      <point x="165" y="120" type="qcurve" smooth="yes"/>
      <point x="173" y="143"/>
      <point x="179" y="191"/>
      <point x="179" y="217" type="qcurve" smooth="yes"/>
      <point x="179" y="1290" type="line" smooth="yes"/>
      <point x="179" y="1329"/>
      <point x="165" y="1379"/>
      <point x="144" y="1419" type="qcurve" smooth="yes"/>
      <point x="132" y="1439"/>
      <point x="96" y="1478"/>
      <point x="78" y="1498" type="qcurve"/>
      <point x="653" y="1498" type="line"/>
      <point x="642" y="1481"/>
      <point x="631" y="1454"/>
      <point x="631" y="1436" type="qcurve" smooth="yes"/>
      <point x="631" y="1427"/>
      <point x="631" y="1406"/>
      <point x="636" y="1390" type="qcurve" smooth="yes"/>
      <point x="910" y="429" type="line"/>
      <point x="1176" y="1366" type="line" smooth="yes"/>
      <point x="1177" y="1369"/>
      <point x="1187" y="1399" type="qcurve" smooth="yes"/>
      <point x="1193" y="1417"/>
      <point x="1193" y="1434" type="qcurve" smooth="yes"/>
      <point x="1193" y="1451"/>
      <point x="1180" y="1484" type="qcurve" smooth="yes"/>
      <point x="1178" y="1489"/>
      <point x="1174" y="1498" type="qcurve"/>
      <point x="1739" y="1498" type="line"/>
      <point x="1721" y="1481"/>
      <point x="1676" y="1428"/>
      <point x="1664" y="1403" type="qcurve" smooth="yes"/>
      <point x="1629" y="1328"/>
      <point x="1629" y="1213" type="qcurve" smooth="yes"/>
      <point x="1629" y="275" type="line" smooth="yes"/>
      <point x="1629" y="215"/>
      <point x="1645" y="141"/>
      <point x="1673" y="82" type="qcurve" smooth="yes"/>
      <point x="1687" y="52"/>
      <point x="1719" y="23" type="qcurve" smooth="yes"/>
      <point x="1748" y="-3"/>
    </contour>
  </outline>
</glyph>
<glyph name="N" format="1">
  <advance width="1376"/>
  <unicode hex="004E"/>
  <outline>
    <contour>
      <point x="1322" y="1498" type="line"/>
      <point x="1318" y="1502"/>
      <point x="1290" y="1473" type="qcurve" smooth="yes"/>
      <point x="1259" y="1440"/>
      <point x="1224" y="1367"/>
      <point x="1204" y="1272"/>
      <point x="1204" y="1215" type="qcurve" smooth="yes"/>
      <point x="1204" y="217" type="line" smooth="yes"/>
      <point x="1204" y="173"/>
      <point x="1209" y="44"/>
      <point x="1209" y="39" type="qcurve" smooth="yes"/>
      <point x="1209" y="27"/>
      <point x="1218" y="9" type="qcurve" smooth="yes"/>
      <point x="1219" y="6"/>
      <point x="1223" y="0" type="qcurve"/>
      <point x="840" y="0" type="line"/>
      <point x="857" y="21"/>
      <point x="857" y="53" type="qcurve" smooth="yes"/>
      <point x="857" y="71"/>
      <point x="854" y="86"/>
      <point x="848" y="100" type="qcurve" smooth="yes"/>
      <point x="427" y="1041" type="line"/>
      <point x="427" y="237" type="line" smooth="yes"/>
      <point x="427" y="197"/>
      <point x="440" y="142"/>
      <point x="459" y="103" type="qcurve" smooth="yes"/>
      <point x="474" y="70"/>
      <point x="507" y="26"/>
      <point x="535" y="0" type="qcurve"/>
      <point x="69" y="0" type="line"/>
      <point x="100" y="30"/>
      <point x="138" y="83"/>
      <point x="168" y="162"/>
      <point x="176" y="231"/>
      <point x="176" y="292" type="qcurve" smooth="yes"/>
      <point x="176" y="1222" type="line" smooth="yes"/>
      <point x="176" y="1286"/>
      <point x="159" y="1369"/>
      <point x="130" y="1419" type="qcurve" smooth="yes"/>
      <point x="119" y="1440"/>
      <point x="101" y="1459" type="qcurve" smooth="yes"/>
      <point x="67" y="1497"/>
      <point x="66" y="1498" type="qcurve" smooth="yes"/>
      <point x="581" y="1498" type="line"/>
      <point x="570" y="1483"/>
      <point x="559" y="1453"/>
      <point x="559" y="1436" type="qcurve" smooth="yes"/>
      <point x="559" y="1413"/>
      <point x="567" y="1391" type="qcurve" smooth="yes"/>
      <point x="571" y="1380"/>
      <point x="586" y="1349" type="qcurve" smooth="yes"/>
      <point x="962" y="519" type="line"/>
      <point x="962" y="1229" type="line" smooth="yes"/>
      <point x="962" y="1269"/>
      <point x="951" y="1318" type="qcurve" smooth="yes"/>
      <point x="936" y="1384"/>
      <point x="906" y="1430" type="qcurve" smooth="yes"/>
      <point x="895" y="1446"/>
      <point x="863" y="1483" type="qcurve" smooth="yes"/>
      <point x="858" y="1488"/>
      <point x="850" y="1498" type="qcurve"/>
    </contour>
  </outline>
</glyph>
<glyph name="O" format="1">
  <advance width="1329"/>
  <unicode hex="004F"/>
  <outline>
    <contour>
      <point x="1265" y="749" type="qcurve" smooth="yes"/>
      <point x="1265" y="539"/>
      <point x="1219" y="384" type="qcurve" smooth="yes"/>
      <point x="1163" y="197"/>
      <point x="1044" y="97" type="qcurve" smooth="yes"/>
      <point x="905" y="-19"/>
      <point x="681" y="-19" type="qcurve" smooth="yes"/>
      <point x="438" y="-19"/>
      <point x="295" y="97" type="qcurve" smooth="yes"/>
      <point x="171" y="197"/>
      <point x="119" y="385" type="qcurve" smooth="yes"/>
      <point x="78" y="533"/>
      <point x="78" y="756" type="qcurve" smooth="yes"/>
      <point x="78" y="968"/>
      <point x="128" y="1124" type="qcurve" smooth="yes"/>
      <point x="187" y="1309"/>
      <point x="314" y="1409" type="qcurve" smooth="yes"/>
      <point x="459" y="1524"/>
      <point x="688" y="1524" type="qcurve" smooth="yes"/>
      <point x="924" y="1524"/>
      <point x="1061" y="1407" type="qcurve" smooth="yes"/>
      <point x="1178" y="1307"/>
      <point x="1227" y="1116" type="qcurve" smooth="yes"/>
      <point x="1265" y="968"/>
    </contour>
    <contour>
      <point x="978" y="802" type="qcurve" smooth="yes"/>
      <point x="978" y="949"/>
      <point x="965" y="1024" type="qcurve" smooth="yes"/>
      <point x="944" y="1144"/>
      <point x="885" y="1208" type="qcurve" smooth="yes"/>
      <point x="813" y="1285"/>
      <point x="681" y="1285" type="qcurve" smooth="yes"/>
      <point x="516" y="1285"/>
      <point x="433" y="1107" type="qcurve" smooth="yes"/>
      <point x="366" y="963"/>
      <point x="366" y="746" type="qcurve" smooth="yes"/>
      <point x="366" y="594"/>
      <point x="382" y="503" type="qcurve" smooth="yes"/>
      <point x="406" y="370"/>
      <point x="467" y="300" type="qcurve" smooth="yes"/>
      <point x="541" y="216"/>
      <point x="676" y="216" type="qcurve" smooth="yes"/>
      <point x="797" y="216"/>
      <point x="870" y="310" type="qcurve" smooth="yes"/>
      <point x="932" y="390"/>
      <point x="958" y="534" type="qcurve" smooth="yes"/>
      <point x="978" y="644"/>
    </contour>
  </outline>
</glyph>
<glyph name="P" format="1">
  <advance width="1258"/>
  <unicode hex="0050"/>
  <outline>
    <contour>
      <point x="1205" y="1065" type="qcurve" smooth="yes"/>
      <point x="1205" y="870"/>
      <point x="1087" y="759" type="qcurve" smooth="yes"/>
      <point x="987" y="664"/>
      <point x="798" y="627" type="qcurve" smooth="yes"/>
      <point x="624" y="590" type="line" smooth="yes"/>
      <point x="574" y="581"/>
      <point x="492" y="550"/>
      <point x="468" y="529" type="qcurve" smooth="yes"/>
      <point x="459" y="521"/>
      <point x="452" y="488"/>
      <point x="452" y="466" type="qcurve" smooth="yes"/>
      <point x="452" y="302" type="line" smooth="yes"/>
      <point x="452" y="231"/>
      <point x="466" y="146"/>
      <point x="493" y="93" type="qcurve" smooth="yes"/>
      <point x="509" y="60"/>
      <point x="544" y="25" type="qcurve" smooth="yes"/>
      <point x="558" y="12"/>
      <point x="573" y="0" type="qcurve"/>
      <point x="78" y="0" type="line"/>
      <point x="96" y="22"/>
      <point x="105" y="35" type="qcurve" smooth="yes"/>
      <point x="135" y="76"/>
      <point x="146" y="103" type="qcurve" smooth="yes"/>
      <point x="163" y="143"/>
      <point x="174" y="209"/>
      <point x="174" y="258" type="qcurve" smooth="yes"/>
      <point x="174" y="1095" type="line" smooth="yes"/>
      <point x="174" y="1122"/>
      <point x="176" y="1216"/>
      <point x="176" y="1237" type="qcurve" smooth="yes"/>
      <point x="176" y="1306"/>
      <point x="162" y="1398"/>
      <point x="120" y="1451" type="qcurve" smooth="yes"/>
      <point x="106" y="1469"/>
      <point x="78" y="1498" type="qcurve"/>
      <point x="100" y="1494"/>
      <point x="270" y="1487"/>
      <point x="347" y="1487" type="qcurve" smooth="yes"/>
      <point x="396" y="1487"/>
      <point x="464" y="1491" type="qcurve" smooth="yes"/>
      <point x="617" y="1500"/>
      <point x="660" y="1500" type="qcurve" smooth="yes"/>
      <point x="833" y="1500"/>
      <point x="939" y="1468" type="qcurve" smooth="yes"/>
      <point x="1068" y="1429"/>
      <point x="1133" y="1338" type="qcurve" smooth="yes"/>
      <point x="1205" y="1238"/>
    </contour>
    <contour>
      <point x="925" y="1085" type="qcurve" smooth="yes"/>
      <point x="925" y="1178"/>
      <point x="791" y="1280"/>
      <point x="676" y="1280" type="qcurve" smooth="yes"/>
      <point x="533" y="1280"/>
      <point x="490" y="1224" type="qcurve" smooth="yes"/>
      <point x="452" y="1174"/>
      <point x="452" y="1065" type="qcurve" smooth="yes"/>
      <point x="452" y="780" type="line"/>
      <point x="456" y="783"/>
      <point x="459" y="784" type="qcurve" smooth="yes"/>
      <point x="484" y="797"/>
      <point x="524" y="811" type="qcurve"/>
      <point x="594" y="825"/>
      <point x="664" y="839" type="qcurve" smooth="yes"/>
      <point x="780" y="863"/>
      <point x="839" y="907" type="qcurve" smooth="yes"/>
      <point x="925" y="971"/>
    </contour>
  </outline>
</glyph>
<glyph name="Q" format="1">
  <advance width="1310"/>
  <unicode hex="0051"/>
  <outline>
    <contour>
      <point x="1248" y="799" type="qcurve" smooth="yes"/>
      <point x="1248" y="548"/>
      <point x="1201" y="385" type="qcurve" smooth="yes"/>
      <point x="1162" y="250"/>
      <point x="1084" y="161" type="qcurve" smooth="yes"/>
      <point x="1033" y="103"/>
      <point x="931" y="36" type="qcurve"/>
      <point x="960" y="7" type="line" smooth="yes"/>
      <point x="966" y="1"/>
      <point x="996" y="-40" type="qcurve" smooth="yes"/>
      <point x="1036" y="-95"/>
      <point x="1095" y="-95" type="qcurve" smooth="yes"/>
      <point x="1135" y="-95"/>
      <point x="1181" y="-55" type="qcurve" smooth="yes"/>
      <point x="1196" y="-42"/>
      <point x="1219" y="-14" type="qcurve"/>
      <point x="1224" y="-18"/>
      <point x="1233" y="-63" type="qcurve" smooth="yes"/>
      <point x="1239" y="-94"/>
      <point x="1239" y="-110" type="qcurve" smooth="yes"/>
      <point x="1239" y="-196"/>
      <point x="1107" y="-324"/>
      <point x="1017" y="-324" type="qcurve" smooth="yes"/>
      <point x="900" y="-324"/>
      <point x="822" y="-244" type="qcurve"/>
      <point x="765" y="-169"/>
      <point x="708" y="-94" type="qcurve" smooth="yes"/>
      <point x="640" y="-12"/>
      <point x="553" y="-12" type="qcurve" smooth="yes"/>
      <point x="460" y="-12"/>
      <point x="391" y="-108" type="qcurve" smooth="yes"/>
      <point x="328" y="-196"/>
      <point x="343" y="-209" type="qcurve"/>
      <point x="271" y="-164"/>
      <point x="263" y="-75" type="qcurve" smooth="yes"/>
      <point x="263" y="-38"/>
      <point x="302" y="36"/>
      <point x="321" y="72" type="qcurve"/>
      <point x="190" y="166"/>
      <point x="136" y="289" type="qcurve" smooth="yes"/>
      <point x="72" y="435"/>
      <point x="72" y="699" type="qcurve" smooth="yes"/>
      <point x="72" y="913"/>
      <point x="109" y="1065" type="qcurve" smooth="yes"/>
      <point x="160" y="1273"/>
      <point x="278" y="1387" type="qcurve" smooth="yes"/>
      <point x="420" y="1524"/>
      <point x="660" y="1524" type="qcurve" smooth="yes"/>
      <point x="914" y="1524"/>
      <point x="1057" y="1401" type="qcurve" smooth="yes"/>
      <point x="1173" y="1301"/>
      <point x="1218" y="1117" type="qcurve" smooth="yes"/>
      <point x="1248" y="993"/>
    </contour>
    <contour>
      <point x="966" y="804" type="qcurve" smooth="yes"/>
      <point x="966" y="945"/>
      <point x="951" y="1026" type="qcurve" smooth="yes"/>
      <point x="929" y="1146"/>
      <point x="870" y="1210" type="qcurve" smooth="yes"/>
      <point x="799" y="1287"/>
      <point x="672" y="1287" type="qcurve" smooth="yes"/>
      <point x="550" y="1287"/>
      <point x="475" y="1195" type="qcurve" smooth="yes"/>
      <point x="413" y="1118"/>
      <point x="384" y="974" type="qcurve" smooth="yes"/>
      <point x="361" y="858"/>
      <point x="361" y="712" type="qcurve" smooth="yes"/>
      <point x="361" y="578"/>
      <point x="375" y="496" type="qcurve" smooth="yes"/>
      <point x="396" y="371"/>
      <point x="454" y="305" type="qcurve" smooth="yes"/>
      <point x="526" y="222"/>
      <point x="656" y="222" type="qcurve" smooth="yes"/>
      <point x="783" y="222"/>
      <point x="857" y="309" type="qcurve" smooth="yes"/>
      <point x="920" y="383"/>
      <point x="946" y="526" type="qcurve" smooth="yes"/>
      <point x="966" y="635"/>
    </contour>
  </outline>
</glyph>
<glyph name="R" format="1">
  <advance width="1376"/>
  <unicode hex="0052"/>
  <outline>
    <contour>
      <point x="1312" y="0" type="qcurve"/>
      <point x="1069" y="0" type="line" smooth="yes"/>
      <point x="1030" y="0"/>
      <point x="974" y="21"/>
      <point x="927" y="73"/>
      <point x="910" y="128"/>
      <point x="910" y="165" type="qcurve" smooth="yes"/>
      <point x="910" y="321" type="line" smooth="yes"/>
      <point x="910" y="488"/>
      <point x="838" y="558" type="qcurve" smooth="yes"/>
      <point x="760" y="634"/>
      <point x="564" y="634" type="qcurve"/>
      <point x="452" y="629" type="line"/>
      <point x="452" y="302" type="line" smooth="yes"/>
      <point x="452" y="231"/>
      <point x="466" y="146"/>
      <point x="493" y="93" type="qcurve" smooth="yes"/>
      <point x="509" y="60"/>
      <point x="544" y="25" type="qcurve" smooth="yes"/>
      <point x="558" y="12"/>
      <point x="573" y="0" type="qcurve"/>
      <point x="78" y="0" type="line"/>
      <point x="96" y="22"/>
      <point x="105" y="35" type="qcurve" smooth="yes"/>
      <point x="135" y="76"/>
      <point x="146" y="103" type="qcurve" smooth="yes"/>
      <point x="163" y="143"/>
      <point x="174" y="209"/>
      <point x="174" y="258" type="qcurve" smooth="yes"/>
      <point x="174" y="1095" type="line" smooth="yes"/>
      <point x="174" y="1210"/>
      <point x="164" y="1353"/>
      <point x="144" y="1397" type="qcurve" smooth="yes"/>
      <point x="131" y="1426"/>
      <point x="103" y="1465" type="qcurve" smooth="yes"/>
      <point x="94" y="1478"/>
      <point x="78" y="1498" type="qcurve"/>
      <point x="108" y="1495"/>
      <point x="212" y="1487"/>
      <point x="347" y="1487" type="qcurve" smooth="yes"/>
      <point x="397" y="1487"/>
      <point x="464" y="1491" type="qcurve" smooth="yes"/>
      <point x="616" y="1500"/>
      <point x="658" y="1500" type="qcurve" smooth="yes"/>
      <point x="919" y="1500"/>
      <point x="1063" y="1409" type="qcurve" smooth="yes"/>
      <point x="1227" y="1305"/>
      <point x="1227" y="1090" type="qcurve" smooth="yes"/>
      <point x="1227" y="954"/>
      <point x="1149" y="861" type="qcurve" smooth="yes"/>
      <point x="1087" y="787"/>
      <point x="978" y="744" type="qcurve"/>
      <point x="1010" y="727"/>
      <point x="1028" y="715" type="qcurve" smooth="yes"/>
      <point x="1083" y="678"/>
      <point x="1105" y="644" type="qcurve" smooth="yes"/>
      <point x="1149" y="572"/>
      <point x="1169" y="460" type="qcurve"/>
      <point x="1182" y="363"/>
      <point x="1195" y="266" type="qcurve" smooth="yes"/>
      <point x="1212" y="154"/>
      <point x="1248" y="85" type="qcurve" smooth="yes"/>
      <point x="1259" y="63"/>
      <point x="1286" y="30" type="qcurve" smooth="yes"/>
      <point x="1295" y="19"/>
    </contour>
    <contour>
      <point x="944" y="1088" type="qcurve" smooth="yes"/>
      <point x="944" y="1275"/>
      <point x="676" y="1275" type="qcurve" smooth="yes"/>
      <point x="561" y="1275"/>
      <point x="518" y="1253" type="qcurve" smooth="yes"/>
      <point x="452" y="1219"/>
      <point x="452" y="1117" type="qcurve" smooth="yes"/>
      <point x="452" y="873" type="line"/>
      <point x="538" y="873" type="line" smooth="yes"/>
      <point x="545" y="873"/>
      <point x="591" y="871"/>
      <point x="604" y="871" type="qcurve" smooth="yes"/>
      <point x="685" y="871"/>
      <point x="743" y="883" type="qcurve" smooth="yes"/>
      <point x="831" y="901"/>
      <point x="881" y="944" type="qcurve" smooth="yes"/>
      <point x="944" y="998"/>
    </contour>
  </outline>
</glyph>
<glyph name="S" format="1">
  <advance width="1106"/>
  <unicode hex="0053"/>
  <outline>
    <contour>
      <point x="1055" y="458" type="qcurve" smooth="yes"/>
      <point x="1055" y="256"/>
      <point x="777" y="-22"/>
      <point x="567" y="-22" type="qcurve" smooth="yes"/>
      <point x="461" y="-22"/>
      <point x="307" y="12"/>
      <point x="231" y="31" type="qcurve"/>
      <point x="167" y="31"/>
      <point x="123" y="9" type="qcurve"/>
      <point x="94" y="-15"/>
      <point x="65" y="-39" type="qcurve"/>
      <point x="65" y="586" type="line"/>
      <point x="95" y="538"/>
      <point x="126" y="490" type="qcurve" smooth="yes"/>
      <point x="204" y="382"/>
      <point x="291" y="314" type="qcurve" smooth="yes"/>
      <point x="412" y="220"/>
      <point x="536" y="220" type="qcurve" smooth="yes"/>
      <point x="641" y="220"/>
      <point x="759" y="333"/>
      <point x="767" y="426" type="qcurve"/>
      <point x="767" y="487"/>
      <point x="731" y="535" type="qcurve" smooth="yes"/>
      <point x="701" y="574"/>
      <point x="641" y="610" type="qcurve" smooth="yes"/>
      <point x="610" y="628"/>
      <point x="525" y="668" type="qcurve" smooth="yes"/>
      <point x="421" y="715" type="line" smooth="yes"/>
      <point x="273" y="785"/>
      <point x="199" y="868" type="qcurve" smooth="yes"/>
      <point x="109" y="970"/>
      <point x="109" y="1112" type="qcurve" smooth="yes"/>
      <point x="109" y="1293"/>
      <point x="259" y="1412" type="qcurve" smooth="yes"/>
      <point x="397" y="1521"/>
      <point x="575" y="1521" type="qcurve" smooth="yes"/>
      <point x="737" y="1521"/>
      <point x="810" y="1493" type="qcurve" smooth="yes"/>
      <point x="844" y="1480"/>
      <point x="884" y="1480" type="qcurve" smooth="yes"/>
      <point x="914" y="1480"/>
      <point x="950" y="1493" type="qcurve" smooth="yes"/>
      <point x="997" y="1510"/>
      <point x="1008" y="1521" type="qcurve"/>
      <point x="1008" y="956" type="line"/>
      <point x="1012" y="960"/>
      <point x="959" y="1039" type="qcurve" smooth="yes"/>
      <point x="894" y="1138"/>
      <point x="820" y="1197" type="qcurve" smooth="yes"/>
      <point x="714" y="1282"/>
      <point x="599" y="1282" type="qcurve" smooth="yes"/>
      <point x="521" y="1282"/>
      <point x="465" y="1243" type="qcurve" smooth="yes"/>
      <point x="403" y="1200"/>
      <point x="403" y="1131" type="qcurve" smooth="yes"/>
      <point x="403" y="1040"/>
      <point x="494" y="985" type="qcurve" smooth="yes"/>
      <point x="515" y="972"/>
      <point x="601" y="931" type="qcurve" smooth="yes"/>
      <point x="782" y="844" type="line" smooth="yes"/>
      <point x="945" y="767"/>
      <point x="1004" y="668" type="qcurve" smooth="yes"/>
      <point x="1055" y="583"/>
    </contour>
  </outline>
</glyph>
<glyph name="T" format="1">
  <advance width="1298"/>
  <unicode hex="0054"/>
  <outline>
    <contour>
      <point x="1252" y="926" type="line" smooth="yes"/>
      <point x="1252" y="939"/>
      <point x="1219" y="1013" type="qcurve" smooth="yes"/>
      <point x="1172" y="1119"/>
      <point x="1110" y="1184" type="qcurve" smooth="yes"/>
      <point x="1022" y="1277"/>
      <point x="913" y="1277" type="qcurve" smooth="yes"/>
      <point x="868" y="1277"/>
      <point x="805" y="1214"/>
      <point x="805" y="1168" type="qcurve" smooth="yes"/>
      <point x="805" y="283" type="line" smooth="yes"/>
      <point x="805" y="223"/>
      <point x="820" y="133"/>
      <point x="838" y="98" type="qcurve" smooth="yes"/>
      <point x="853" y="72"/>
      <point x="889" y="34" type="qcurve" smooth="yes"/>
      <point x="905" y="17"/>
      <point x="922" y="0" type="qcurve"/>
      <point x="423" y="0" type="line"/>
      <point x="441" y="22"/>
      <point x="451" y="35" type="qcurve" smooth="yes"/>
      <point x="483" y="77"/>
      <point x="508" y="135"/>
      <point x="516" y="192"/>
      <point x="516" y="285" type="qcurve" smooth="yes"/>
      <point x="516" y="1143" type="line" smooth="yes"/>
      <point x="516" y="1202"/>
      <point x="494" y="1232" type="qcurve" smooth="yes"/>
      <point x="467" y="1270"/>
      <point x="401" y="1270" type="qcurve" smooth="yes"/>
      <point x="298" y="1270"/>
      <point x="212" y="1181" type="qcurve" smooth="yes"/>
      <point x="151" y="1118"/>
      <point x="103" y="1016" type="qcurve" smooth="yes"/>
      <point x="63" y="932"/>
      <point x="66" y="928" type="qcurve" smooth="yes"/>
      <point x="66" y="1550" type="line"/>
      <point x="73" y="1542"/>
      <point x="79" y="1538" type="qcurve" smooth="yes"/>
      <point x="98" y="1522"/>
      <point x="142" y="1504"/>
      <point x="176" y="1498"/>
      <point x="198" y="1498" type="qcurve" smooth="yes"/>
      <point x="1104" y="1498" type="line" smooth="yes"/>
      <point x="1115" y="1498"/>
      <point x="1120" y="1498" type="qcurve" smooth="yes"/>
      <point x="1152" y="1498"/>
      <point x="1191" y="1505"/>
      <point x="1213" y="1519" type="qcurve" smooth="yes"/>
      <point x="1232" y="1528"/>
      <point x="1246" y="1540" type="qcurve" smooth="yes"/>
      <point x="1249" y="1545"/>
      <point x="1252" y="1550" type="qcurve" smooth="yes"/>
    </contour>
  </outline>
</glyph>
<glyph name="U" format="1">
  <advance width="1382"/>
  <unicode hex="0055"/>
  <outline>
    <contour>
      <point x="1326" y="1498" type="line"/>
      <point x="1308" y="1479"/>
      <point x="1298" y="1467" type="qcurve" smooth="yes"/>
      <point x="1266" y="1430"/>
      <point x="1238" y="1372"/>
      <point x="1224" y="1279"/>
      <point x="1224" y="1227" type="qcurve" smooth="yes"/>
      <point x="1224" y="514" type="line" smooth="yes"/>
      <point x="1224" y="274"/>
      <point x="1108" y="137" type="qcurve" smooth="yes"/>
      <point x="973" y="-22"/>
      <point x="694" y="-22" type="qcurve" smooth="yes"/>
      <point x="433" y="-22"/>
      <point x="173" y="227"/>
      <point x="173" y="483" type="qcurve" smooth="yes"/>
      <point x="173" y="1242" type="line" smooth="yes"/>
      <point x="173" y="1294"/>
      <point x="157" y="1368"/>
      <point x="134" y="1413" type="qcurve" smooth="yes"/>
      <point x="125" y="1431"/>
      <point x="107" y="1456" type="qcurve" smooth="yes"/>
      <point x="89" y="1477"/>
      <point x="72" y="1498" type="qcurve"/>
      <point x="555" y="1498" type="line"/>
      <point x="539" y="1480"/>
      <point x="530" y="1470" type="qcurve" smooth="yes"/>
      <point x="502" y="1437"/>
      <point x="493" y="1415" type="qcurve" smooth="yes"/>
      <point x="472" y="1362"/>
      <point x="450" y="1263"/>
      <point x="450" y="1227" type="qcurve" smooth="yes"/>
      <point x="450" y="500" type="line" smooth="yes"/>
      <point x="450" y="371"/>
      <point x="494" y="305" type="qcurve" smooth="yes"/>
      <point x="552" y="217"/>
      <point x="692" y="217" type="qcurve" smooth="yes"/>
      <point x="829" y="217"/>
      <point x="894" y="307" type="qcurve" smooth="yes"/>
      <point x="948" y="382"/>
      <point x="948" y="510" type="qcurve" smooth="yes"/>
      <point x="948" y="1252" type="line" smooth="yes"/>
      <point x="948" y="1290"/>
      <point x="935" y="1348"/>
      <point x="919" y="1388" type="qcurve" smooth="yes"/>
      <point x="905" y="1419"/>
      <point x="874" y="1461" type="qcurve" smooth="yes"/>
      <point x="864" y="1475"/>
      <point x="844" y="1498" type="qcurve"/>
    </contour>
  </outline>
</glyph>
<glyph name="V" format="1">
  <advance width="1560"/>
  <unicode hex="0056"/>
  <outline>
    <contour>
      <point x="1504" y="1498" type="line"/>
      <point x="1481" y="1480"/>
      <point x="1468" y="1465" type="qcurve" smooth="yes"/>
      <point x="1427" y="1420"/>
      <point x="1397" y="1357" type="qcurve" smooth="yes"/>
      <point x="1361" y="1278"/>
      <point x="1359" y="1273" type="qcurve" smooth="yes"/>
      <point x="1334" y="1214"/>
      <point x="1302" y="1114" type="qcurve" smooth="yes"/>
      <point x="972" y="134" type="line" smooth="yes"/>
      <point x="963" y="107"/>
      <point x="954" y="66"/>
      <point x="954" y="51" type="qcurve" smooth="yes"/>
      <point x="952" y="39"/>
      <point x="961" y="25" type="qcurve" smooth="yes"/>
      <point x="975" y="4"/>
      <point x="982" y="0" type="qcurve"/>
      <point x="546" y="0" type="line"/>
      <point x="560" y="8"/>
      <point x="566" y="13" type="qcurve" smooth="yes"/>
      <point x="586" y="31"/>
      <point x="584" y="51" type="qcurve" smooth="yes"/>
      <point x="584" y="77"/>
      <point x="578" y="102" type="qcurve" smooth="yes"/>
      <point x="577" y="107"/>
      <point x="569" y="133" type="qcurve" smooth="yes"/>
      <point x="225" y="1235" type="line" smooth="yes"/>
      <point x="212" y="1277"/>
      <point x="190" y="1319" type="qcurve" smooth="yes"/>
      <point x="185" y="1328"/>
      <point x="162" y="1368" type="qcurve" smooth="yes"/>
      <point x="143" y="1401"/>
      <point x="106" y="1453" type="qcurve" smooth="yes"/>
      <point x="94" y="1470"/>
      <point x="72" y="1498" type="qcurve"/>
      <point x="587" y="1498" type="line"/>
      <point x="563" y="1475"/>
      <point x="551" y="1458" type="qcurve" smooth="yes"/>
      <point x="514" y="1406"/>
      <point x="514" y="1353" type="qcurve" smooth="yes"/>
      <point x="514" y="1287"/>
      <point x="524" y="1221"/>
      <point x="538" y="1175" type="qcurve" smooth="yes"/>
      <point x="787" y="345" type="line"/>
      <point x="1062" y="1209" type="line" smooth="yes"/>
      <point x="1072" y="1242"/>
      <point x="1079" y="1296"/>
      <point x="1079" y="1334" type="qcurve" smooth="yes"/>
      <point x="1079" y="1400"/>
      <point x="1049" y="1456" type="qcurve"/>
      <point x="1033" y="1477"/>
      <point x="1017" y="1498" type="qcurve"/>
    </contour>
  </outline>
</glyph>
<glyph name="W" format="1">
  <advance width="2080"/>
  <unicode hex="0057"/>
  <outline>
    <contour>
      <point x="2024" y="1498" type="line"/>
      <point x="1993" y="1453"/>
      <point x="1980" y="1433" type="qcurve" smooth="yes"/>
      <point x="1958" y="1398"/>
      <point x="1943" y="1363" type="qcurve" smooth="yes"/>
      <point x="1917" y="1305"/>
      <point x="1906" y="1277" type="qcurve" smooth="yes"/>
      <point x="1887" y="1228"/>
      <point x="1876" y="1175" type="qcurve" smooth="yes"/>
      <point x="1643" y="115" type="line" smooth="yes"/>
      <point x="1641" y="99"/>
      <point x="1637" y="73"/>
      <point x="1637" y="68" type="qcurve" smooth="yes"/>
      <point x="1637" y="32"/>
      <point x="1658" y="0" type="qcurve"/>
      <point x="1264" y="0" type="line"/>
      <point x="1268" y="10"/>
      <point x="1272" y="21" type="qcurve" smooth="yes"/>
      <point x="1280" y="49"/>
      <point x="1277" y="65" type="qcurve" smooth="yes"/>
      <point x="1276" y="80"/>
      <point x="1270" y="99" type="qcurve" smooth="yes"/>
      <point x="1261" y="131"/>
      <point x="1259" y="139" type="qcurve" smooth="yes"/>
      <point x="1048" y="1046" type="line"/>
      <point x="819" y="135" type="line" smooth="yes"/>
      <point x="804" y="82"/>
      <point x="807" y="51" type="qcurve" smooth="yes"/>
      <point x="807" y="22"/>
      <point x="821" y="8" type="qcurve" smooth="yes"/>
      <point x="825" y="4"/>
      <point x="835" y="0" type="qcurve"/>
      <point x="413" y="0" type="line"/>
      <point x="425" y="12"/>
      <point x="430" y="19" type="qcurve" smooth="yes"/>
      <point x="447" y="42"/>
      <point x="447" y="63" type="qcurve" smooth="yes"/>
      <point x="445" y="86"/>
      <point x="442" y="99" type="qcurve" smooth="yes"/>
      <point x="435" y="131"/>
      <point x="435" y="133" type="qcurve" smooth="yes"/>
      <point x="204" y="1235" type="line" smooth="yes"/>
      <point x="197" y="1268"/>
      <point x="189" y="1292" type="qcurve" smooth="yes"/>
      <point x="187" y="1298"/>
      <point x="152" y="1380" type="qcurve" smooth="yes"/>
      <point x="139" y="1413"/>
      <point x="104" y="1459" type="qcurve" smooth="yes"/>
      <point x="93" y="1474"/>
      <point x="72" y="1498" type="qcurve"/>
      <point x="580" y="1498" type="line"/>
      <point x="553" y="1473"/>
      <point x="539" y="1456" type="qcurve" smooth="yes"/>
      <point x="496" y="1404"/>
      <point x="490" y="1356" type="qcurve" smooth="yes"/>
      <point x="489" y="1347"/>
      <point x="488" y="1331"/>
      <point x="488" y="1319" type="qcurve" smooth="yes"/>
      <point x="488" y="1289"/>
      <point x="496" y="1224"/>
      <point x="505" y="1172" type="qcurve" smooth="yes"/>
      <point x="640" y="429" type="line"/>
      <point x="831" y="1209" type="line" smooth="yes"/>
      <point x="847" y="1275"/>
      <point x="861" y="1328" type="qcurve" smooth="yes"/>
      <point x="880" y="1402"/>
      <point x="884" y="1421" type="qcurve" smooth="yes"/>
      <point x="885" y="1427"/>
      <point x="885" y="1437" type="qcurve" smooth="yes"/>
      <point x="885" y="1462"/>
      <point x="874" y="1482" type="qcurve" smooth="yes"/>
      <point x="871" y="1489"/>
      <point x="862" y="1498" type="qcurve"/>
      <point x="1280" y="1498" type="line"/>
      <point x="1266" y="1493"/>
      <point x="1260" y="1488" type="qcurve" smooth="yes"/>
      <point x="1240" y="1471"/>
      <point x="1240" y="1438" type="qcurve" smooth="yes"/>
      <point x="1240" y="1422"/>
      <point x="1242" y="1405"/>
      <point x="1250" y="1375" type="qcurve" smooth="yes"/>
      <point x="1465" y="450" type="line"/>
      <point x="1628" y="1207" type="line" smooth="yes"/>
      <point x="1635" y="1246"/>
      <point x="1642" y="1295"/>
      <point x="1642" y="1318" type="qcurve" smooth="yes"/>
      <point x="1642" y="1374"/>
      <point x="1600" y="1455"/>
      <point x="1555" y="1498" type="qcurve"/>
    </contour>
  </outline>
</glyph>
<glyph name="X" format="1">
  <advance width="1535"/>
  <unicode hex="0058"/>
  <outline>
    <contour>
      <point x="1484" y="0" type="qcurve" smooth="yes"/>
      <point x="972" y="0" type="line"/>
      <point x="984" y="21"/>
      <point x="989" y="33" type="qcurve" smooth="yes"/>
      <point x="1007" y="73"/>
      <point x="1007" y="100" type="qcurve" smooth="yes"/>
      <point x="1007" y="108"/>
      <point x="1003" y="131"/>
      <point x="1000" y="151" type="qcurve" smooth="yes"/>
      <point x="994" y="181"/>
      <point x="979" y="211" type="qcurve" smooth="yes"/>
      <point x="767" y="598" type="line"/>
      <point x="542" y="220" type="line" smooth="yes"/>
      <point x="529" y="197"/>
      <point x="516" y="144"/>
      <point x="516" y="121" type="qcurve" smooth="yes"/>
      <point x="516" y="87"/>
      <point x="537" y="53" type="qcurve" smooth="yes"/>
      <point x="567" y="5"/>
      <point x="583" y="0" type="qcurve"/>
      <point x="66" y="0" type="line"/>
      <point x="128" y="63"/>
      <point x="191" y="127" type="qcurve"/>
      <point x="232" y="175"/>
      <point x="245" y="191" type="qcurve" smooth="yes"/>
      <point x="285" y="241"/>
      <point x="322" y="304" type="qcurve" smooth="yes"/>
      <point x="606" y="792" type="line"/>
      <point x="330" y="1261" type="line" smooth="yes"/>
      <point x="313" y="1290"/>
      <point x="276" y="1340"/>
      <point x="223" y="1400" type="qcurve" smooth="yes"/>
      <point x="203" y="1425"/>
      <point x="164" y="1463" type="qcurve" smooth="yes"/>
      <point x="146" y="1480"/>
      <point x="128" y="1498" type="qcurve"/>
      <point x="666" y="1498" type="line"/>
      <point x="642" y="1478"/>
      <point x="616" y="1436"/>
      <point x="609" y="1405" type="qcurve" smooth="yes"/>
      <point x="607" y="1391"/>
      <point x="607" y="1383" type="qcurve" smooth="yes"/>
      <point x="607" y="1355"/>
      <point x="625" y="1294"/>
      <point x="642" y="1261" type="qcurve" smooth="yes"/>
      <point x="791" y="992" type="line"/>
      <point x="974" y="1307" type="line" smooth="yes"/>
      <point x="987" y="1328"/>
      <point x="996" y="1366"/>
      <point x="996" y="1392" type="qcurve" smooth="yes"/>
      <point x="996" y="1420"/>
      <point x="970" y="1462" type="qcurve" smooth="yes"/>
      <point x="962" y="1475"/>
      <point x="944" y="1498" type="qcurve"/>
      <point x="1437" y="1498" type="line"/>
      <point x="1407" y="1470"/>
      <point x="1374" y="1439" type="qcurve" smooth="yes"/>
      <point x="1337" y="1404"/>
      <point x="1317" y="1378" type="qcurve" smooth="yes"/>
      <point x="1282" y="1333"/>
      <point x="1223" y="1249"/>
      <point x="1186" y="1187" type="qcurve" smooth="yes"/>
      <point x="959" y="809" type="line"/>
      <point x="1262" y="256" type="line" smooth="yes"/>
      <point x="1280" y="224"/>
      <point x="1309" y="185" type="qcurve" smooth="yes"/>
      <point x="1316" y="176"/>
      <point x="1355" y="127" type="qcurve" smooth="yes"/>
      <point x="1382" y="92"/>
      <point x="1435" y="42" type="qcurve" smooth="yes"/>
      <point x="1481" y="-1"/>
    </contour>
  </outline>
</glyph>
<glyph name="Y" format="1">
  <advance width="1527"/>
  <unicode hex="0059"/>
  <outline>
    <contour>
      <point x="1480" y="1498" type="line"/>
      <point x="1454" y="1472"/>
      <point x="1391" y="1405"/>
      <point x="1368" y="1373" type="qcurve" smooth="yes"/>
      <point x="1333" y="1325"/>
      <point x="1302" y="1277" type="qcurve" smooth="yes"/>
      <point x="1266" y="1221"/>
      <point x="1246" y="1182" type="qcurve" smooth="yes"/>
      <point x="909" y="522" type="line"/>
      <point x="909" y="234" type="line" smooth="yes"/>
      <point x="909" y="179"/>
      <point x="923" y="143" type="qcurve" smooth="yes"/>
      <point x="923" y="142"/>
      <point x="950" y="92" type="qcurve" smooth="yes"/>
      <point x="969" y="53"/>
      <point x="1001" y="23" type="qcurve" smooth="yes"/>
      <point x="1012" y="13"/>
      <point x="1031" y="0" type="qcurve"/>
      <point x="514" y="0" type="line"/>
      <point x="536" y="17"/>
      <point x="548" y="29" type="qcurve" smooth="yes"/>
      <point x="585" y="67"/>
      <point x="600" y="112" type="qcurve" smooth="yes"/>
      <point x="610" y="139"/>
      <point x="629" y="194"/>
      <point x="629" y="222" type="qcurve" smooth="yes"/>
      <point x="629" y="522" type="line"/>
      <point x="249" y="1256" type="line" smooth="yes"/>
      <point x="210" y="1332"/>
      <point x="161" y="1397" type="qcurve" smooth="yes"/>
      <point x="145" y="1418"/>
      <point x="96" y="1472"/>
      <point x="72" y="1498" type="qcurve"/>
      <point x="592" y="1498" type="line"/>
      <point x="567" y="1478"/>
      <point x="541" y="1436"/>
      <point x="534" y="1405" type="qcurve" smooth="yes"/>
      <point x="532" y="1395"/>
      <point x="532" y="1389" type="qcurve" smooth="yes"/>
      <point x="532" y="1357"/>
      <point x="563" y="1257"/>
      <point x="587" y="1208" type="qcurve" smooth="yes"/>
      <point x="782" y="792" type="line"/>
      <point x="1024" y="1283" type="line" smooth="yes"/>
      <point x="1032" y="1299"/>
      <point x="1041" y="1363"/>
      <point x="1041" y="1392" type="qcurve" smooth="yes"/>
      <point x="1041" y="1422"/>
      <point x="1012" y="1463" type="qcurve" smooth="yes"/>
      <point x="996" y="1480"/>
      <point x="980" y="1498" type="qcurve"/>
    </contour>
  </outline>
</glyph>
<glyph name="Z" format="1">
  <advance width="1245"/>
  <unicode hex="005A"/>
  <outline>
    <contour>
      <point x="1184" y="-53" type="line"/>
      <point x="1178" y="-47"/>
      <point x="1172" y="-41" type="qcurve" smooth="yes"/>
      <point x="1155" y="-22"/>
      <point x="1146" y="-17" type="qcurve" smooth="yes"/>
      <point x="1129" y="-7"/>
      <point x="1096" y="0"/>
      <point x="1072" y="0" type="qcurve" smooth="yes"/>
      <point x="65" y="0" type="line"/>
      <point x="660" y="1128" type="line" smooth="yes"/>
      <point x="684" y="1173"/>
      <point x="688" y="1181" type="qcurve" smooth="yes"/>
      <point x="702" y="1210"/>
      <point x="699" y="1229" type="qcurve" smooth="yes"/>
      <point x="696" y="1257"/>
      <point x="646" y="1276"/>
      <point x="601" y="1276" type="qcurve" smooth="yes"/>
      <point x="538" y="1276" type="line" smooth="yes"/>
      <point x="465" y="1276"/>
      <point x="345" y="1222"/>
      <point x="297" y="1174" type="qcurve" smooth="yes"/>
      <point x="257" y="1132"/>
      <point x="197" y="1030" type="qcurve" smooth="yes"/>
      <point x="177" y="997"/>
      <point x="145" y="937" type="qcurve"/>
      <point x="145" y="1554" type="line"/>
      <point x="154" y="1544"/>
      <point x="160" y="1539" type="qcurve" smooth="yes"/>
      <point x="180" y="1521"/>
      <point x="202" y="1513" type="qcurve" smooth="yes"/>
      <point x="216" y="1508"/>
      <point x="251" y="1498"/>
      <point x="292" y="1498" type="qcurve" smooth="yes"/>
      <point x="1160" y="1498" type="line"/>
      <point x="570" y="392" type="line" smooth="yes"/>
      <point x="554" y="362"/>
      <point x="531" y="304"/>
      <point x="531" y="285" type="qcurve" smooth="yes"/>
      <point x="531" y="256"/>
      <point x="575" y="241" type="qcurve" smooth="yes"/>
      <point x="610" y="229"/>
      <point x="660" y="229" type="qcurve" smooth="yes"/>
      <point x="743" y="229" type="line" smooth="yes"/>
      <point x="809" y="229"/>
      <point x="877" y="253" type="qcurve" smooth="yes"/>
      <point x="953" y="280"/>
      <point x="1011" y="331" type="qcurve" smooth="yes"/>
      <point x="1051" y="366"/>
      <point x="1096" y="436" type="qcurve" smooth="yes"/>
      <point x="1126" y="483"/>
      <point x="1159" y="548" type="qcurve" smooth="yes"/>
      <point x="1171" y="574"/>
      <point x="1184" y="600" type="qcurve"/>
    </contour>
  </outline>
</glyph>
<glyph name="bracketleft" format="1">
  <advance width="770"/>
  <unicode hex="005B"/>
  <outline>
    <contour>
      <point x="714" y="-326" type="line"/>
      <point x="706" y="-319"/>
      <point x="701" y="-316" type="qcurve" smooth="yes"/>
      <point x="684" y="-304"/>
      <point x="674" y="-299" type="qcurve" smooth="yes"/>
      <point x="657" y="-293"/>
      <point x="624" y="-289"/>
      <point x="601" y="-289" type="qcurve" smooth="yes"/>
      <point x="81" y="-289" type="line"/>
      <point x="88" y="-280"/>
      <point x="91" y="-276" type="qcurve" smooth="yes"/>
      <point x="102" y="-261"/>
      <point x="106" y="-252" type="qcurve" smooth="yes"/>
      <point x="114" y="-236"/>
      <point x="114" y="-219" type="qcurve" smooth="yes"/>
      <point x="113" y="-202"/>
      <point x="113" y="-192" type="qcurve" smooth="yes"/>
      <point x="113" y="1308" type="line" smooth="yes"/>
      <point x="113" y="1321"/>
      <point x="115" y="1367"/>
      <point x="115" y="1377" type="qcurve" smooth="yes"/>
      <point x="115" y="1400"/>
      <point x="108" y="1435"/>
      <point x="97" y="1456" type="qcurve" smooth="yes"/>
      <point x="90" y="1470"/>
      <point x="74" y="1489" type="qcurve" smooth="yes"/>
      <point x="72" y="1492"/>
      <point x="66" y="1498" type="qcurve"/>
      <point x="613" y="1498" type="line" smooth="yes"/>
      <point x="635" y="1498"/>
      <point x="651" y="1503" type="qcurve" smooth="yes"/>
      <point x="654" y="1504"/>
      <point x="687" y="1519"/>
      <point x="705" y="1534" type="qcurve" smooth="yes"/>
      <point x="708" y="1536"/>
      <point x="714" y="1542" type="qcurve"/>
      <point x="714" y="1217" type="line"/>
      <point x="706" y="1222"/>
      <point x="702" y="1225" type="qcurve" smooth="yes"/>
      <point x="685" y="1237"/>
      <point x="679" y="1239" type="qcurve" smooth="yes"/>
      <point x="665" y="1244"/>
      <point x="642" y="1250"/>
      <point x="628" y="1250" type="qcurve" smooth="yes"/>
      <point x="411" y="1250" type="line"/>
      <point x="411" y="-47" type="line"/>
      <point x="633" y="-47" type="line" smooth="yes"/>
      <point x="647" y="-47"/>
      <point x="674" y="-34"/>
      <point x="683" y="-30" type="qcurve" smooth="yes"/>
      <point x="714" y="-11" type="line"/>
    </contour>
  </outline>
</glyph>
<glyph name="backslash" format="1">
  <advance width="1215"/>
  <unicode hex="005C"/>
  <outline>
    <contour>
      <point x="1164" y="0" type="qcurve"/>
      <point x="736" y="0" type="line"/>
      <point x="748" y="27"/>
      <point x="760" y="55" type="qcurve" smooth="yes"/>
      <point x="770" y="85"/>
      <point x="768" y="106" type="qcurve" smooth="yes"/>
      <point x="763" y="145"/>
      <point x="752" y="185" type="qcurve" smooth="yes"/>
      <point x="738" y="237"/>
      <point x="715" y="285" type="qcurve" smooth="yes"/>
      <point x="263" y="1232" type="line" smooth="yes"/>
      <point x="243" y="1274"/>
      <point x="211" y="1325" type="qcurve" smooth="yes"/>
      <point x="174" y="1385"/>
      <point x="147" y="1415" type="qcurve" smooth="yes"/>
      <point x="120" y="1448"/>
      <point x="94" y="1476" type="qcurve" smooth="yes"/>
      <point x="85" y="1485"/>
      <point x="72" y="1498" type="qcurve"/>
      <point x="484" y="1498" type="line"/>
      <point x="472" y="1479"/>
      <point x="466" y="1467" type="qcurve" smooth="yes"/>
      <point x="448" y="1431"/>
      <point x="448" y="1404" type="qcurve" smooth="yes"/>
      <point x="448" y="1359"/>
      <point x="468" y="1306" type="qcurve" smooth="yes"/>
      <point x="476" y="1285"/>
      <point x="496" y="1242" type="qcurve" smooth="yes"/>
      <point x="939" y="313" type="line" smooth="yes"/>
      <point x="962" y="264"/>
      <point x="1044" y="140"/>
      <point x="1055" y="123" type="qcurve" smooth="yes"/>
      <point x="1076" y="90"/>
      <point x="1122" y="42" type="qcurve" smooth="yes"/>
      <point x="1137" y="26"/>
    </contour>
  </outline>
</glyph>
<glyph name="bracketright" format="1">
  <advance width="770"/>
  <unicode hex="005D"/>
  <outline>
    <contour>
      <point x="714" y="1498" type="line"/>
      <point x="709" y="1493"/>
      <point x="707" y="1490" type="qcurve" smooth="yes"/>
      <point x="691" y="1470"/>
      <point x="673" y="1437"/>
      <point x="664" y="1393"/>
      <point x="664" y="1372" type="qcurve" smooth="yes"/>
      <point x="664" y="1363"/>
      <point x="666" y="1321"/>
      <point x="666" y="1308" type="qcurve" smooth="yes"/>
      <point x="666" y="-192" type="line" smooth="yes"/>
      <point x="666" y="-207"/>
      <point x="667" y="-238"/>
      <point x="679" y="-263"/>
      <point x="689" y="-276" type="qcurve" smooth="yes"/>
      <point x="692" y="-281"/>
      <point x="700" y="-289" type="qcurve"/>
      <point x="179" y="-289" type="line" smooth="yes"/>
      <point x="136" y="-289"/>
      <point x="106" y="-299" type="qcurve" smooth="yes"/>
      <point x="94" y="-304"/>
      <point x="75" y="-319" type="qcurve" smooth="yes"/>
      <point x="72" y="-321"/>
      <point x="66" y="-326" type="qcurve"/>
      <point x="66" y="-11" type="line"/>
      <point x="97" y="-30" type="line" smooth="yes"/>
      <point x="109" y="-36"/>
      <point x="133" y="-47"/>
      <point x="147" y="-47" type="qcurve" smooth="yes"/>
      <point x="369" y="-47" type="line"/>
      <point x="369" y="1250" type="line"/>
      <point x="152" y="1250" type="line" smooth="yes"/>
      <point x="140" y="1250"/>
      <point x="118" y="1245"/>
      <point x="101" y="1239" type="qcurve" smooth="yes"/>
      <point x="91" y="1234"/>
      <point x="74" y="1223" type="qcurve" smooth="yes"/>
      <point x="71" y="1221"/>
      <point x="66" y="1217" type="qcurve"/>
      <point x="66" y="1542" type="line"/>
      <point x="74" y="1535"/>
      <point x="79" y="1531" type="qcurve" smooth="yes"/>
      <point x="96" y="1518"/>
      <point x="123" y="1505"/>
      <point x="150" y="1498"/>
      <point x="167" y="1498" type="qcurve" smooth="yes"/>
    </contour>
  </outline>
</glyph>
<glyph name="asciicircum" format="1">
  <advance width="889"/>
  <unicode hex="005E"/>
  <outline>
    <contour>
      <point x="839" y="1349" type="line"/>
      <point x="761" y="1190" type="line"/>
      <point x="455" y="1324" type="line"/>
      <point x="153" y="1190" type="line"/>
      <point x="72" y="1346" type="line"/>
      <point x="453" y="1498" type="line"/>
    </contour>
  </outline>
</glyph>
<glyph name="underscore" format="1">
  <advance width="1350"/>
  <unicode hex="005F"/>
  <outline>
    <contour>
      <point x="1360" y="-251" type="line"/>
      <point x="0" y="-251" type="line"/>
      <point x="0" y="-123" type="line"/>
      <point x="1360" y="-123" type="line"/>
    </contour>
  </outline>
</glyph>
<glyph name="grave" format="1">
  <advance width="631"/>
  <unicode hex="0060"/>
  <outline>
    <contour>
      <point x="580" y="1263" type="qcurve" smooth="yes"/>
      <point x="580" y="1232"/>
      <point x="541" y="1189"/>
      <point x="505" y="1189" type="qcurve" smooth="yes"/>
      <point x="476" y="1189"/>
      <point x="445" y="1198" type="qcurve" smooth="yes"/>
      <point x="421" y="1207"/>
      <point x="408" y="1211" type="qcurve" smooth="yes"/>
      <point x="153" y="1298" type="line" smooth="yes"/>
      <point x="116" y="1311"/>
      <point x="72" y="1365"/>
      <point x="72" y="1402" type="qcurve" smooth="yes"/>
      <point x="72" y="1441"/>
      <point x="121" y="1498"/>
      <point x="159" y="1498" type="qcurve" smooth="yes"/>
      <point x="165" y="1498"/>
      <point x="168" y="1498" type="qcurve" smooth="yes"/>
      <point x="191" y="1498"/>
      <point x="215" y="1490" type="qcurve" smooth="yes"/>
      <point x="227" y="1486"/>
      <point x="261" y="1471" type="qcurve" smooth="yes"/>
      <point x="495" y="1362" type="line" smooth="yes"/>
      <point x="535" y="1343"/>
      <point x="555" y="1322" type="qcurve" smooth="yes"/>
      <point x="580" y="1296"/>
    </contour>
  </outline>
</glyph>
<glyph name="a" format="1">
  <advance width="1113"/>
  <unicode hex="0061"/>
  <outline>
    <contour>
      <point x="1067" y="0" type="qcurve"/>
      <point x="794" y="0" type="line"/>
      <point x="779" y="8"/>
      <point x="760" y="22"/>
      <point x="753" y="34" type="qcurve" smooth="yes"/>
      <point x="735" y="61"/>
      <point x="735" y="97" type="qcurve"/>
      <point x="724" y="82"/>
      <point x="713" y="67" type="qcurve" smooth="yes"/>
      <point x="679" y="30"/>
      <point x="632" y="9" type="qcurve" smooth="yes"/>
      <point x="562" y="-22"/>
      <point x="468" y="-22" type="qcurve" smooth="yes"/>
      <point x="299" y="-22"/>
      <point x="193" y="52" type="qcurve" smooth="yes"/>
      <point x="68" y="139"/>
      <point x="68" y="307" type="qcurve" smooth="yes"/>
      <point x="68" y="431"/>
      <point x="151" y="521" type="qcurve" smooth="yes"/>
      <point x="226" y="601"/>
      <point x="359" y="650" type="qcurve" smooth="yes"/>
      <point x="553" y="720" type="line" smooth="yes"/>
      <point x="626" y="746"/>
      <point x="652" y="763" type="qcurve" smooth="yes"/>
      <point x="700" y="794"/>
      <point x="700" y="839" type="qcurve" smooth="yes"/>
      <point x="700" y="847"/>
      <point x="699" y="852" type="qcurve" smooth="yes"/>
      <point x="692" y="900"/>
      <point x="643" y="922" type="qcurve" smooth="yes"/>
      <point x="605" y="939"/>
      <point x="546" y="939" type="qcurve" smooth="yes"/>
      <point x="442" y="939"/>
      <point x="342" y="873" type="qcurve" smooth="yes"/>
      <point x="270" y="825"/>
      <point x="205" y="749" type="qcurve" smooth="yes"/>
      <point x="179" y="715"/>
      <point x="153" y="681" type="qcurve"/>
      <point x="153" y="1145" type="line" smooth="yes"/>
      <point x="150" y="1134"/>
      <point x="201" y="1114" type="qcurve" smooth="yes"/>
      <point x="234" y="1101"/>
      <point x="266" y="1101" type="qcurve"/>
      <point x="351" y="1119"/>
      <point x="505" y="1145"/>
      <point x="600" y="1145" type="qcurve" smooth="yes"/>
      <point x="787" y="1145"/>
      <point x="881" y="1044" type="qcurve" smooth="yes"/>
      <point x="965" y="954"/>
      <point x="965" y="797" type="qcurve" smooth="yes"/>
      <point x="965" y="326" type="line" smooth="yes"/>
      <point x="965" y="252"/>
      <point x="976" y="150"/>
      <point x="992" y="95" type="qcurve" smooth="yes"/>
      <point x="1001" y="63"/>
      <point x="1034" y="29" type="qcurve" smooth="yes"/>
      <point x="1045" y="18"/>
    </contour>
    <contour>
      <point x="708" y="551" type="qcurve"/>
      <point x="705" y="546"/>
      <point x="593" y="495"/>
      <point x="559" y="485" type="qcurve" smooth="yes"/>
      <point x="454" y="456"/>
      <point x="397" y="414" type="qcurve" smooth="yes"/>
      <point x="334" y="367"/>
      <point x="334" y="307" type="qcurve" smooth="yes"/>
      <point x="334" y="252"/>
      <point x="413" y="188"/>
      <point x="468" y="188" type="qcurve" smooth="yes"/>
      <point x="577" y="188"/>
      <point x="639" y="280" type="qcurve" smooth="yes"/>
      <point x="683" y="345"/>
      <point x="700" y="454" type="qcurve" smooth="yes"/>
      <point x="712" y="529"/>
    </contour>
  </outline>
</glyph>
<glyph name="b" format="1">
  <advance width="1153"/>
  <unicode hex="0062"/>
  <outline>
    <contour>
      <point x="1102" y="593" type="qcurve" smooth="yes"/>
      <point x="1102" y="288"/>
      <point x="981" y="130" type="qcurve" smooth="yes"/>
      <point x="865" y="-22"/>
      <point x="653" y="-22" type="qcurve" smooth="yes"/>
      <point x="574" y="-22"/>
      <point x="402" y="16"/>
      <point x="314" y="36" type="qcurve"/>
      <point x="274" y="36"/>
      <point x="216" y="3" type="qcurve" smooth="yes"/>
      <point x="191" y="-14"/>
      <point x="167" y="-31" type="qcurve"/>
      <point x="167" y="1192" type="line" smooth="yes"/>
      <point x="167" y="1259"/>
      <point x="134" y="1334" type="qcurve" smooth="yes"/>
      <point x="122" y="1363"/>
      <point x="107" y="1386" type="qcurve" smooth="yes"/>
      <point x="96" y="1403"/>
      <point x="72" y="1433" type="qcurve"/>
      <point x="424" y="1531" type="line"/>
      <point x="424" y="1072" type="line"/>
      <point x="462" y="1101"/>
      <point x="528" y="1122" type="qcurve" smooth="yes"/>
      <point x="601" y="1146"/>
      <point x="675" y="1146" type="qcurve" smooth="yes"/>
      <point x="888" y="1146"/>
      <point x="1003" y="971" type="qcurve" smooth="yes"/>
      <point x="1102" y="821"/>
    </contour>
    <contour>
      <point x="840" y="586" type="qcurve" smooth="yes"/>
      <point x="840" y="781"/>
      <point x="780" y="861" type="qcurve" smooth="yes"/>
      <point x="730" y="928"/>
      <point x="634" y="928" type="qcurve" smooth="yes"/>
      <point x="516" y="928"/>
      <point x="466" y="808" type="qcurve" smooth="yes"/>
      <point x="429" y="719"/>
      <point x="429" y="567" type="qcurve" smooth="yes"/>
      <point x="429" y="452"/>
      <point x="436" y="398" type="qcurve" smooth="yes"/>
      <point x="448" y="303"/>
      <point x="485" y="255" type="qcurve" smooth="yes"/>
      <point x="532" y="194"/>
      <point x="622" y="194" type="qcurve" smooth="yes"/>
      <point x="743" y="194"/>
      <point x="798" y="325" type="qcurve" smooth="yes"/>
      <point x="840" y="424"/>
    </contour>
  </outline>
</glyph>
<glyph name="c" format="1">
  <advance width="976"/>
  <unicode hex="0063"/>
  <outline>
    <contour>
      <point x="931" y="388" type="qcurve"/>
      <point x="923" y="335"/>
      <point x="916" y="282" type="qcurve"/>
      <point x="885" y="160"/>
      <point x="811" y="84" type="qcurve" smooth="yes"/>
      <point x="708" y="-22"/>
      <point x="531" y="-22" type="qcurve" smooth="yes"/>
      <point x="360" y="-22"/>
      <point x="251" y="62" type="qcurve" smooth="yes"/>
      <point x="157" y="135"/>
      <point x="111" y="270" type="qcurve" smooth="yes"/>
      <point x="72" y="385"/>
      <point x="72" y="529" type="qcurve" smooth="yes"/>
      <point x="72" y="788"/>
      <point x="188" y="953" type="qcurve" smooth="yes"/>
      <point x="323" y="1146"/>
      <point x="582" y="1146" type="qcurve" smooth="yes"/>
      <point x="640" y="1146"/>
      <point x="702" y="1135" type="qcurve" smooth="yes"/>
      <point x="789" y="1119"/>
      <point x="794" y="1119" type="qcurve" smooth="yes"/>
      <point x="820" y="1119"/>
      <point x="856" y="1141" type="qcurve" smooth="yes"/>
      <point x="870" y="1153"/>
      <point x="885" y="1165" type="qcurve"/>
      <point x="885" y="680" type="line"/>
      <point x="889" y="684"/>
      <point x="851" y="746" type="qcurve" smooth="yes"/>
      <point x="805" y="822"/>
      <point x="751" y="868" type="qcurve" smooth="yes"/>
      <point x="675" y="933"/>
      <point x="594" y="933" type="qcurve" smooth="yes"/>
      <point x="458" y="933"/>
      <point x="392" y="811" type="qcurve" smooth="yes"/>
      <point x="338" y="712"/>
      <point x="338" y="555" type="qcurve" smooth="yes"/>
      <point x="338" y="398"/>
      <point x="470" y="220"/>
      <point x="594" y="220" type="qcurve" smooth="yes"/>
      <point x="669" y="220"/>
      <point x="756" y="262" type="qcurve" smooth="yes"/>
      <point x="824" y="295"/>
      <point x="882" y="341" type="qcurve" smooth="yes"/>
      <point x="932" y="381"/>
    </contour>
  </outline>
</glyph>
<glyph name="d" format="1">
  <advance width="1147"/>
  <unicode hex="0064"/>
  <outline>
    <contour>
      <point x="1094" y="0" type="qcurve"/>
      <point x="827" y="0" type="line"/>
      <point x="815" y="7"/>
      <point x="809" y="10" type="qcurve" smooth="yes"/>
      <point x="789" y="22"/>
      <point x="773" y="40"/>
      <point x="759" y="66"/>
      <point x="757" y="72" type="qcurve"/>
      <point x="692" y="22"/>
      <point x="571" y="-19"/>
      <point x="489" y="-19" type="qcurve" smooth="yes"/>
      <point x="325" y="-19"/>
      <point x="225" y="64" type="qcurve" smooth="yes"/>
      <point x="139" y="136"/>
      <point x="99" y="271" type="qcurve" smooth="yes"/>
      <point x="66" y="384"/>
      <point x="66" y="536" type="qcurve" smooth="yes"/>
      <point x="66" y="798"/>
      <point x="165" y="954" type="qcurve" smooth="yes"/>
      <point x="287" y="1146"/>
      <point x="545" y="1146" type="qcurve" smooth="yes"/>
      <point x="601" y="1146"/>
      <point x="688" y="1122"/>
      <point x="745" y="1093" type="qcurve"/>
      <point x="745" y="1200" type="line" smooth="yes"/>
      <point x="745" y="1251"/>
      <point x="730" y="1320"/>
      <point x="708" y="1361" type="qcurve" smooth="yes"/>
      <point x="696" y="1381"/>
      <point x="644" y="1431"/>
      <point x="642" y="1433" type="qcurve" smooth="yes"/>
      <point x="996" y="1531" type="line"/>
      <point x="996" y="251" type="line" smooth="yes"/>
      <point x="996" y="189"/>
      <point x="1008" y="119"/>
      <point x="1032" y="77" type="qcurve" smooth="yes"/>
      <point x="1046" y="53"/>
      <point x="1072" y="20"/>
    </contour>
    <contour>
      <point x="740" y="595" type="qcurve" smooth="yes"/>
      <point x="740" y="700"/>
      <point x="733" y="749" type="qcurve" smooth="yes"/>
      <point x="721" y="836"/>
      <point x="683" y="879" type="qcurve" smooth="yes"/>
      <point x="636" y="933"/>
      <point x="545" y="933" type="qcurve" smooth="yes"/>
      <point x="429" y="933"/>
      <point x="371" y="799" type="qcurve" smooth="yes"/>
      <point x="325" y="692"/>
      <point x="325" y="531" type="qcurve" smooth="yes"/>
      <point x="325" y="378"/>
      <point x="354" y="307" type="qcurve" smooth="yes"/>
      <point x="399" y="197"/>
      <point x="525" y="197" type="qcurve" smooth="yes"/>
      <point x="616" y="197"/>
      <point x="668" y="261" type="qcurve" smooth="yes"/>
      <point x="711" y="314"/>
      <point x="728" y="414" type="qcurve" smooth="yes"/>
      <point x="740" y="485"/>
    </contour>
  </outline>
</glyph>
<glyph name="e" format="1">
  <advance width="1027"/>
  <unicode hex="0065"/>
  <outline>
    <contour>
      <point x="980" y="378" type="qcurve"/>
      <point x="989" y="356"/>
      <point x="966" y="270" type="qcurve" smooth="yes"/>
      <point x="935" y="153"/>
      <point x="855" y="80" type="qcurve" smooth="yes"/>
      <point x="744" y="-22"/>
      <point x="555" y="-22" type="qcurve" smooth="yes"/>
      <point x="309" y="-22"/>
      <point x="186" y="135" type="qcurve" smooth="yes"/>
      <point x="72" y="280"/>
      <point x="72" y="546" type="qcurve" smooth="yes"/>
      <point x="72" y="713"/>
      <point x="112" y="837" type="qcurve" smooth="yes"/>
      <point x="159" y="983"/>
      <point x="256" y="1060" type="qcurve" smooth="yes"/>
      <point x="366" y="1148"/>
      <point x="541" y="1148" type="qcurve" smooth="yes"/>
      <point x="745" y="1148"/>
      <point x="846" y="1030" type="qcurve" smooth="yes"/>
      <point x="926" y="937"/>
      <point x="949" y="757" type="qcurve" smooth="yes"/>
      <point x="960" y="670"/>
      <point x="960" y="455" type="qcurve"/>
      <point x="944" y="463"/>
      <point x="928" y="466" type="qcurve" smooth="yes"/>
      <point x="914" y="471"/>
      <point x="908" y="472" type="qcurve" smooth="yes"/>
      <point x="904" y="473"/>
      <point x="895" y="473" type="qcurve" smooth="yes"/>
      <point x="333" y="473" type="line"/>
      <point x="339" y="439"/>
      <point x="346" y="405" type="qcurve" smooth="yes"/>
      <point x="369" y="327"/>
      <point x="421" y="279" type="qcurve" smooth="yes"/>
      <point x="493" y="211"/>
      <point x="612" y="211" type="qcurve" smooth="yes"/>
      <point x="720" y="211"/>
      <point x="823" y="262" type="qcurve" smooth="yes"/>
      <point x="955" y="327"/>
    </contour>
    <contour>
      <point x="711" y="675" type="qcurve" smooth="yes"/>
      <point x="712" y="678"/>
      <point x="712" y="680" type="qcurve" smooth="yes"/>
      <point x="713" y="688"/>
      <point x="713" y="696" type="qcurve" smooth="yes"/>
      <point x="713" y="781"/>
      <point x="684" y="846" type="qcurve" smooth="yes"/>
      <point x="639" y="948"/>
      <point x="534" y="948" type="qcurve" smooth="yes"/>
      <point x="444" y="948"/>
      <point x="394" y="879" type="qcurve" smooth="yes"/>
      <point x="340" y="805"/>
      <point x="340" y="686" type="qcurve" smooth="yes"/>
      <point x="340" y="678"/>
      <point x="340" y="676" type="qcurve" smooth="yes"/>
      <point x="340" y="675"/>
    </contour>
  </outline>
</glyph>
<glyph name="f" format="1">
  <advance width="988"/>
  <unicode hex="0066"/>
  <outline>
    <contour>
      <point x="933" y="1170" type="line"/>
      <point x="891" y="1229"/>
      <point x="834" y="1274" type="qcurve" smooth="yes"/>
      <point x="771" y="1324"/>
      <point x="714" y="1324" type="qcurve" smooth="yes"/>
      <point x="652" y="1324"/>
      <point x="582" y="1206"/>
      <point x="582" y="1117" type="qcurve" smooth="yes"/>
      <point x="582" y="1085" type="line"/>
      <point x="780" y="1085" type="line" smooth="yes"/>
      <point x="801" y="1085"/>
      <point x="828" y="1091"/>
      <point x="856" y="1100" type="qcurve" smooth="yes"/>
      <point x="865" y="1103"/>
      <point x="892" y="1114"/>
      <point x="904" y="1119" type="qcurve"/>
      <point x="840" y="837" type="line"/>
      <point x="821" y="859"/>
      <point x="797" y="868" type="qcurve" smooth="yes"/>
      <point x="784" y="873"/>
      <point x="748" y="875"/>
      <point x="744" y="875" type="qcurve" smooth="yes"/>
      <point x="592" y="875" type="line"/>
      <point x="592" y="249" type="line" smooth="yes"/>
      <point x="592" y="205"/>
      <point x="611" y="122"/>
      <point x="643" y="65"/>
      <point x="675" y="30" type="qcurve" smooth="yes"/>
      <point x="686" y="18"/>
      <point x="706" y="0" type="qcurve"/>
      <point x="229" y="0" type="line"/>
      <point x="247" y="19"/>
      <point x="257" y="31" type="qcurve" smooth="yes"/>
      <point x="288" y="69"/>
      <point x="319" y="143"/>
      <point x="331" y="220"/>
      <point x="331" y="270" type="qcurve" smooth="yes"/>
      <point x="331" y="873" type="line"/>
      <point x="177" y="873" type="line" smooth="yes"/>
      <point x="160" y="873"/>
      <point x="153" y="873" type="qcurve" smooth="yes"/>
      <point x="133" y="873"/>
      <point x="103" y="864"/>
      <point x="93" y="859" type="qcurve" smooth="yes"/>
      <point x="80" y="850"/>
      <point x="72" y="846" type="qcurve"/>
      <point x="134" y="1129" type="line"/>
      <point x="141" y="1122"/>
      <point x="162" y="1108"/>
      <point x="173" y="1102" type="qcurve" smooth="yes"/>
      <point x="198" y="1091"/>
      <point x="200" y="1090" type="qcurve" smooth="yes"/>
      <point x="214" y="1085"/>
      <point x="229" y="1085" type="qcurve" smooth="yes"/>
      <point x="333" y="1085" type="line"/>
      <point x="333" y="1139" type="line" smooth="yes"/>
      <point x="333" y="1301"/>
      <point x="410" y="1405" type="qcurve" smooth="yes"/>
      <point x="498" y="1524"/>
      <point x="663" y="1524" type="qcurve" smooth="yes"/>
      <point x="710" y="1524"/>
      <point x="741" y="1520" type="qcurve" smooth="yes"/>
      <point x="826" y="1509"/>
      <point x="844" y="1509" type="qcurve" smooth="yes"/>
      <point x="879" y="1509"/>
      <point x="910" y="1522" type="qcurve" smooth="yes"/>
      <point x="921" y="1530"/>
      <point x="933" y="1538" type="qcurve"/>
    </contour>
  </outline>
</glyph>
<glyph name="g" format="1">
  <advance width="1126"/>
  <unicode hex="0067"/>
  <outline>
    <contour>
      <point x="1079" y="1146" type="line"/>
      <point x="1063" y="1117"/>
      <point x="1048" y="1091" type="qcurve" smooth="yes"/>
      <point x="1030" y="1060"/>
      <point x="1025" y="1046" type="qcurve" smooth="yes"/>
      <point x="1001" y="981"/>
      <point x="1001" y="904" type="qcurve" smooth="yes"/>
      <point x="1001" y="17" type="line" smooth="yes"/>
      <point x="1001" y="-189"/>
      <point x="893" y="-312" type="qcurve" smooth="yes"/>
      <point x="772" y="-450"/>
      <point x="542" y="-450" type="qcurve" smooth="yes"/>
      <point x="470" y="-450"/>
      <point x="324" y="-428"/>
      <point x="252" y="-417" type="qcurve" smooth="yes"/>
      <point x="249" y="-416"/>
      <point x="246" y="-416" type="qcurve" smooth="yes"/>
      <point x="242" y="-416"/>
      <point x="241" y="-416" type="qcurve" smooth="yes"/>
      <point x="204" y="-416"/>
      <point x="167" y="-450" type="qcurve" smooth="yes"/>
      <point x="161" y="-455"/>
      <point x="152" y="-466" type="qcurve"/>
      <point x="152" y="-22" type="line"/>
      <point x="172" y="-50"/>
      <point x="192" y="-78" type="qcurve" smooth="yes"/>
      <point x="247" y="-145"/>
      <point x="308" y="-182" type="qcurve" smooth="yes"/>
      <point x="398" y="-237"/>
      <point x="503" y="-237" type="qcurve" smooth="yes"/>
      <point x="655" y="-237"/>
      <point x="715" y="-131" type="qcurve" smooth="yes"/>
      <point x="751" y="-68"/>
      <point x="751" y="33" type="qcurve" smooth="yes"/>
      <point x="751" y="39"/>
      <point x="749" y="64"/>
      <point x="750" y="65" type="qcurve"/>
      <point x="754" y="55"/>
      <point x="672" y="21" type="qcurve" smooth="yes"/>
      <point x="577" y="-19"/>
      <point x="487" y="-19" type="qcurve" smooth="yes"/>
      <point x="260" y="-19"/>
      <point x="154" y="150" type="qcurve" smooth="yes"/>
      <point x="66" y="291"/>
      <point x="66" y="541" type="qcurve" smooth="yes"/>
      <point x="66" y="692"/>
      <point x="101" y="812" type="qcurve" smooth="yes"/>
      <point x="145" y="964"/>
      <point x="239" y="1047" type="qcurve" smooth="yes"/>
      <point x="350" y="1146"/>
      <point x="530" y="1146" type="qcurve" smooth="yes"/>
      <point x="596" y="1146"/>
      <point x="736" y="1095"/>
      <point x="759" y="1072" type="qcurve"/>
      <point x="760" y="1075"/>
      <point x="762" y="1079" type="qcurve" smooth="yes"/>
      <point x="766" y="1111"/>
      <point x="777" y="1124" type="qcurve" smooth="yes"/>
      <point x="784" y="1133"/>
      <point x="806" y="1142" type="qcurve" smooth="yes"/>
      <point x="809" y="1143"/>
      <point x="816" y="1146" type="qcurve" smooth="yes"/>
    </contour>
    <contour>
      <point x="745" y="572" type="qcurve" smooth="yes"/>
      <point x="745" y="775"/>
      <point x="687" y="861" type="qcurve" smooth="yes"/>
      <point x="638" y="933"/>
      <point x="547" y="933" type="qcurve" smooth="yes"/>
      <point x="428" y="933"/>
      <point x="373" y="809" type="qcurve" smooth="yes"/>
      <point x="330" y="712"/>
      <point x="330" y="558" type="qcurve" smooth="yes"/>
      <point x="330" y="353"/>
      <point x="390" y="267" type="qcurve" smooth="yes"/>
      <point x="441" y="194"/>
      <point x="535" y="194" type="qcurve" smooth="yes"/>
      <point x="626" y="194"/>
      <point x="676" y="254" type="qcurve" smooth="yes"/>
      <point x="718" y="304"/>
      <point x="734" y="399" type="qcurve" smooth="yes"/>
      <point x="745" y="464"/>
    </contour>
  </outline>
</glyph>
<glyph name="h" format="1">
  <advance width="1213"/>
  <unicode hex="0068"/>
  <outline>
    <contour>
      <point x="1170" y="0" type="qcurve"/>
      <point x="701" y="0" type="line"/>
      <point x="756" y="50"/>
      <point x="780" y="117" type="qcurve" smooth="yes"/>
      <point x="790" y="145"/>
      <point x="797" y="201"/>
      <point x="797" y="239" type="qcurve" smooth="yes"/>
      <point x="797" y="756" type="line" smooth="yes"/>
      <point x="797" y="830"/>
      <point x="767" y="874" type="qcurve" smooth="yes"/>
      <point x="731" y="928"/>
      <point x="656" y="928" type="qcurve" smooth="yes"/>
      <point x="561" y="928"/>
      <point x="438" y="799"/>
      <point x="438" y="697" type="qcurve" smooth="yes"/>
      <point x="438" y="285" type="line" smooth="yes"/>
      <point x="438" y="251"/>
      <point x="444" y="205"/>
      <point x="462" y="120" type="qcurve" smooth="yes"/>
      <point x="470" y="81"/>
      <point x="508" y="37" type="qcurve" smooth="yes"/>
      <point x="521" y="23"/>
      <point x="546" y="0" type="qcurve"/>
      <point x="85" y="0" type="line"/>
      <point x="116" y="34"/>
      <point x="150" y="91"/>
      <point x="163" y="132" type="qcurve" smooth="yes"/>
      <point x="172" y="161"/>
      <point x="177" y="207"/>
      <point x="177" y="239" type="qcurve" smooth="yes"/>
      <point x="177" y="287" type="line"/>
      <point x="177" y="1187" type="line" smooth="yes"/>
      <point x="177" y="1230"/>
      <point x="165" y="1284"/>
      <point x="146" y="1324" type="qcurve" smooth="yes"/>
      <point x="121" y="1381"/>
      <point x="72" y="1433" type="qcurve"/>
      <point x="431" y="1531" type="line"/>
      <point x="431" y="1072" type="line"/>
      <point x="479" y="1097"/>
      <point x="511" y="1109" type="qcurve" smooth="yes"/>
      <point x="609" y="1146"/>
      <point x="699" y="1146" type="qcurve" smooth="yes"/>
      <point x="874" y="1146"/>
      <point x="970" y="1037" type="qcurve" smooth="yes"/>
      <point x="1058" y="937"/>
      <point x="1058" y="778" type="qcurve" smooth="yes"/>
      <point x="1058" y="295" type="line" smooth="yes"/>
      <point x="1058" y="234"/>
      <point x="1075" y="169" type="qcurve" smooth="yes"/>
      <point x="1089" y="117"/>
      <point x="1107" y="80" type="qcurve" smooth="yes"/>
      <point x="1118" y="58"/>
      <point x="1145" y="27" type="qcurve" smooth="yes"/>
      <point x="1154" y="17"/>
    </contour>
  </outline>
</glyph>
<glyph name="i" format="1">
  <advance width="637"/>
  <unicode hex="0069"/>
  <outline>
    <contour>
      <point x="470" y="1358" type="qcurve" smooth="yes"/>
      <point x="470" y="1290"/>
      <point x="384" y="1194"/>
      <point x="314" y="1194" type="qcurve" smooth="yes"/>
      <point x="240" y="1194"/>
      <point x="140" y="1296"/>
      <point x="140" y="1368" type="qcurve" smooth="yes"/>
      <point x="140" y="1434"/>
      <point x="238" y="1524"/>
      <point x="308" y="1524" type="qcurve" smooth="yes"/>
      <point x="370" y="1524"/>
      <point x="470" y="1426"/>
    </contour>
    <contour>
      <point x="563" y="0" type="qcurve"/>
      <point x="101" y="0" type="line" smooth="yes"/>
      <point x="103" y="-2"/>
      <point x="119" y="15" type="qcurve" smooth="yes"/>
      <point x="156" y="52"/>
      <point x="186" y="126"/>
      <point x="199" y="195"/>
      <point x="199" y="239" type="qcurve" smooth="yes"/>
      <point x="199" y="790" type="line" smooth="yes"/>
      <point x="199" y="846"/>
      <point x="188" y="915"/>
      <point x="167" y="956" type="qcurve" smooth="yes"/>
      <point x="152" y="985"/>
      <point x="100" y="1049"/>
      <point x="94" y="1050" type="qcurve" smooth="yes"/>
      <point x="460" y="1146" type="line"/>
      <point x="460" y="237" type="line" smooth="yes"/>
      <point x="460" y="210"/>
      <point x="473" y="152"/>
      <point x="494" y="110" type="qcurve" smooth="yes"/>
      <point x="510" y="78"/>
      <point x="536" y="38" type="qcurve" smooth="yes"/>
      <point x="545" y="24"/>
    </contour>
  </outline>
</glyph>
<glyph name="j" format="1">
  <advance width="614"/>
  <unicode hex="006A"/>
  <outline>
    <contour>
      <point x="488" y="1358" type="qcurve" smooth="yes"/>
      <point x="488" y="1293"/>
      <point x="391" y="1196"/>
      <point x="330" y="1196" type="qcurve" smooth="yes"/>
      <point x="256" y="1196"/>
      <point x="159" y="1295"/>
      <point x="159" y="1368" type="qcurve" smooth="yes"/>
      <point x="159" y="1435"/>
      <point x="257" y="1529"/>
      <point x="327" y="1529" type="qcurve" smooth="yes"/>
      <point x="387" y="1529"/>
      <point x="488" y="1426"/>
    </contour>
    <contour>
      <point x="479" y="237" type="line" smooth="yes"/>
      <point x="479" y="3"/>
      <point x="471" y="-66" type="qcurve" smooth="yes"/>
      <point x="452" y="-229"/>
      <point x="378" y="-318" type="qcurve" smooth="yes"/>
      <point x="287" y="-427"/>
      <point x="96" y="-450" type="qcurve" smooth="yes"/>
      <point x="90" y="-451"/>
      <point x="75" y="-451"/>
      <point x="71" y="-451" type="qcurve" smooth="yes"/>
      <point x="34" y="-451"/>
      <point x="-96" y="-421"/>
      <point x="-117" y="-421" type="qcurve" smooth="yes"/>
      <point x="-138" y="-421"/>
      <point x="-163" y="-438" type="qcurve" smooth="yes"/>
      <point x="-171" y="-443"/>
      <point x="-184" y="-455" type="qcurve"/>
      <point x="-184" y="-60" type="line"/>
      <point x="-93" y="-156"/>
      <point x="-83" y="-165" type="qcurve" smooth="yes"/>
      <point x="-8" y="-230"/>
      <point x="60" y="-230" type="qcurve" smooth="yes"/>
      <point x="70" y="-229"/>
      <point x="75" y="-229" type="qcurve" smooth="yes"/>
      <point x="162" y="-229"/>
      <point x="196" y="-138" type="qcurve" smooth="yes"/>
      <point x="219" y="-77"/>
      <point x="219" y="29" type="qcurve" smooth="yes"/>
      <point x="219" y="48"/>
      <point x="218" y="81"/>
      <point x="218" y="95" type="qcurve" smooth="yes"/>
      <point x="218" y="790" type="line" smooth="yes"/>
      <point x="218" y="847"/>
      <point x="207" y="913"/>
      <point x="185" y="956" type="qcurve" smooth="yes"/>
      <point x="171" y="985"/>
      <point x="119" y="1049"/>
      <point x="113" y="1050" type="qcurve" smooth="yes"/>
      <point x="479" y="1146" type="line"/>
    </contour>
  </outline>
</glyph>
<glyph name="k" format="1">
  <advance width="1331"/>
  <unicode hex="006B"/>
  <outline>
    <contour>
      <point x="1280" y="0" type="qcurve"/>
      <point x="778" y="0" type="line"/>
      <point x="804" y="16"/>
      <point x="834" y="59"/>
      <point x="834" y="85" type="qcurve" smooth="yes"/>
      <point x="834" y="93"/>
      <point x="833" y="98" type="qcurve" smooth="yes"/>
      <point x="825" y="140"/>
      <point x="824" y="143" type="qcurve" smooth="yes"/>
      <point x="821" y="153"/>
      <point x="811" y="168" type="qcurve" smooth="yes"/>
      <point x="558" y="553" type="line"/>
      <point x="438" y="438" type="line"/>
      <point x="438" y="237" type="line" smooth="yes"/>
      <point x="438" y="200"/>
      <point x="451" y="154" type="qcurve" smooth="yes"/>
      <point x="457" y="134"/>
      <point x="473" y="92" type="qcurve" smooth="yes"/>
      <point x="489" y="54"/>
      <point x="520" y="23" type="qcurve" smooth="yes"/>
      <point x="530" y="13"/>
      <point x="548" y="0" type="qcurve"/>
      <point x="80" y="0" type="line"/>
      <point x="90" y="9"/>
      <point x="96" y="15" type="qcurve" smooth="yes"/>
      <point x="134" y="54"/>
      <point x="164" y="126"/>
      <point x="177" y="195"/>
      <point x="177" y="239" type="qcurve" smooth="yes"/>
      <point x="177" y="1172" type="line" smooth="yes"/>
      <point x="177" y="1225"/>
      <point x="162" y="1292"/>
      <point x="139" y="1337" type="qcurve" smooth="yes"/>
      <point x="124" y="1366"/>
      <point x="96" y="1400" type="qcurve" smooth="yes"/>
      <point x="72" y="1430"/>
      <point x="65" y="1433" type="qcurve"/>
      <point x="436" y="1531" type="line"/>
      <point x="436" y="727" type="line"/>
      <point x="668" y="966" type="line" smooth="yes"/>
      <point x="691" y="990"/>
      <point x="720" y="1062"/>
      <point x="720" y="1092" type="qcurve" smooth="yes"/>
      <point x="719" y="1107"/>
      <point x="701" y="1133"/>
      <point x="692" y="1146" type="qcurve"/>
      <point x="1180" y="1146" type="line" smooth="yes"/>
      <point x="1180" y="1145"/>
      <point x="1110" y="1086" type="qcurve" smooth="yes"/>
      <point x="1068" y="1051"/>
      <point x="1036" y="1021" type="qcurve" smooth="yes"/>
      <point x="993" y="984"/>
      <point x="950" y="948" type="qcurve"/>
      <point x="739" y="734" type="line"/>
      <point x="1070" y="254" type="line" smooth="yes"/>
      <point x="1115" y="185"/>
      <point x="1120" y="178" type="qcurve" smooth="yes"/>
      <point x="1147" y="139"/>
      <point x="1175" y="105" type="qcurve" smooth="yes"/>
      <point x="1209" y="62"/>
      <point x="1248" y="27" type="qcurve" smooth="yes"/>
      <point x="1261" y="16"/>
    </contour>
  </outline>
</glyph>
<glyph name="l" format="1">
  <advance width="653"/>
  <unicode hex="006C"/>
  <outline>
    <contour>
      <point x="549" y="0" type="qcurve"/>
      <point x="88" y="0" type="line"/>
      <point x="99" y="9"/>
      <point x="106" y="15" type="qcurve" smooth="yes"/>
      <point x="146" y="53"/>
      <point x="178" y="127"/>
      <point x="187" y="169"/>
      <point x="187" y="195" type="qcurve" smooth="yes"/>
      <point x="187" y="207"/>
      <point x="186" y="229"/>
      <point x="186" y="239" type="qcurve" smooth="yes"/>
      <point x="186" y="1175" type="line" smooth="yes"/>
      <point x="186" y="1230"/>
      <point x="173" y="1298"/>
      <point x="150" y="1341" type="qcurve" smooth="yes"/>
      <point x="136" y="1369"/>
      <point x="107" y="1402" type="qcurve" smooth="yes"/>
      <point x="83" y="1429"/>
      <point x="76" y="1433" type="qcurve"/>
      <point x="444" y="1531" type="line"/>
      <point x="444" y="237" type="line" smooth="yes"/>
      <point x="444" y="196"/>
      <point x="454" y="161" type="qcurve" smooth="yes"/>
      <point x="459" y="145"/>
      <point x="481" y="89" type="qcurve" smooth="yes"/>
      <point x="491" y="62"/>
      <point x="521" y="28" type="qcurve" smooth="yes"/>
      <point x="531" y="17"/>
    </contour>
  </outline>
</glyph>
<glyph name="m" format="1">
  <advance width="1891"/>
  <unicode hex="006D"/>
  <outline>
    <contour>
      <point x="1827" y="0" type="qcurve" smooth="yes"/>
      <point x="1375" y="0" type="line"/>
      <point x="1387" y="15"/>
      <point x="1399" y="30" type="qcurve" smooth="yes"/>
      <point x="1432" y="71"/>
      <point x="1453" y="122"/>
      <point x="1463" y="175"/>
      <point x="1463" y="206" type="qcurve" smooth="yes"/>
      <point x="1463" y="736" type="line" smooth="yes"/>
      <point x="1463" y="817"/>
      <point x="1423" y="869" type="qcurve" smooth="yes"/>
      <point x="1378" y="928"/>
      <point x="1295" y="928" type="qcurve" smooth="yes"/>
      <point x="1199" y="928"/>
      <point x="1138" y="840" type="qcurve" smooth="yes"/>
      <point x="1083" y="760"/>
      <point x="1083" y="651" type="qcurve" smooth="yes"/>
      <point x="1083" y="326" type="line" smooth="yes"/>
      <point x="1083" y="263"/>
      <point x="1101" y="143"/>
      <point x="1114" y="98" type="qcurve" smooth="yes"/>
      <point x="1123" y="71"/>
      <point x="1150" y="33" type="qcurve" smooth="yes"/>
      <point x="1159" y="21"/>
      <point x="1176" y="0" type="qcurve"/>
      <point x="732" y="0" type="line"/>
      <point x="755" y="25"/>
      <point x="787" y="76"/>
      <point x="811" y="136"/>
      <point x="822" y="189"/>
      <point x="822" y="220" type="qcurve" smooth="yes"/>
      <point x="822" y="729" type="line" smooth="yes"/>
      <point x="822" y="813"/>
      <point x="788" y="863" type="qcurve" smooth="yes"/>
      <point x="746" y="924"/>
      <point x="660" y="924" type="qcurve" smooth="yes"/>
      <point x="564" y="924"/>
      <point x="502" y="850" type="qcurve" smooth="yes"/>
      <point x="444" y="780"/>
      <point x="444" y="682" type="qcurve" smooth="yes"/>
      <point x="444" y="237" type="line" smooth="yes"/>
      <point x="444" y="204"/>
      <point x="455" y="163" type="qcurve" smooth="yes"/>
      <point x="469" y="120"/>
      <point x="473" y="107" type="qcurve" smooth="yes"/>
      <point x="485" y="70"/>
      <point x="516" y="32" type="qcurve" smooth="yes"/>
      <point x="526" y="19"/>
      <point x="547" y="0" type="qcurve"/>
      <point x="86" y="0" type="line"/>
      <point x="103" y="16"/>
      <point x="113" y="27" type="qcurve" smooth="yes"/>
      <point x="144" y="61"/>
      <point x="156" y="89" type="qcurve" smooth="yes"/>
      <point x="172" y="129"/>
      <point x="184" y="195"/>
      <point x="184" y="239" type="qcurve" smooth="yes"/>
      <point x="184" y="758" type="line" smooth="yes"/>
      <point x="184" y="830"/>
      <point x="172" y="905"/>
      <point x="146" y="956" type="qcurve" smooth="yes"/>
      <point x="131" y="984"/>
      <point x="101" y="1019" type="qcurve" smooth="yes"/>
      <point x="75" y="1049"/>
      <point x="69" y="1050" type="qcurve" smooth="yes"/>
      <point x="390" y="1146" type="line"/>
      <point x="390" y="1019" type="line"/>
      <point x="454" y="1089"/>
      <point x="612" y="1146"/>
      <point x="722" y="1146" type="qcurve" smooth="yes"/>
      <point x="816" y="1146"/>
      <point x="889" y="1112" type="qcurve" smooth="yes"/>
      <point x="944" y="1087"/>
      <point x="980" y="1049" type="qcurve" smooth="yes"/>
      <point x="993" y="1031"/>
      <point x="1007" y="1014" type="qcurve"/>
      <point x="1082" y="1076"/>
      <point x="1154" y="1107" type="qcurve" smooth="yes"/>
      <point x="1243" y="1146"/>
      <point x="1344" y="1146" type="qcurve" smooth="yes"/>
      <point x="1507" y="1146"/>
      <point x="1717" y="936"/>
      <point x="1717" y="782" type="qcurve" smooth="yes"/>
      <point x="1717" y="266" type="line" smooth="yes"/>
      <point x="1717" y="215"/>
      <point x="1738" y="130"/>
      <point x="1758" y="92" type="qcurve" smooth="yes"/>
      <point x="1774" y="59"/>
      <point x="1808" y="19" type="qcurve" smooth="yes"/>
      <point x="1824" y="1"/>
    </contour>
  </outline>
</glyph>
<glyph name="n" format="1">
  <advance width="1225"/>
  <unicode hex="006E"/>
  <outline>
    <contour>
      <point x="1177" y="0" type="qcurve"/>
      <point x="699" y="0" type="line"/>
      <point x="722" y="19"/>
      <point x="734" y="31" type="qcurve" smooth="yes"/>
      <point x="772" y="69"/>
      <point x="797" y="129"/>
      <point x="807" y="187"/>
      <point x="807" y="220" type="qcurve" smooth="yes"/>
      <point x="807" y="729" type="line" smooth="yes"/>
      <point x="807" y="817"/>
      <point x="779" y="863" type="qcurve" smooth="yes"/>
      <point x="742" y="924"/>
      <point x="656" y="924" type="qcurve" smooth="yes"/>
      <point x="560" y="924"/>
      <point x="441" y="780"/>
      <point x="441" y="682" type="qcurve" smooth="yes"/>
      <point x="441" y="237" type="line" smooth="yes"/>
      <point x="441" y="204"/>
      <point x="452" y="163" type="qcurve" smooth="yes"/>
      <point x="457" y="145"/>
      <point x="481" y="71"/>
      <point x="519" y="32" type="qcurve" smooth="yes"/>
      <point x="531" y="19"/>
      <point x="555" y="0" type="qcurve"/>
      <point x="82" y="0" type="line"/>
      <point x="99" y="17"/>
      <point x="108" y="27" type="qcurve" smooth="yes"/>
      <point x="139" y="62"/>
      <point x="167" y="124"/>
      <point x="180" y="196"/>
      <point x="180" y="239" type="qcurve" smooth="yes"/>
      <point x="180" y="758" type="line" smooth="yes"/>
      <point x="180" y="834"/>
      <point x="168" y="916"/>
      <point x="142" y="966" type="qcurve" smooth="yes"/>
      <point x="128" y="992"/>
      <point x="99" y="1023" type="qcurve" smooth="yes"/>
      <point x="75" y="1049"/>
      <point x="68" y="1050" type="qcurve" smooth="yes"/>
      <point x="396" y="1146" type="line"/>
      <point x="396" y="1029" type="line"/>
      <point x="457" y="1093"/>
      <point x="619" y="1146"/>
      <point x="718" y="1146" type="qcurve" smooth="yes"/>
      <point x="884" y="1146"/>
      <point x="973" y="1046" type="qcurve" smooth="yes"/>
      <point x="1070" y="936"/>
      <point x="1070" y="708" type="qcurve" smooth="yes"/>
      <point x="1070" y="326" type="line" smooth="yes"/>
      <point x="1070" y="251"/>
      <point x="1087" y="132"/>
      <point x="1104" y="95" type="qcurve" smooth="yes"/>
      <point x="1117" y="68"/>
      <point x="1147" y="32" type="qcurve" smooth="yes"/>
      <point x="1157" y="20"/>
    </contour>
  </outline>
</glyph>
<glyph name="o" format="1">
  <advance width="1100"/>
  <unicode hex="006F"/>
  <outline>
    <contour>
      <point x="1043" y="571" type="qcurve" smooth="yes"/>
      <point x="1043" y="313"/>
      <point x="944" y="163" type="qcurve" smooth="yes"/>
      <point x="822" y="-22"/>
      <point x="558" y="-22" type="qcurve" smooth="yes"/>
      <point x="322" y="-22"/>
      <point x="72" y="278"/>
      <point x="72" y="559" type="qcurve" smooth="yes"/>
      <point x="72" y="722"/>
      <point x="114" y="843" type="qcurve" smooth="yes"/>
      <point x="163" y="984"/>
      <point x="265" y="1060" type="qcurve" smooth="yes"/>
      <point x="381" y="1146"/>
      <point x="565" y="1146" type="qcurve" smooth="yes"/>
      <point x="808" y="1146"/>
      <point x="935" y="965" type="qcurve" smooth="yes"/>
      <point x="1043" y="811"/>
    </contour>
    <contour>
      <point x="785" y="566" type="qcurve" smooth="yes"/>
      <point x="785" y="719"/>
      <point x="739" y="813" type="qcurve" smooth="yes"/>
      <point x="680" y="934"/>
      <point x="553" y="934" type="qcurve" smooth="yes"/>
      <point x="440" y="934"/>
      <point x="379" y="813" type="qcurve" smooth="yes"/>
      <point x="328" y="711"/>
      <point x="328" y="566" type="qcurve" smooth="yes"/>
      <point x="328" y="406"/>
      <point x="370" y="312" type="qcurve" smooth="yes"/>
      <point x="426" y="186"/>
      <point x="553" y="186" type="qcurve" smooth="yes"/>
      <point x="677" y="186"/>
      <point x="737" y="311" type="qcurve" smooth="yes"/>
      <point x="785" y="411"/>
    </contour>
  </outline>
</glyph>
<glyph name="p" format="1">
  <advance width="1153"/>
  <unicode hex="0070"/>
  <outline>
    <contour>
      <point x="1097" y="607" type="qcurve" smooth="yes"/>
      <point x="1097" y="435"/>
      <point x="1069" y="322" type="qcurve" smooth="yes"/>
      <point x="1030" y="164"/>
      <point x="936" y="79" type="qcurve" smooth="yes"/>
      <point x="824" y="-22"/>
      <point x="629" y="-22" type="qcurve" smooth="yes"/>
      <point x="575" y="-22"/>
      <point x="491" y="0" type="qcurve" smooth="yes"/>
      <point x="463" y="7"/>
      <point x="417" y="22" type="qcurve"/>
      <point x="417" y="-134" type="line" smooth="yes"/>
      <point x="417" y="-213"/>
      <point x="424" y="-255" type="qcurve" smooth="yes"/>
      <point x="428" y="-277"/>
      <point x="459" y="-359" type="qcurve" smooth="yes"/>
      <point x="470" y="-387"/>
      <point x="497" y="-421" type="qcurve" smooth="yes"/>
      <point x="506" y="-432"/>
      <point x="522" y="-450" type="qcurve"/>
      <point x="56" y="-450" type="line"/>
      <point x="71" y="-433"/>
      <point x="80" y="-422" type="qcurve" smooth="yes"/>
      <point x="106" y="-389"/>
      <point x="122" y="-361" type="qcurve" smooth="yes"/>
      <point x="144" y="-322"/>
      <point x="158" y="-248"/>
      <point x="158" y="-194" type="qcurve" smooth="yes"/>
      <point x="158" y="787" type="line" smooth="yes"/>
      <point x="158" y="844"/>
      <point x="157" y="855" type="qcurve" smooth="yes"/>
      <point x="152" y="905"/>
      <point x="127" y="959" type="qcurve" smooth="yes"/>
      <point x="112" y="991"/>
      <point x="81" y="1030" type="qcurve" smooth="yes"/>
      <point x="66" y="1049"/>
      <point x="63" y="1050" type="qcurve" smooth="yes"/>
      <point x="383" y="1146" type="line"/>
      <point x="383" y="1036" type="line"/>
      <point x="452" y="1097"/>
      <point x="591" y="1146"/>
      <point x="687" y="1146" type="qcurve" smooth="yes"/>
      <point x="883" y="1146"/>
      <point x="995" y="985" type="qcurve" smooth="yes"/>
      <point x="1097" y="838"/>
    </contour>
    <contour>
      <point x="839" y="584" type="qcurve" smooth="yes"/>
      <point x="839" y="740"/>
      <point x="797" y="827" type="qcurve" smooth="yes"/>
      <point x="747" y="931"/>
      <point x="639" y="931" type="qcurve" smooth="yes"/>
      <point x="519" y="931"/>
      <point x="465" y="830" type="qcurve" smooth="yes"/>
      <point x="419" y="744"/>
      <point x="419" y="586" type="qcurve" smooth="yes"/>
      <point x="419" y="443"/>
      <point x="427" y="386" type="qcurve" smooth="yes"/>
      <point x="440" y="292"/>
      <point x="480" y="246" type="qcurve" smooth="yes"/>
      <point x="525" y="194"/>
      <point x="617" y="194" type="qcurve" smooth="yes"/>
      <point x="722" y="194"/>
      <point x="782" y="307" type="qcurve" smooth="yes"/>
      <point x="839" y="414"/>
    </contour>
  </outline>
</glyph>
<glyph name="q" format="1">
  <advance width="1158"/>
  <unicode hex="0071"/>
  <outline>
    <contour>
      <point x="1113" y="-450" type="qcurve"/>
      <point x="647" y="-450" type="line"/>
      <point x="662" y="-434"/>
      <point x="671" y="-424" type="qcurve" smooth="yes"/>
      <point x="699" y="-390"/>
      <point x="710" y="-363" type="qcurve" smooth="yes"/>
      <point x="727" y="-317"/>
      <point x="740" y="-236"/>
      <point x="740" y="-139" type="qcurve" smooth="yes"/>
      <point x="740" y="41" type="line"/>
      <point x="705" y="20"/>
      <point x="680" y="10" type="qcurve" smooth="yes"/>
      <point x="601" y="-22"/>
      <point x="518" y="-22" type="qcurve" smooth="yes"/>
      <point x="343" y="-22"/>
      <point x="236" y="63" type="qcurve" smooth="yes"/>
      <point x="143" y="137"/>
      <point x="101" y="275" type="qcurve" smooth="yes"/>
      <point x="66" y="390"/>
      <point x="66" y="548" type="qcurve" smooth="yes"/>
      <point x="66" y="800"/>
      <point x="172" y="959" type="qcurve" smooth="yes"/>
      <point x="298" y="1148"/>
      <point x="545" y="1148" type="qcurve" smooth="yes"/>
      <point x="647" y="1148"/>
      <point x="700" y="1132" type="qcurve" smooth="yes"/>
      <point x="815" y="1097"/>
      <point x="855" y="1097" type="qcurve" smooth="yes"/>
      <point x="898" y="1097"/>
      <point x="957" y="1120" type="qcurve" smooth="yes"/>
      <point x="981" y="1133"/>
      <point x="1006" y="1146" type="qcurve"/>
      <point x="1006" y="-199" type="line" smooth="yes"/>
      <point x="1006" y="-250"/>
      <point x="1023" y="-324"/>
      <point x="1047" y="-366" type="qcurve" smooth="yes"/>
      <point x="1062" y="-392"/>
      <point x="1089" y="-424" type="qcurve" smooth="yes"/>
      <point x="1098" y="-434"/>
    </contour>
    <contour>
      <point x="750" y="586" type="qcurve" smooth="yes"/>
      <point x="750" y="750"/>
      <point x="711" y="832" type="qcurve" smooth="yes"/>
      <point x="662" y="936"/>
      <point x="545" y="936" type="qcurve" smooth="yes"/>
      <point x="440" y="936"/>
      <point x="382" y="830" type="qcurve" smooth="yes"/>
      <point x="330" y="734"/>
      <point x="330" y="584" type="qcurve" smooth="yes"/>
      <point x="330" y="399"/>
      <point x="373" y="309" type="qcurve" smooth="yes"/>
      <point x="425" y="199"/>
      <point x="552" y="199" type="qcurve" smooth="yes"/>
      <point x="657" y="199"/>
      <point x="706" y="309" type="qcurve" smooth="yes"/>
      <point x="750" y="407"/>
    </contour>
  </outline>
</glyph>
<glyph name="r" format="1">
  <advance width="877"/>
  <unicode hex="0072"/>
  <outline>
    <contour>
      <point x="817" y="692" type="line"/>
      <point x="777" y="767"/>
      <point x="750" y="804" type="qcurve" smooth="yes"/>
      <point x="668" y="916"/>
      <point x="593" y="916" type="qcurve" smooth="yes"/>
      <point x="504" y="916"/>
      <point x="457" y="827" type="qcurve" smooth="yes"/>
      <point x="418" y="753"/>
      <point x="418" y="644" type="qcurve" smooth="yes"/>
      <point x="418" y="237" type="line" smooth="yes"/>
      <point x="418" y="200"/>
      <point x="430" y="152" type="qcurve" smooth="yes"/>
      <point x="436" y="129"/>
      <point x="451" y="66"/>
      <point x="486" y="29" type="qcurve" smooth="yes"/>
      <point x="497" y="17"/>
      <point x="520" y="0" type="qcurve"/>
      <point x="59" y="0" type="line"/>
      <point x="77" y="16"/>
      <point x="86" y="25" type="qcurve" smooth="yes"/>
      <point x="116" y="55"/>
      <point x="127" y="75" type="qcurve" smooth="yes"/>
      <point x="146" y="114"/>
      <point x="159" y="186"/>
      <point x="159" y="239" type="qcurve" smooth="yes"/>
      <point x="159" y="790" type="line" smooth="yes"/>
      <point x="159" y="803"/>
      <point x="159" y="829"/>
      <point x="160" y="842" type="qcurve" smooth="yes"/>
      <point x="160" y="891"/>
      <point x="150" y="935"/>
      <point x="136" y="963" type="qcurve" smooth="yes"/>
      <point x="126" y="983"/>
      <point x="105" y="1008" type="qcurve" smooth="yes"/>
      <point x="78" y="1039"/>
      <point x="62" y="1050" type="qcurve"/>
      <point x="373" y="1146" type="line"/>
      <point x="373" y="1026" type="line"/>
      <point x="411" y="1072"/>
      <point x="471" y="1107" type="qcurve" smooth="yes"/>
      <point x="538" y="1146"/>
      <point x="607" y="1146" type="qcurve" smooth="yes"/>
      <point x="637" y="1146"/>
      <point x="707" y="1125" type="qcurve" smooth="yes"/>
      <point x="743" y="1114"/>
      <point x="767" y="1114" type="qcurve" smooth="yes"/>
      <point x="781" y="1114"/>
      <point x="801" y="1125" type="qcurve" smooth="yes"/>
      <point x="809" y="1132"/>
      <point x="817" y="1139" type="qcurve"/>
    </contour>
  </outline>
</glyph>
